<svg width="46" height="46" viewBox="0 0 46 46" fill="none" xmlns="http://www.w3.org/2000/svg">
<mask id="path-1-inside-1_174_800" fill="white">
<path d="M42.1462 16.7177L38.9782 13.5496L40.6753 11.7959L33.4341 4.55466L31.6804 6.25182L28.4558 3.02721L30.1529 1.27347C31.0204 0.406035 32.0952 -0.0182555 33.3775 0.000601831C34.6598 0.0194592 35.7347 0.462607 36.6021 1.33005L43.9 8.62785C44.7674 9.49529 45.2011 10.5607 45.2011 11.8242C45.2011 13.0876 44.7674 14.1531 43.9 15.0205L42.1462 16.7177ZM14.9916 43.9288C14.1242 44.7963 13.0587 45.23 11.7953 45.23C10.5318 45.23 9.4664 44.7963 8.59896 43.9288L1.30116 36.631C0.433719 35.7636 0 34.6982 0 33.4347C0 32.1713 0.433719 31.1058 1.30116 30.2384L2.99832 28.5412L6.22293 31.7658L4.4692 33.463L11.767 40.7608L13.4642 39.0071L16.6888 42.2317L14.9916 43.9288ZM37.4507 24.9206L40.6753 21.696L23.534 4.55466L20.3094 7.77927L37.4507 24.9206ZM21.6105 40.7608L24.8352 37.4796L7.75038 20.3948L4.4692 23.6195L21.6105 40.7608ZM21.2711 27.5229L27.494 21.3566L23.8734 17.736L17.7071 23.9589L21.2711 27.5229ZM24.8352 43.9288C23.9677 44.7963 22.8928 45.23 21.6105 45.23C20.3282 45.23 19.2534 44.7963 18.3859 43.9288L1.30116 26.8441C0.433719 25.9766 0 24.9018 0 23.6195C0 22.3372 0.433719 21.2623 1.30116 20.3948L4.52577 17.1702C5.39321 16.3028 6.45865 15.8691 7.72209 15.8691C8.98554 15.8691 10.051 16.3028 10.9184 17.1702L14.4825 20.7343L20.7054 14.5113L17.1413 11.0039C16.2739 10.1364 15.8402 9.06157 15.8402 7.77927C15.8402 6.49697 16.2739 5.4221 17.1413 4.55466L20.366 1.33005C21.2334 0.462607 22.2988 0.0288879 23.5623 0.0288879C24.8257 0.0288879 25.8912 0.462607 26.7586 1.33005L43.9 18.4714C44.7674 19.3388 45.2011 20.4043 45.2011 21.6677C45.2011 22.9312 44.7674 23.9966 43.9 24.864L40.6753 28.0887C39.8079 28.9561 38.733 29.3898 37.4507 29.3898C36.1684 29.3898 35.0936 28.9561 34.2261 28.0887L30.7187 24.5246L24.4957 30.7475L28.0598 34.3116C28.9272 35.179 29.3609 36.2445 29.3609 37.5079C29.3609 38.7714 28.9272 39.8368 28.0598 40.7042L24.8352 43.9288Z"/>
</mask>
<path d="M42.1462 16.7177L38.9782 13.5496L40.6753 11.7959L33.4341 4.55466L31.6804 6.25182L28.4558 3.02721L30.1529 1.27347C31.0204 0.406035 32.0952 -0.0182555 33.3775 0.000601831C34.6598 0.0194592 35.7347 0.462607 36.6021 1.33005L43.9 8.62785C44.7674 9.49529 45.2011 10.5607 45.2011 11.8242C45.2011 13.0876 44.7674 14.1531 43.9 15.0205L42.1462 16.7177ZM14.9916 43.9288C14.1242 44.7963 13.0587 45.23 11.7953 45.23C10.5318 45.23 9.4664 44.7963 8.59896 43.9288L1.30116 36.631C0.433719 35.7636 0 34.6982 0 33.4347C0 32.1713 0.433719 31.1058 1.30116 30.2384L2.99832 28.5412L6.22293 31.7658L4.4692 33.463L11.767 40.7608L13.4642 39.0071L16.6888 42.2317L14.9916 43.9288ZM37.4507 24.9206L40.6753 21.696L23.534 4.55466L20.3094 7.77927L37.4507 24.9206ZM21.6105 40.7608L24.8352 37.4796L7.75038 20.3948L4.4692 23.6195L21.6105 40.7608ZM21.2711 27.5229L27.494 21.3566L23.8734 17.736L17.7071 23.9589L21.2711 27.5229ZM24.8352 43.9288C23.9677 44.7963 22.8928 45.23 21.6105 45.23C20.3282 45.23 19.2534 44.7963 18.3859 43.9288L1.30116 26.8441C0.433719 25.9766 0 24.9018 0 23.6195C0 22.3372 0.433719 21.2623 1.30116 20.3948L4.52577 17.1702C5.39321 16.3028 6.45865 15.8691 7.72209 15.8691C8.98554 15.8691 10.051 16.3028 10.9184 17.1702L14.4825 20.7343L20.7054 14.5113L17.1413 11.0039C16.2739 10.1364 15.8402 9.06157 15.8402 7.77927C15.8402 6.49697 16.2739 5.4221 17.1413 4.55466L20.366 1.33005C21.2334 0.462607 22.2988 0.0288879 23.5623 0.0288879C24.8257 0.0288879 25.8912 0.462607 26.7586 1.33005L43.9 18.4714C44.7674 19.3388 45.2011 20.4043 45.2011 21.6677C45.2011 22.9312 44.7674 23.9966 43.9 24.864L40.6753 28.0887C39.8079 28.9561 38.733 29.3898 37.4507 29.3898C36.1684 29.3898 35.0936 28.9561 34.2261 28.0887L30.7187 24.5246L24.4957 30.7475L28.0598 34.3116C28.9272 35.179 29.3609 36.2445 29.3609 37.5079C29.3609 38.7714 28.9272 39.8368 28.0598 40.7042L24.8352 43.9288Z" fill="white"/>
<path d="M42.1462 16.7177L38.6107 20.2532L42.0887 23.7312L45.6233 20.3107L42.1462 16.7177ZM38.9782 13.5496L35.3852 10.0725L31.9646 13.6071L35.4426 17.0852L38.9782 13.5496ZM40.6753 11.7959L44.2684 15.273L47.6889 11.7384L44.2109 8.26035L40.6753 11.7959ZM33.4341 4.55466L36.9696 1.01912L33.4916 -2.45893L29.957 0.961646L33.4341 4.55466ZM31.6804 6.25182L28.1448 9.78735L31.6229 13.2654L35.1575 9.84483L31.6804 6.25182ZM28.4558 3.02721L24.8628 -0.449897L21.4422 3.08469L24.9202 6.56274L28.4558 3.02721ZM30.1529 1.27347L26.6174 -2.26206L26.5884 -2.23308L26.5599 -2.20363L30.1529 1.27347ZM36.6021 1.33005L33.0666 4.86558L36.6021 1.33005ZM43.9 8.62785L47.4355 5.09231L43.9 8.62785ZM43.9 15.0205L47.3771 18.6135L47.4065 18.585L47.4355 18.556L43.9 15.0205ZM14.9916 43.9288L11.4561 40.3933L14.9916 43.9288ZM8.59896 43.9288L12.1345 40.3933L8.59896 43.9288ZM1.30116 36.631L-2.23438 40.1666L1.30116 36.631ZM1.30116 30.2384L-2.23437 26.7029L-2.23438 26.7029L1.30116 30.2384ZM2.99832 28.5412L6.53385 25.0057L2.99832 21.4702L-0.537211 25.0057L2.99832 28.5412ZM6.22293 31.7658L9.70004 35.3588L13.3524 31.8243L9.75846 28.2303L6.22293 31.7658ZM4.4692 33.463L0.992089 29.87L-2.66031 33.4046L0.933662 36.9985L4.4692 33.463ZM11.767 40.7608L8.23146 44.2963L11.8254 47.8903L15.36 44.2379L11.767 40.7608ZM13.4642 39.0071L16.9997 35.4715L13.4057 31.8776L9.87115 35.53L13.4642 39.0071ZM16.6888 42.2317L20.2243 45.7672L23.7598 42.2317L20.2243 38.6961L16.6888 42.2317ZM37.4507 24.9206L33.9152 28.4561L37.4507 31.9917L40.9863 28.4561L37.4507 24.9206ZM40.6753 21.696L44.2109 25.2315L47.7464 21.696L44.2109 18.1605L40.6753 21.696ZM23.534 4.55466L27.0695 1.01912L23.534 -2.51641L19.9985 1.01912L23.534 4.55466ZM20.3094 7.77927L16.7739 4.24373L13.2383 7.77927L16.7739 11.3148L20.3094 7.77927ZM21.6105 40.7608L18.075 44.2963L21.6414 47.8627L25.1767 44.2655L21.6105 40.7608ZM24.8352 37.4796L28.4013 40.9843L31.8756 37.449L28.3707 33.9441L24.8352 37.4796ZM7.75038 20.3948L11.2859 16.8593L7.78099 13.3544L4.24572 16.8287L7.75038 20.3948ZM4.4692 23.6195L0.964538 20.0533L-2.63275 23.5886L0.933662 27.155L4.4692 23.6195ZM21.2711 27.5229L17.7356 31.0585L21.255 34.5779L24.7905 31.0746L21.2711 27.5229ZM27.494 21.3566L31.0134 24.9082L34.5813 21.3728L31.0296 17.821L27.494 21.3566ZM23.8734 17.736L27.409 14.2004L23.8572 10.6487L20.3218 14.2166L23.8734 17.736ZM17.7071 23.9589L14.1554 20.4395L10.6521 23.975L14.1715 27.4944L17.7071 23.9589ZM24.8352 43.9288L21.2996 40.3933L24.8352 43.9288ZM18.3859 43.9288L21.9215 40.3933L18.3859 43.9288ZM1.30116 26.8441L-2.23438 30.3796H-2.23438L1.30116 26.8441ZM14.4825 20.7343L10.9469 24.2698L14.4825 27.8053L18.018 24.2698L14.4825 20.7343ZM20.7054 14.5113L24.2409 18.0469L27.8049 14.483L24.2125 10.9476L20.7054 14.5113ZM17.1413 11.0039L13.6058 14.5394L13.62 14.5536L13.6342 14.5676L17.1413 11.0039ZM17.1413 4.55466L13.6058 1.01912V1.01912L17.1413 4.55466ZM20.366 1.33005L23.9015 4.86558L20.366 1.33005ZM26.7586 1.33005L30.2941 -2.20549L26.7586 1.33005ZM43.9 18.4714L40.3644 22.0069L43.9 18.4714ZM34.2261 28.0887L30.6624 31.5958L30.6764 31.61L30.6906 31.6242L34.2261 28.0887ZM30.7187 24.5246L34.2824 21.0175L30.747 17.4251L27.1831 20.9891L30.7187 24.5246ZM24.4957 30.7475L20.9602 27.212L17.4247 30.7475L20.9602 34.2831L24.4957 30.7475ZM28.0598 34.3116L31.5953 30.776L28.0598 34.3116ZM28.0598 40.7042L31.5953 44.2398L28.0598 40.7042ZM45.6818 13.1821L42.5137 10.0141L35.4426 17.0852L38.6107 20.2532L45.6818 13.1821ZM42.5712 17.0267L44.2684 15.273L37.0823 8.31878L35.3852 10.0725L42.5712 17.0267ZM44.2109 8.26035L36.9696 1.01912L29.8986 8.09019L37.1398 15.3314L44.2109 8.26035ZM29.957 0.961646L28.2033 2.65881L35.1575 9.84483L36.9112 8.14767L29.957 0.961646ZM35.2159 2.71629L31.9913 -0.508324L24.9202 6.56274L28.1448 9.78735L35.2159 2.71629ZM32.0488 6.50432L33.7459 4.75058L26.5599 -2.20363L24.8628 -0.449897L32.0488 6.50432ZM33.6885 4.80901C33.6832 4.81423 33.658 4.83823 33.6112 4.86934C33.5638 4.90091 33.5071 4.93113 33.4455 4.95545C33.312 5.00816 33.2442 4.99918 33.304 5.00006L33.4511 -4.99886C30.886 -5.03658 28.4881 -4.13271 26.6174 -2.26206L33.6885 4.80901ZM33.304 5.00006C33.3464 5.00068 33.3557 5.00428 33.3387 5.00094C33.3207 4.99742 33.2854 4.98851 33.2396 4.96966C33.1936 4.95068 33.1511 4.92742 33.116 4.90373C33.0814 4.88041 33.0654 4.86435 33.0666 4.86558L40.1377 -2.20549C38.3053 -4.0379 35.9684 -4.96184 33.4511 -4.99886L33.304 5.00006ZM33.0666 4.86558L40.3644 12.1634L47.4355 5.09231L40.1377 -2.20549L33.0666 4.86558ZM40.3644 12.1634C40.3657 12.1647 40.3477 12.1467 40.3214 12.1077C40.2948 12.068 40.2675 12.0185 40.2448 11.9627C40.1951 11.8404 40.2011 11.775 40.2011 11.8242H50.2011C50.2011 9.27902 49.2715 6.92835 47.4355 5.09231L40.3644 12.1634ZM40.2011 11.8242C40.2011 11.8733 40.1951 11.8079 40.2448 11.6857C40.2675 11.6298 40.2948 11.5803 40.3214 11.5406C40.3477 11.5016 40.3657 11.4836 40.3644 11.485L47.4355 18.556C49.2715 16.72 50.2011 14.3693 50.2011 11.8242H40.2011ZM40.4228 11.4275L38.6691 13.1246L45.6233 20.3107L47.3771 18.6135L40.4228 11.4275ZM11.4561 40.3933C11.4548 40.3946 11.4728 40.3766 11.5118 40.3503C11.5514 40.3236 11.601 40.2964 11.6568 40.2737C11.779 40.2239 11.8444 40.23 11.7953 40.23V50.23C14.3404 50.23 16.6911 49.3004 18.5271 47.4644L11.4561 40.3933ZM11.7953 40.23C11.7461 40.23 11.8115 40.2239 11.9338 40.2737C11.9896 40.2964 12.0392 40.3236 12.0788 40.3503C12.1178 40.3766 12.1358 40.3946 12.1345 40.3933L5.06343 47.4644C6.89946 49.3004 9.25013 50.23 11.7953 50.23V40.23ZM12.1345 40.3933L4.83669 33.0955L-2.23438 40.1666L5.06343 47.4644L12.1345 40.3933ZM4.83669 33.0955C4.83537 33.0942 4.85341 33.1122 4.87966 33.1512C4.90636 33.1908 4.93356 33.2404 4.95628 33.2962C5.00606 33.4185 5 33.4839 5 33.4347H-5C-5 35.9799 -4.07041 38.3305 -2.23438 40.1666L4.83669 33.0955ZM5 33.4347C5 33.3856 5.00606 33.451 4.95628 33.5732C4.93356 33.629 4.90636 33.6786 4.87966 33.7182C4.85341 33.7572 4.83537 33.7752 4.83669 33.7739L-2.23438 26.7029C-4.07041 28.5389 -5 30.8896 -5 33.4347H5ZM4.83669 33.7739L6.53385 32.0768L-0.537211 25.0057L-2.23437 26.7029L4.83669 33.7739ZM-0.537212 32.0768L2.6874 35.3014L9.75846 28.2303L6.53385 25.0057L-0.537212 32.0768ZM2.74582 28.1728L0.992089 29.87L7.9463 37.056L9.70004 35.3588L2.74582 28.1728ZM0.933662 36.9985L8.23146 44.2963L15.3025 37.2253L8.00473 29.9275L0.933662 36.9985ZM15.36 44.2379L17.0572 42.4842L9.87115 35.53L8.17399 37.2837L15.36 44.2379ZM9.92863 42.5426L13.1532 45.7672L20.2243 38.6961L16.9997 35.4715L9.92863 42.5426ZM13.1532 38.6961L11.4561 40.3933L18.5271 47.4644L20.2243 45.7672L13.1532 38.6961ZM40.9863 28.4561L44.2109 25.2315L37.1398 18.1605L33.9152 21.3851L40.9863 28.4561ZM44.2109 18.1605L27.0695 1.01912L19.9985 8.09019L37.1398 25.2315L44.2109 18.1605ZM19.9985 1.01912L16.7739 4.24373L23.8449 11.3148L27.0695 8.09019L19.9985 1.01912ZM16.7739 11.3148L33.9152 28.4561L40.9863 21.3851L23.8449 4.24373L16.7739 11.3148ZM25.1767 44.2655L28.4013 40.9843L21.269 33.975L18.0444 37.2561L25.1767 44.2655ZM28.3707 33.9441L11.2859 16.8593L4.21484 23.9304L21.2996 41.0152L28.3707 33.9441ZM4.24572 16.8287L0.964538 20.0533L7.97385 27.1856L11.255 23.961L4.24572 16.8287ZM0.933662 27.155L18.075 44.2963L25.1461 37.2253L8.00473 20.0839L0.933662 27.155ZM24.7905 31.0746L31.0134 24.9082L23.9747 17.8049L17.7518 23.9713L24.7905 31.0746ZM31.0296 17.821L27.409 14.2004L20.3379 21.2715L23.9585 24.8921L31.0296 17.821ZM20.3218 14.2166L14.1554 20.4395L21.2587 27.4782L27.4251 21.2553L20.3218 14.2166ZM14.1715 27.4944L17.7356 31.0585L24.8066 23.9874L21.2426 20.4234L14.1715 27.4944ZM21.2996 40.3933C21.3016 40.3913 21.3222 40.3713 21.3629 40.3441C21.4041 40.3164 21.4537 40.2897 21.5075 40.268C21.6248 40.2206 21.6787 40.23 21.6105 40.23V50.23C24.152 50.23 26.5193 49.3158 28.3707 47.4644L21.2996 40.3933ZM21.6105 40.23C21.5423 40.23 21.5963 40.2206 21.7136 40.268C21.7674 40.2897 21.817 40.3164 21.8582 40.3441C21.8989 40.3713 21.9195 40.3913 21.9215 40.3933L14.8504 47.4644C16.7018 49.3158 19.0691 50.23 21.6105 50.23V40.23ZM21.9215 40.3933L4.83669 23.3085L-2.23438 30.3796L14.8504 47.4644L21.9215 40.3933ZM4.83669 23.3085C4.83869 23.3105 4.85871 23.3311 4.88594 23.3718C4.91357 23.413 4.94034 23.4626 4.96204 23.5164C5.00938 23.6337 5 23.6877 5 23.6195H-5C-5 26.1609 -4.08577 28.5282 -2.23438 30.3796L4.83669 23.3085ZM5 23.6195C5 23.5513 5.00938 23.6052 4.96204 23.7225C4.94034 23.7763 4.91357 23.8259 4.88594 23.8671C4.85871 23.9078 4.83869 23.9284 4.83669 23.9304L-2.23438 16.8593C-4.08577 18.7107 -5 21.078 -5 23.6195H5ZM4.83669 23.9304L8.0613 20.7058L0.990234 13.6347L-2.23438 16.8593L4.83669 23.9304ZM8.0613 20.7058C8.06262 20.7045 8.04462 20.7225 8.00562 20.7487C7.96596 20.7754 7.91642 20.8026 7.86061 20.8254C7.73834 20.8751 7.67294 20.8691 7.72209 20.8691V10.8691C5.17694 10.8691 2.82627 11.7987 0.990234 13.6347L8.0613 20.7058ZM7.72209 20.8691C7.77124 20.8691 7.70584 20.8751 7.58357 20.8254C7.52776 20.8026 7.47822 20.7754 7.43856 20.7487C7.39956 20.7225 7.38156 20.7045 7.38288 20.7058L14.4539 13.6347C12.6179 11.7987 10.2672 10.8691 7.72209 10.8691V20.8691ZM7.38288 20.7058L10.9469 24.2698L18.018 17.1987L14.4539 13.6347L7.38288 20.7058ZM18.018 24.2698L24.2409 18.0469L17.1699 10.9758L10.9469 17.1987L18.018 24.2698ZM24.2125 10.9476L20.6485 7.44017L13.6342 14.5676L17.1983 18.0751L24.2125 10.9476ZM20.6769 7.46834C20.6789 7.47034 20.6989 7.49096 20.7261 7.5316C20.7538 7.57285 20.7805 7.62239 20.8022 7.67617C20.8496 7.79349 20.8402 7.84746 20.8402 7.77927H10.8402C10.8402 10.3207 11.7544 12.688 13.6058 14.5394L20.6769 7.46834ZM20.8402 7.77927C20.8402 7.71107 20.8496 7.76504 20.8022 7.88236C20.7805 7.93614 20.7538 7.98568 20.7261 8.02693C20.6989 8.06758 20.6789 8.08819 20.6769 8.09019L13.6058 1.01912C11.7544 2.87052 10.8402 5.2378 10.8402 7.77927H20.8402ZM20.6769 8.09019L23.9015 4.86558L16.8304 -2.20549L13.6058 1.01912L20.6769 8.09019ZM23.9015 4.86558C23.9028 4.86426 23.8848 4.88229 23.8458 4.90855C23.8062 4.93525 23.7566 4.96245 23.7008 4.98517C23.5785 5.03494 23.5131 5.02889 23.5623 5.02889V-4.97111C21.0171 -4.97111 18.6665 -4.04153 16.8304 -2.20549L23.9015 4.86558ZM23.5623 5.02889C23.6114 5.02889 23.546 5.03494 23.4238 4.98517C23.368 4.96245 23.3184 4.93525 23.2787 4.90855C23.2397 4.88229 23.2218 4.86426 23.2231 4.86558L30.2941 -2.20549C28.4581 -4.04153 26.1074 -4.97111 23.5623 -4.97111V5.02889ZM23.2231 4.86558L40.3644 22.0069L47.4355 14.9359L30.2941 -2.20549L23.2231 4.86558ZM40.3644 22.0069C40.3657 22.0082 40.3477 21.9903 40.3214 21.9513C40.2948 21.9116 40.2675 21.862 40.2448 21.8062C40.1951 21.684 40.2011 21.6186 40.2011 21.6677H50.2011C50.2011 19.1226 49.2715 16.7719 47.4355 14.9359L40.3644 22.0069ZM40.2011 21.6677C40.2011 21.7169 40.1951 21.6515 40.2448 21.5292C40.2675 21.4734 40.2948 21.4238 40.3214 21.3842C40.3477 21.3452 40.3657 21.3272 40.3644 21.3285L47.4355 28.3996C49.2715 26.5635 50.2011 24.2129 50.2011 21.6677H40.2011ZM40.3644 21.3285L37.1398 24.5531L44.2109 31.6242L47.4355 28.3996L40.3644 21.3285ZM37.1398 24.5531C37.1418 24.5511 37.1624 24.5311 37.2031 24.5039C37.2443 24.4762 37.2939 24.4495 37.3476 24.4278C37.465 24.3804 37.5189 24.3898 37.4507 24.3898V34.3898C39.9922 34.3898 42.3595 33.4756 44.2109 31.6242L37.1398 24.5531ZM37.4507 24.3898C37.3825 24.3898 37.4365 24.3804 37.5538 24.4278C37.6076 24.4495 37.6571 24.4762 37.6984 24.5039C37.739 24.5311 37.7597 24.5511 37.7617 24.5531L30.6906 31.6242C32.542 33.4756 34.9093 34.3898 37.4507 34.3898V24.3898ZM37.7898 24.5815L34.2824 21.0175L27.1549 28.0317L30.6624 31.5958L37.7898 24.5815ZM27.1831 20.9891L20.9602 27.212L28.0313 34.2831L34.2542 28.0601L27.1831 20.9891ZM20.9602 34.2831L24.5242 37.8471L31.5953 30.776L28.0313 27.212L20.9602 34.2831ZM24.5242 37.8471C24.5255 37.8484 24.5075 37.8304 24.4813 37.7914C24.4546 37.7518 24.4274 37.7022 24.4046 37.6464C24.3549 37.5242 24.3609 37.4588 24.3609 37.5079H34.3609C34.3609 34.9628 33.4313 32.6121 31.5953 30.776L24.5242 37.8471ZM24.3609 37.5079C24.3609 37.5571 24.3549 37.4917 24.4046 37.3694C24.4274 37.3136 24.4546 37.264 24.4813 37.2244C24.5075 37.1854 24.5255 37.1674 24.5242 37.1687L31.5953 44.2398C33.4313 42.4037 34.3609 40.0531 34.3609 37.5079H24.3609ZM24.5242 37.1687L21.2996 40.3933L28.3707 47.4644L31.5953 44.2398L24.5242 37.1687Z" fill="#F98C0B" mask="url(#path-1-inside-1_174_800)"/>
</svg>
