<svg width="310" height="223" viewBox="0 0 310 223" fill="none" xmlns="http://www.w3.org/2000/svg">
<g clip-path="url(#clip0_298_904)">
<path d="M283.136 218H6.16975V220.755H283.136V218Z" fill="black"/>
<path d="M103.373 96.3279C47.2934 118.296 37.4026 105.503 7.10602 173.778C-23.1906 242.052 60.041 218.455 60.041 218.455H166.703C166.703 218.455 159.429 74.3603 103.373 96.3279Z" fill="#F98C0B"/>
<path d="M158.325 156.122C154.076 138.011 148.746 123.566 142.504 113.217C134.63 100.161 125.22 93.549 114.585 93.549C110.96 93.549 107.118 94.3396 103.205 95.8728C91.2739 100.544 81.5992 103.587 73.0527 106.294C57.3043 111.252 46.8853 114.534 37.1386 123.422C27.3438 132.358 18.5333 146.899 6.6739 173.586C-0.936256 190.714 -2.04057 203.627 3.38497 211.939C8.11431 219.222 17.693 222.887 31.785 222.887C45.877 222.887 59.0568 219.246 60.1371 218.935H167.255V218.408C167.207 218.096 165.575 186.905 158.349 156.122H158.325ZM59.993 217.952H59.921C59.777 218 45.901 221.905 31.785 221.905C17.669 221.905 8.7625 218.36 4.2012 211.388C-1.03228 203.363 0.0960378 190.786 7.56216 173.969C31.3049 120.452 42.7561 116.834 73.3168 107.228C81.8873 104.521 91.586 101.478 103.541 96.7831C107.334 95.2978 111.056 94.5312 114.561 94.5312C124.835 94.5312 133.958 100.999 141.64 113.72C147.834 123.997 153.139 138.323 157.365 156.338C164.063 184.869 165.959 213.76 166.199 217.952H59.993Z" fill="black"/>
<path d="M75.8375 68.8025C71.7084 83.0563 69.1876 107.923 69.1876 107.923C88.9453 114.391 95.259 99.6338 95.259 99.6338C93.2665 96.1602 95.4511 92.2075 95.4511 92.2075L75.8375 68.8025Z" fill="white"/>
<path d="M75.3574 68.6588C71.2522 82.7928 68.7315 107.611 68.7075 107.851L68.6595 108.258L69.0436 108.378C72.4286 109.48 75.6215 110.031 78.5983 110.031C91.2019 110.031 95.6912 99.9213 95.7392 99.8015L95.8352 99.5859L95.7152 99.3703C93.8906 96.1842 95.8832 92.471 95.9072 92.4231L96.0753 92.1356L75.6455 67.7724L75.3814 68.6588H75.3574ZM94.8749 92.2554C94.3948 93.2616 93.0984 96.5435 94.7069 99.6338C94.0107 101.047 89.5214 109.049 78.5743 109.049C75.8375 109.049 72.8367 108.545 69.7158 107.563C70.0519 104.401 72.4046 83.0084 76.0536 69.8326L94.8749 92.2794V92.2554Z" fill="black"/>
<path d="M108.247 38.4024C84.2399 33.2998 81.7192 52.1531 81.7192 52.1531C76.8218 51.2188 73.6529 54.8601 73.1488 60.0586C72.7407 64.3707 76.2697 66.4548 76.2697 66.4548C73.0287 84.7332 87.2648 93.8365 95.4511 92.2075C103.637 90.5785 109.639 87.5361 112.232 82.8886C114.825 78.2412 118.882 65.9997 121.643 60.6096C124.619 54.8362 127.812 42.5468 108.199 38.3784L108.247 38.4024Z" fill="white"/>
<path d="M108.343 37.8993C105.582 37.3004 102.941 37.0129 100.541 37.0129C91.61 37.0129 86.8327 41.1094 84.384 44.5351C82.2714 47.4817 81.5271 50.4283 81.2871 51.5542C80.927 51.5063 80.5429 51.4823 80.2068 51.4823C76.1016 51.4823 73.1488 54.8122 72.6446 59.9867C72.2605 63.8676 74.8292 66.0476 75.7175 66.6704C74.109 76.3007 77.3019 82.5532 80.3028 86.1227C83.8078 90.291 88.8492 92.8783 93.4585 92.8783C94.1787 92.8783 94.8749 92.8064 95.5231 92.6866C104.31 90.9378 110.071 87.7038 112.64 83.1282C114.008 80.6607 115.809 76.0851 117.537 71.6533C119.122 67.6047 120.754 63.3885 122.075 60.8491C123.563 57.9505 125.7 52.3208 123.227 47.1224C121.114 42.6665 116.097 39.5762 108.295 37.9233L108.343 37.8993ZM121.234 60.37C119.89 62.9573 118.258 67.1735 116.649 71.27C114.921 75.6779 113.144 80.2295 111.8 82.6251C109.375 86.9611 103.829 90.0275 95.3311 91.7044C94.7309 91.8242 94.1067 91.8721 93.4585 91.8721C89.1133 91.8721 84.3599 89.4286 81.047 85.4759C78.1422 82.0262 75.0453 75.9414 76.7258 66.5027L76.7738 66.1674L76.4857 65.9997C76.4857 65.9997 73.2208 64.0113 73.6049 60.0586C74.061 55.3632 76.5817 52.4406 80.1828 52.4406C80.6389 52.4406 81.095 52.4885 81.5752 52.5843L82.0793 52.6801L82.1513 52.1771C82.1513 52.1771 82.6555 48.5597 85.1762 45.0621C88.5371 40.3668 93.6746 37.9951 100.493 37.9951C102.821 37.9951 105.39 38.2826 108.079 38.8576C115.545 40.4386 120.346 43.3613 122.315 47.5296C124.595 52.3448 122.579 57.639 121.186 60.394L121.234 60.37Z" fill="black"/>
<path d="M104.766 58.7889C104.574 58.717 100.036 57.088 95.091 59.4836C94.8509 59.6034 94.7549 59.8909 94.8749 60.1544C94.971 60.3221 95.139 60.4419 95.3071 60.4419C95.3791 60.4419 95.4511 60.4419 95.5231 60.394C100.06 58.19 104.358 59.7232 104.406 59.7471C104.67 59.843 104.934 59.7232 105.03 59.4597C105.126 59.1962 105.006 58.9326 104.742 58.8368L104.766 58.7889Z" fill="black"/>
<path d="M111.8 62.5021C110.767 62.3104 110.647 61.5439 110.623 61.448C110.623 61.1845 110.359 60.9689 110.095 60.9929C109.831 60.9929 109.615 61.2564 109.639 61.5199C109.687 62.0709 110.143 63.1729 111.608 63.4603C113.336 63.7957 114.609 64.706 115.425 66.1913C115.521 66.359 115.689 66.4548 115.857 66.4548C115.929 66.4548 116.025 66.4548 116.097 66.4069C116.337 66.2871 116.433 65.9757 116.289 65.7361C115.353 63.9874 113.84 62.8854 111.8 62.5021Z" fill="black"/>
<path d="M102.557 81.0201C96.6514 78.5047 95.3071 76.684 95.043 75.8216C94.8989 75.4144 95.019 75.1748 95.043 75.1508C95.187 74.9352 95.139 74.6478 94.9229 74.4801C94.7069 74.3124 94.3948 74.3603 94.2267 74.5759C94.1787 74.6238 93.8426 75.1508 94.0587 75.9893C94.5628 77.8339 97.2996 79.8223 102.173 81.9064C102.245 81.9304 102.293 81.9543 102.365 81.9543C102.557 81.9543 102.749 81.8346 102.821 81.6669C102.917 81.4273 102.821 81.1159 102.557 81.0201Z" fill="black"/>
<path d="M106.47 71.3898C105.702 70.8627 104.574 70.9346 103.109 71.5814C102.869 71.7012 102.749 71.9887 102.869 72.2282C102.989 72.4678 103.277 72.5876 103.517 72.4678C104.622 71.9647 105.438 71.8689 105.894 72.1803C106.398 72.5157 106.374 73.3302 106.374 73.3302C106.374 73.5937 106.566 73.8333 106.854 73.8333C107.118 73.8333 107.334 73.6177 107.358 73.3541C107.358 73.3062 107.406 72.0126 106.446 71.3418L106.47 71.3898Z" fill="black"/>
<path d="M81.4071 57.9984C80.0147 56.9203 77.8061 57.6151 77.7101 57.639L77.9981 58.5733C78.5023 58.4056 79.9907 58.1421 80.8069 58.765C81.2871 59.1243 81.5031 59.7951 81.4551 60.7054L82.4394 60.7533C82.5114 59.4836 82.1513 58.5494 81.4071 57.9744V57.9984Z" fill="black"/>
<path d="M118.522 26.1609C98.1639 12.3143 88.8012 22.9987 88.8012 22.9987C63.8101 18.4231 56.7761 63.2687 55.4798 70.0003C54.1834 76.7319 51.9267 77.2111 51.9267 77.2111C57.7124 90.9378 74.9493 95.2739 74.9493 95.2739C69.8838 89.7879 83.4237 72.5157 76.2697 66.4309C72.8607 63.5322 69.6918 52.8957 81.1911 52.7999C92.6663 52.7041 95.6912 54.0456 95.6912 54.0456C98.452 51.6021 103.613 49.2544 103.613 49.2544C101.621 51.8417 98.8361 54.405 98.8361 54.405L103.95 55.2674C111.032 51.2428 114.825 45.2059 114.825 45.2059C116.145 52.4406 112.472 57.3276 112.472 57.3276C120.202 56.585 121.691 60.5617 121.691 60.5617C121.691 60.5617 112.928 81.1159 109.999 85.8113C107.07 90.5066 95.4751 92.1596 95.4751 92.1596L94.8509 95.8488C110.767 101.191 122.843 97.933 122.843 97.933C110.935 94.9624 118.402 73.5937 122.627 67.2933C126.876 60.9689 138.903 39.9595 118.546 26.113L118.522 26.1609Z" fill="black"/>
<path d="M98.3079 62.0709C97.5397 62.0709 96.8915 62.6219 96.8915 63.2926C96.8915 63.9634 97.5157 64.5144 98.3079 64.5144C99.1001 64.5144 99.7243 63.9634 99.7243 63.2926C99.7243 62.6219 99.1001 62.0709 98.3079 62.0709Z" fill="black"/>
<path d="M110.551 66.2632C109.783 66.2632 109.135 66.8142 109.135 67.4849C109.135 68.1557 109.759 68.7067 110.551 68.7067C111.344 68.7067 111.968 68.1557 111.968 67.4849C111.968 66.8142 111.344 66.2632 110.551 66.2632Z" fill="black"/>
<path d="M57.2563 189.828C51.5667 185.133 42.8282 179.527 33.5615 179.527V180.509C50.7744 180.509 66.5469 200.489 66.715 200.704L67.4832 200.105C67.4832 200.105 63.402 194.907 57.2563 189.828Z" fill="black"/>
<path d="M44.9408 181.851L45.3489 182.737C56.0559 177.898 58.1445 163.117 58.2405 162.47L57.2563 162.351C57.2563 162.494 55.1437 177.227 44.9408 181.851Z" fill="black"/>
<path d="M99.1722 211.796C95.163 208.993 88.6332 206.501 88.6332 206.501C91.2739 204.944 91.7541 203.699 92.1622 202.165C92.6423 200.393 91.562 199.243 90.5057 199.578C88.6572 200.153 85.5603 200.752 81.3831 200.345C74.3011 199.65 66.5469 203.866 66.5469 203.866L63.5701 218.384H104.886C104.886 218.384 103.181 214.575 99.1722 211.772V211.796Z" fill="white"/>
<path d="M99.4602 211.412C96.2913 209.208 91.658 207.22 89.7135 206.43C91.7541 205.04 92.2342 203.842 92.6423 202.333C92.9064 201.351 92.7864 200.441 92.3062 199.794C91.8261 199.195 91.0819 198.931 90.3617 199.147C89.0653 199.554 86.9047 200.033 84.0479 200.033C83.1836 200.033 82.3194 199.985 81.4311 199.914C80.903 199.866 80.3508 199.842 79.7747 199.842C73.1248 199.842 66.5709 203.363 66.3068 203.507C66.1868 203.579 66.0908 203.699 66.0668 203.842L63.0899 218.36C63.0659 218.503 63.0899 218.647 63.1859 218.767C63.282 218.887 63.426 218.959 63.5701 218.959H104.886C105.054 218.959 105.198 218.863 105.294 218.743C105.39 218.599 105.39 218.432 105.318 218.264C105.246 218.096 103.517 214.287 99.4362 211.436L99.4602 211.412ZM64.1702 217.928L66.979 204.25C68.1313 203.651 74.013 200.8 79.7747 200.8C80.3028 200.8 80.831 200.8 81.3351 200.872C82.2474 200.968 83.1596 201.016 84.0479 201.016C87.0247 201.016 89.2813 200.512 90.6497 200.081C90.9618 199.985 91.2739 200.081 91.514 200.393C91.8021 200.776 91.8741 201.399 91.706 202.07C91.2979 203.579 90.8418 204.681 88.3931 206.094C88.2251 206.19 88.129 206.382 88.153 206.549C88.153 206.741 88.2971 206.909 88.4651 206.957C88.5371 206.981 94.995 209.448 98.9081 212.179C101.765 214.167 103.421 216.707 104.094 217.904H64.1942L64.1702 217.928Z" fill="black"/>
<path d="M67.0991 200.417C58.4326 206.022 59.993 218.36 59.993 218.36H68.5155C74.2531 215.437 69.0196 211.269 69.0196 211.269C74.8773 209.304 70.0519 202.597 70.0519 202.597C74.3731 202.046 73.5569 198.979 73.5569 198.979L67.0991 200.441V200.417Z" fill="white"/>
<path d="M73.893 198.38L66.883 199.961L66.811 200.009C57.9765 205.711 59.4649 218.312 59.4889 218.432L59.5369 218.863H68.6115L68.7075 218.815C70.508 217.881 71.5163 216.731 71.6363 215.365C71.8044 213.712 70.6281 212.227 69.8838 211.46C71.0602 210.909 71.8284 210.095 72.1645 209.017C72.8847 206.813 71.5403 204.154 70.8201 202.956C72.0925 202.668 73.0047 202.118 73.5329 201.327C74.3251 200.153 73.989 198.907 73.965 198.859L73.845 198.404L73.893 198.38ZM72.7647 200.776C72.2845 201.471 71.3483 201.926 70.0039 202.094L69.1876 202.189L69.6678 202.86C69.6678 202.86 72.0925 206.262 71.3003 208.681C70.9882 209.64 70.1719 210.358 68.8996 210.79L68.0353 211.077L68.7315 211.652C68.7315 211.652 70.8921 213.401 70.7241 215.245C70.6281 216.228 69.8598 217.114 68.4194 217.857H60.4732C60.3051 215.653 59.969 205.687 67.3151 200.872L73.1488 199.554C73.1488 199.89 73.0768 200.345 72.7887 200.752L72.7647 200.776Z" fill="black"/>
<path d="M83.0396 212.371L83.2556 213.329C86.4966 212.562 89.1133 214.048 89.1373 214.072C89.1373 214.072 89.1853 214.072 89.2093 214.095L101.213 218.911L101.573 218L89.5934 213.209C89.2333 213.017 86.4966 211.58 83.0156 212.395L83.0396 212.371Z" fill="black"/>
<path d="M71.6844 108.617C70.244 108.258 69.2357 106.916 69.3317 105.431L69.4277 103.826C69.4277 103.826 56.224 107.132 59.5129 111.684C62.8018 116.235 66.4269 111.468 66.4269 111.468C66.4269 111.468 68.3954 121.05 76.9659 118.99C85.5363 116.93 85.6323 108.45 85.6323 108.45C81.3111 110.462 75.1413 109.432 71.7324 108.593L71.6844 108.617Z" fill="white"/>
<path d="M85.8724 108.066C85.7283 107.971 85.5603 107.971 85.3922 108.042C83.8078 108.785 81.7912 109.168 79.3905 109.168C76.5097 109.168 73.6769 108.617 71.8044 108.162C70.58 107.875 69.7398 106.749 69.8118 105.479L69.9079 103.874C69.9079 103.706 69.8598 103.563 69.7158 103.467C69.5958 103.371 69.4277 103.323 69.2837 103.371C68.8996 103.467 59.945 105.767 58.6246 109.336C58.2886 110.246 58.4566 111.133 59.0808 112.019C60.1131 113.456 61.3134 114.199 62.6338 114.199C64.1462 114.199 65.4186 113.217 66.1388 112.522C66.811 114.654 69.0436 119.829 74.5892 119.829C75.3574 119.829 76.1736 119.733 77.0139 119.517C85.8484 117.385 86.0644 108.593 86.0644 108.498C86.0644 108.33 85.9684 108.162 85.8484 108.066H85.8724ZM76.8218 118.559C76.0536 118.751 75.3094 118.847 74.6132 118.847C68.4914 118.847 66.955 111.732 66.883 111.42C66.835 111.229 66.6909 111.085 66.4989 111.037C66.4509 111.037 66.4269 111.037 66.3788 111.037C66.2348 111.037 66.0908 111.109 65.9947 111.229C65.9947 111.229 64.4583 113.217 62.6338 113.217C61.6495 113.217 60.7132 112.618 59.873 111.444C59.4409 110.845 59.3449 110.27 59.5609 109.695C60.4252 107.324 66.0668 105.311 68.8756 104.521L68.8275 105.431C68.7315 107.156 69.8838 108.713 71.5643 109.12C73.4849 109.6 76.4137 110.151 79.3905 110.151C81.5512 110.151 83.4477 109.863 85.0321 109.264C84.7681 111.348 83.4237 116.978 76.8218 118.559Z" fill="black"/>
<path d="M95.115 99.2026C95.115 99.2026 94.4668 104.114 85.5843 108.474C85.5843 108.474 88.177 119.374 97.3956 114.439C106.614 109.504 97.5877 104.808 97.5877 104.808C97.5877 104.808 104.742 103.203 102.941 98.6037C101.141 94.0042 95.115 99.2026 95.115 99.2026Z" fill="white"/>
<path d="M100.397 96.2081C97.8518 96.2081 94.923 98.7235 94.8029 98.8433C94.7069 98.9152 94.6589 99.035 94.6349 99.1547C94.6349 99.2026 93.8667 103.874 85.3682 108.042C85.1522 108.138 85.0562 108.378 85.1042 108.593C85.1762 108.905 86.9767 116.211 92.9304 116.211C94.3708 116.211 95.9552 115.756 97.6117 114.87C100.541 113.313 102.029 111.564 102.029 109.671C102.029 107.515 100.036 105.814 98.7881 104.976C100.132 104.521 102.365 103.515 103.301 101.766C103.853 100.736 103.877 99.6099 103.421 98.4121C102.701 96.5675 101.381 96.1842 100.397 96.1842V96.2081ZM102.437 101.311C101.285 103.467 97.5397 104.329 97.4917 104.329C97.2996 104.377 97.1316 104.545 97.1076 104.736C97.0836 104.952 97.1796 105.144 97.3716 105.24C97.3957 105.24 101.045 107.18 101.045 109.671C101.045 111.157 99.7483 112.618 97.1556 113.983C95.6432 114.798 94.2268 115.205 92.9304 115.205C88.4651 115.205 86.5926 110.151 86.1605 108.713C93.9627 104.784 95.3311 100.448 95.5471 99.4422C96.1233 98.987 98.476 97.1664 100.373 97.1664C101.357 97.1664 102.053 97.6934 102.461 98.7475C102.821 99.6818 102.797 100.52 102.389 101.263L102.437 101.311Z" fill="black"/>
<path d="M38.1468 216.347C38.1468 217.952 39.4432 219.27 41.0757 219.27H132.71V215.389H38.1468V216.347Z" fill="black"/>
<path d="M132.71 214.862H38.1468C37.8588 214.862 37.6427 215.102 37.6427 215.365V216.323C37.6427 218.216 39.1791 219.749 41.0757 219.749H132.71C132.998 219.749 133.214 219.51 133.214 219.246V215.365C133.214 215.078 132.974 214.862 132.71 214.862ZM132.206 218.743H41.0517C39.7313 218.743 38.651 217.665 38.651 216.347V215.892H132.182V218.743H132.206Z" fill="black"/>
<path d="M128.989 218.671C128.004 218.671 127.092 218.216 126.516 217.425C125.94 216.635 125.772 215.653 126.06 214.718L145.265 151.69C145.673 150.397 146.85 149.51 148.218 149.51H242.469C243.453 149.51 244.365 149.965 244.942 150.756C245.518 151.546 245.71 152.529 245.422 153.463L226.192 216.491C225.784 217.785 224.608 218.671 223.239 218.671H128.989Z" fill="#37A995"/>
<path d="M242.445 150.109C243.237 150.109 243.957 150.468 244.437 151.115C244.918 151.738 245.038 152.553 244.822 153.295L225.592 216.323C225.28 217.377 224.32 218.072 223.215 218.072H128.965C128.172 218.072 127.452 217.713 126.972 217.066C126.492 216.443 126.372 215.629 126.588 214.886L145.817 151.858C146.129 150.804 147.09 150.109 148.194 150.109H242.445ZM242.445 148.911H148.194C146.586 148.911 145.145 149.965 144.689 151.499L125.46 214.527C124.739 216.874 126.516 219.27 128.965 219.27H223.215C224.824 219.27 226.264 218.216 226.72 216.683L245.95 153.655C246.67 151.307 244.894 148.935 242.445 148.935V148.911Z" fill="black"/>
<path d="M242.445 148.384H148.194C146.346 148.384 144.737 149.582 144.185 151.355L124.955 214.383C124.571 215.653 124.787 217.018 125.604 218.096C126.396 219.174 127.62 219.797 128.965 219.797H223.215C225.064 219.797 226.672 218.599 227.225 216.826L246.454 153.798C246.838 152.529 246.598 151.163 245.806 150.085C245.014 149.007 243.789 148.408 242.445 148.408V148.384ZM245.47 153.487L226.24 216.515C225.832 217.857 224.608 218.743 223.215 218.743H128.965C127.956 218.743 127.02 218.288 126.42 217.473C125.82 216.659 125.652 215.653 125.94 214.67L145.169 151.642C145.577 150.301 146.802 149.414 148.194 149.414H242.445C243.453 149.414 244.389 149.87 244.99 150.684C245.59 151.499 245.758 152.505 245.47 153.487Z" fill="black"/>
<path d="M182.668 199.195C182.932 200.896 183.772 202.237 184.997 203.004C187.877 204.777 192.223 203.004 194.647 199.051L189.414 195.841L182.668 199.195Z" fill="black"/>
<path d="M194.911 198.62L189.678 195.41C189.534 195.314 189.342 195.314 189.174 195.41L182.428 198.764C182.236 198.859 182.116 199.075 182.14 199.291C182.428 201.135 183.34 202.597 184.708 203.459C185.525 203.962 186.461 204.226 187.493 204.226C190.278 204.226 193.255 202.309 195.079 199.363C195.151 199.243 195.175 199.099 195.151 198.979C195.127 198.836 195.031 198.74 194.911 198.668V198.62ZM187.493 203.172C186.653 203.172 185.909 202.956 185.261 202.573C184.228 201.95 183.532 200.848 183.22 199.482L189.366 196.44L193.903 199.243C192.247 201.662 189.774 203.196 187.469 203.196L187.493 203.172Z" fill="black"/>
<path d="M193.735 188.63C190.83 186.905 186.509 188.75 184.132 192.703L189.414 195.841L196.136 192.391C195.848 190.714 195.007 189.373 193.735 188.606V188.63Z" fill="black"/>
<path d="M177.963 1.48622H290.506C300.925 1.48622 309.4 9.94268 309.4 20.3396V109.264C309.4 119.661 300.925 128.118 290.506 128.118H177.963C167.544 128.118 159.069 119.661 159.069 109.264V20.3396C159.069 9.94268 167.544 1.48622 177.963 1.48622Z" fill="white"/>
<path d="M290.506 128.716H177.963C167.207 128.716 158.469 119.996 158.469 109.264V20.3396C158.469 9.6073 167.207 0.887329 177.963 0.887329H290.506C301.262 0.887329 310 9.6073 310 20.3396V109.264C310 119.996 301.262 128.716 290.506 128.716ZM177.963 2.08513C167.88 2.08513 159.669 10.2781 159.669 20.3396V109.264C159.669 119.326 167.88 127.519 177.963 127.519H290.506C300.589 127.519 308.8 119.326 308.8 109.264V20.3396C308.8 10.2781 300.589 2.08513 290.506 2.08513H177.963Z" fill="black"/>
<path d="M277.327 118.128C302.174 148.6 264.987 156.913 264.987 156.913C264.987 156.913 308.007 156.601 302.75 118.128H277.303H277.327Z" fill="white"/>
<path d="M302.222 118.2C303.662 128.716 301.574 137.317 295.98 143.737C288.562 152.289 276.582 155.044 269.909 155.954C275.094 153.966 282.944 149.822 285.561 142.299C287.962 135.352 285.345 127.111 277.759 117.792L276.919 118.487C284.265 127.495 286.809 135.376 284.553 141.94C280.808 152.72 265.059 156.362 264.891 156.386L259.874 157.511L265.011 157.464C265.227 157.464 285.801 157.176 296.82 144.455C302.606 137.772 304.79 128.884 303.302 118.056L302.222 118.2Z" fill="#040602"/>
<path d="M258.241 95.0343H213.853V97.6934H258.241V95.0343Z" fill="#040602"/>
<path d="M291.539 95.0343H262.587V97.6934H291.539V95.0343Z" fill="#040602"/>
<path d="M242.253 104.545H213.853V107.204H242.253V104.545Z" fill="#040602"/>
<path d="M267.508 104.545H247.366V107.204H267.508V104.545Z" fill="#040602"/>
<path d="M184.036 87.9433H204.202C205.93 87.9433 207.323 89.3328 207.323 91.0576V111.181C207.323 112.905 205.93 114.295 204.202 114.295H184.036C182.332 114.295 180.939 112.905 180.939 111.205V91.0816C180.939 89.3567 182.332 87.9673 184.06 87.9673L184.036 87.9433Z" fill="white"/>
<path d="M204.202 114.678H184.036C182.116 114.678 180.531 113.121 180.531 111.181V91.0576C180.531 89.1411 182.092 87.56 184.036 87.56H204.202C206.123 87.56 207.707 89.1172 207.707 91.0576V111.181C207.707 113.097 206.147 114.678 204.202 114.678ZM184.036 88.3506C182.548 88.3506 181.323 89.5723 181.323 91.0576V111.181C181.323 112.666 182.548 113.888 184.036 113.888H204.202C205.69 113.888 206.915 112.666 206.915 111.181V91.0576C206.915 89.5723 205.69 88.3506 204.202 88.3506H184.036Z" fill="black"/>
<path d="M258.241 57.663H213.853V60.3221H258.241V57.663Z" fill="#040602"/>
<path d="M291.539 57.663H262.587V60.3221H291.539V57.663Z" fill="#040602"/>
<path d="M242.253 67.1496H213.853V69.7847H242.253V67.1496Z" fill="#040602"/>
<path d="M267.508 67.1496H247.366V69.7847H267.508V67.1496Z" fill="#040602"/>
<path d="M184.036 50.5481H204.202C205.906 50.5481 207.299 51.9375 207.299 53.6384V73.7614C207.299 75.4862 205.906 76.8757 204.178 76.8757H184.012C182.308 76.8757 180.915 75.4862 180.915 73.7854V53.6623C180.915 51.9375 182.308 50.5481 184.036 50.5481Z" fill="#11AAA0"/>
<path d="M204.202 77.2829H184.036C182.116 77.2829 180.531 75.7258 180.531 73.7854V53.6623C180.531 51.7459 182.092 50.1648 184.036 50.1648H204.202C206.123 50.1648 207.707 51.7219 207.707 53.6623V73.7854C207.707 75.7018 206.147 77.2829 204.202 77.2829ZM184.036 50.9553C182.548 50.9553 181.323 52.1771 181.323 53.6623V73.7854C181.323 75.2706 182.548 76.4924 184.036 76.4924H204.202C205.69 76.4924 206.915 75.2706 206.915 73.7854V53.6623C206.915 52.1531 205.69 50.9553 204.202 50.9553H184.036Z" fill="black"/>
<path d="M192.487 66.0955L188.261 61.8792L185.477 64.6581L191.094 70.2878C191.454 70.6471 191.958 70.8627 192.487 70.8627C193.015 70.8627 193.519 70.6471 193.879 70.2878L203.674 60.5137L200.889 57.7349L192.487 66.1194V66.0955Z" fill="white"/>
<path d="M192.463 71.246C191.838 71.246 191.238 71.0065 190.782 70.5513L184.876 64.6581L188.213 61.3283L192.439 65.5445L200.841 57.1599L204.178 60.4898L194.095 70.5513C193.639 71.0065 193.063 71.246 192.415 71.246H192.463ZM185.981 64.6581L191.334 70.0003C191.934 70.5992 192.991 70.5992 193.567 70.0003L203.098 60.4898L200.865 58.2619L192.463 66.6465L188.237 62.4302L186.005 64.6581H185.981Z" fill="black"/>
<path d="M258.241 20.2677H213.853V22.9268H258.241V20.2677Z" fill="#040602"/>
<path d="M291.539 20.2677H262.587V22.9268H291.539V20.2677Z" fill="#040602"/>
<path d="M242.253 29.7543H213.853V32.4134H242.253V29.7543Z" fill="#040602"/>
<path d="M267.508 29.7543H247.366V32.4134H267.508V29.7543Z" fill="#040602"/>
<path d="M184.036 13.1767H204.202C205.906 13.1767 207.299 14.5662 207.299 16.2671V36.3901C207.299 38.091 205.906 39.4804 204.202 39.4804H184.036C182.332 39.4804 180.939 38.091 180.939 36.3901V16.2671C180.939 14.5422 182.332 13.1528 184.06 13.1528L184.036 13.1767Z" fill="#11AAA0"/>
<path d="M204.202 39.8876H184.036C182.116 39.8876 180.531 38.3305 180.531 36.3901V16.2671C180.531 14.3506 182.092 12.7695 184.036 12.7695H204.202C206.123 12.7695 207.707 14.3266 207.707 16.2671V36.3901C207.707 38.3066 206.147 39.8876 204.202 39.8876ZM184.036 13.56C182.548 13.56 181.323 14.7818 181.323 16.2671V36.3901C181.323 37.8753 182.548 39.0971 184.036 39.0971H204.202C205.69 39.0971 206.915 37.8753 206.915 36.3901V16.2671C206.915 14.7818 205.69 13.56 204.202 13.56H184.036Z" fill="black"/>
<path d="M192.487 28.7242L188.261 24.5079L185.477 27.2868L191.094 32.8925C191.454 33.2518 191.958 33.4674 192.487 33.4674C193.015 33.4674 193.519 33.2518 193.879 32.8925L203.674 23.1185L200.889 20.3396L192.487 28.7242Z" fill="white"/>
<path d="M192.463 33.8507C191.838 33.8507 191.238 33.6112 190.782 33.156L184.876 27.2629L188.213 23.933L192.439 28.1492L200.841 19.7646L204.178 23.0945L194.095 33.156C193.639 33.6112 193.063 33.8507 192.415 33.8507H192.463ZM185.981 27.2629L191.334 32.605C191.934 33.2039 192.991 33.2039 193.567 32.605L203.098 23.0945L200.865 20.8666L192.463 29.2512L188.237 25.0349L186.005 27.2629H185.981Z" fill="black"/>
</g>
<defs>
<clipPath id="clip0_298_904">
<rect width="310" height="222" fill="white" transform="translate(0 0.887329)"/>
</clipPath>
</defs>
</svg>
