<svg width="310" height="210" viewBox="0 0 310 210" fill="none" xmlns="http://www.w3.org/2000/svg">
<path d="M119.838 0.337357H8.42013C3.95809 0.337357 0.337067 3.95813 0.337067 8.42396V89.4504C0.337067 93.9162 3.95476 97.537 8.4168 97.537H119.841C124.303 97.537 127.921 93.9162 127.921 89.4504V8.43064C127.921 3.96147 124.303 0.340697 119.838 0.340697V0.337357Z" fill="white"/>
<path d="M119.838 0H8.42014C3.77788 0 0 3.7811 0 8.42397V89.4504C0 94.0966 3.77788 97.8743 8.42014 97.8743H119.844C124.483 97.8743 128.261 94.0932 128.261 89.4504V8.43065C128.261 3.78444 124.483 0 119.838 0ZM127.584 89.4504C127.584 93.7225 124.113 97.1996 119.844 97.1996H8.42014C4.15167 97.1996 0.68082 93.7225 0.68082 89.4504V8.42397C0.677483 4.15186 4.14833 0.678059 8.42014 0.678059H119.841C124.113 0.678059 127.587 4.1552 127.587 8.43065V89.4537L127.584 89.4504Z" fill="black"/>
<path d="M119.838 0.337357H8.4168C3.95809 0.337357 0.337067 3.95813 0.337067 8.42396V13.6881H127.921V8.4273C127.921 3.95813 124.303 0.337357 119.838 0.337357Z" fill="black"/>
<path d="M119.838 0H8.4168C3.77455 0 0 3.7811 0 8.42397V14.0288H128.261V8.43065C128.261 3.7811 124.483 0 119.838 0ZM127.584 13.3508H0.677483V8.42397C0.677483 4.15186 4.14833 0.678059 8.4168 0.678059H119.838C124.109 0.678059 127.584 4.1552 127.584 8.43065V13.3541V13.3508Z" fill="black"/>
<path d="M9.66998 7.13183L9.19084 7.61121L12.7725 11.1972L13.2516 10.7178L9.66998 7.13183Z" fill="white"/>
<path d="M12.7702 7.13082L9.19038 10.7186L9.66977 11.1978L13.2495 7.60994L12.7702 7.13082Z" fill="white"/>
<path d="M18.3922 6.79729C17.0772 6.79729 16.0059 7.86949 16.0059 9.18552C16.0059 10.5016 17.0772 11.5738 18.3922 11.5738C19.7071 11.5738 20.7784 10.5016 20.7784 9.18552C20.7784 7.86949 19.7071 6.79729 18.3922 6.79729ZM18.3922 10.8957C17.451 10.8957 16.6834 10.1275 16.6834 9.18552C16.6834 8.24359 17.451 7.47535 18.3922 7.47535C19.3333 7.47535 20.1042 8.24359 20.1042 9.18552C20.1042 10.1275 19.3366 10.8957 18.3922 10.8957Z" fill="white"/>
<path d="M25.9713 10.8957H22.3302V11.5738H25.9713V10.8957Z" fill="white"/>
<path d="M113.567 2.6922H37.8823C35.466 2.6922 33.507 4.65289 33.507 7.06785C33.507 9.48281 35.466 11.4435 37.8823 11.4435H113.57C115.986 11.4435 117.942 9.48281 117.942 7.06785C117.942 4.65289 115.983 2.6922 113.57 2.6922H113.567Z" fill="white"/>
<path d="M113.567 2.35484H37.8823C35.2858 2.35484 33.1699 4.46919 33.1699 7.0712C33.1699 9.67321 35.2825 11.7875 37.8823 11.7875H113.57C116.17 11.7875 118.282 9.67321 118.282 7.0712C118.282 4.46919 116.17 2.35484 113.57 2.35484H113.567ZM113.567 11.1061H37.8823C35.6596 11.1061 33.8474 9.29576 33.8474 7.06786C33.8474 4.83995 35.6596 3.02956 37.8823 3.02956H113.57C115.796 3.02956 117.605 4.83995 117.605 7.06786C117.605 9.29576 115.793 11.1061 113.57 11.1061H113.567Z" fill="black"/>
<path d="M84.1347 53.3362H57.8463V55.4372H84.1347V53.3362Z" fill="#040602"/>
<path d="M116.991 53.3362H87.4386V55.4372H116.991V53.3362Z" fill="#040602"/>
<path d="M79.469 60.875H57.8463V62.976H79.469V60.875Z" fill="#040602"/>
<path d="M95.9289 60.875H83.3771V62.976H95.9289V60.875Z" fill="#040602"/>
<path d="M114.127 60.875H99.6967V62.976H114.127V60.875Z" fill="#040602"/>
<path d="M95.4416 67.7191H57.8463V69.82H95.4416V67.7191Z" fill="#040602"/>
<path d="M116.991 67.7191H100.344V69.82H116.991V67.7191Z" fill="#040602"/>
<path d="M79.469 75.2545H57.8463V77.3555H79.469V75.2545Z" fill="#040602"/>
<path d="M95.9289 75.2545H83.3771V77.3555H95.9289V75.2545Z" fill="#040602"/>
<path d="M114.127 75.2545H99.6967V77.3555H114.127V75.2545Z" fill="#040602"/>
<path d="M44.2526 65.7283C45.5766 55.6226 38.4645 46.3562 28.3674 45.0311C18.2703 43.7061 9.01179 50.8242 7.68786 60.9299C6.36394 71.0355 13.476 80.302 23.5731 81.627C33.6701 82.9521 42.9287 75.834 44.2526 65.7283Z" fill="#F6E569"/>
<path d="M25.9679 82.4794C15.4152 82.4794 6.82823 73.8851 6.82823 63.3234C6.82823 52.7617 15.4152 44.1674 25.9679 44.1674C36.5207 44.1674 45.1077 52.7617 45.1077 63.3234C45.1077 73.8851 36.5207 82.4794 25.9679 82.4794ZM25.9679 45.5736C16.1895 45.5736 8.22992 53.5366 8.22992 63.3267C8.22992 73.1168 16.1862 81.0799 25.9679 81.0799C35.7497 81.0799 43.706 73.1168 43.706 63.3267C43.706 53.5366 35.7497 45.5736 25.9679 45.5736Z" fill="black"/>
<path d="M23.9889 60.1936C23.9889 61.4295 22.9877 62.4349 21.7495 62.4349C20.5114 62.4349 19.5102 61.4328 19.5102 60.1936C19.5102 58.9544 20.5114 57.9523 21.7495 57.9523C22.9877 57.9523 23.9889 58.9544 23.9889 60.1936Z" fill="black"/>
<path d="M32.4257 60.1936C32.4257 61.4295 31.4245 62.4349 30.1864 62.4349C28.9482 62.4349 27.947 61.4328 27.947 60.1936C27.947 58.9544 28.9482 57.9523 30.1864 57.9523C31.4245 57.9523 32.4257 58.9544 32.4257 60.1936Z" fill="black"/>
<path d="M30.1864 69.3391H21.7495C21.3624 69.3391 21.0487 69.0251 21.0487 68.6376C21.0487 68.2502 21.3624 67.9362 21.7495 67.9362H30.1864C30.5735 67.9362 30.8872 68.2502 30.8872 68.6376C30.8872 69.0251 30.5735 69.3391 30.1864 69.3391Z" fill="black"/>
<path d="M48.7787 29.7678L46.9065 26.0969L45.1577 29.7678L41.1195 30.3557L44.0998 33.2115L43.4723 37.2465L47.06 35.3426L50.7111 37.2465L49.9535 33.2115L52.8336 30.3557L48.7787 29.7678Z" fill="#F36A6B"/>
<path d="M52.9838 29.8179L49.1692 29.2634L47.4037 25.7997C47.3136 25.626 47.1201 25.5324 46.9132 25.5558C46.7029 25.5825 46.5093 25.7228 46.4159 25.9199L44.8173 29.2768L41.1162 29.8179C40.8992 29.848 40.709 30.0016 40.6223 30.2087C40.5321 30.4125 40.5689 30.6363 40.7157 30.7732L43.5191 33.4654L42.935 37.2398C42.9017 37.4335 42.9784 37.6173 43.1353 37.7175C43.2888 37.8177 43.499 37.8177 43.6759 37.7175L46.9966 35.9572L50.404 37.7375C50.4775 37.7742 50.5542 37.7943 50.6343 37.7943C50.7645 37.7943 50.898 37.7475 51.0114 37.6573C51.195 37.5137 51.2918 37.2899 51.2517 37.0795L50.5475 33.3385L53.1941 30.7131C53.3442 30.5628 53.4143 30.3557 53.3709 30.1686C53.3275 29.9816 53.1774 29.848 52.9838 29.8212V29.8179Z" fill="black"/>
<path d="M65.0216 29.7678L63.1527 26.0969L61.404 29.7678L57.3658 30.3557L60.3427 33.2115L59.7219 37.2465L63.3096 35.3426L66.954 37.2465L66.1997 33.2115L69.0832 30.3557L65.0216 29.7678Z" fill="#F36A6B"/>
<path d="M69.2334 29.8179L65.4188 29.2634L63.6533 25.7997C63.5599 25.626 63.3663 25.5324 63.1594 25.5558C62.9525 25.5825 62.7589 25.7228 62.6621 25.9199L61.0635 29.2768L57.3658 29.8179C57.1488 29.848 56.9519 30.0016 56.8685 30.2087C56.7817 30.4125 56.8184 30.6363 56.9619 30.7699L59.7653 33.4621L59.1846 37.2365C59.1512 37.4302 59.228 37.6139 59.3815 37.7141C59.5384 37.8143 59.7486 37.8143 59.9288 37.7141L63.2462 35.9538L66.6536 37.7342C66.727 37.7709 66.8038 37.7909 66.8839 37.7909C67.0107 37.7909 67.1442 37.7442 67.261 37.654C67.4412 37.5104 67.5413 37.2866 67.5013 37.0761L66.7938 33.3351L69.4436 30.7097C69.5938 30.5594 69.6639 30.3523 69.6205 30.1653C69.5771 29.9782 69.427 29.8446 69.2367 29.8179H69.2334Z" fill="black"/>
<path d="M113.764 29.7678L111.891 26.0969L110.143 29.7678L106.104 30.3557L109.081 33.2115L108.457 37.2465L112.048 35.3426L115.696 37.2465L114.938 33.2115L117.815 30.3557L113.764 29.7678Z" fill="white"/>
<path d="M117.969 29.8179L114.154 29.2634L112.389 25.7997C112.299 25.626 112.105 25.5324 111.898 25.5558C111.688 25.5825 111.491 25.7228 111.397 25.9199L109.802 29.2768L106.101 29.8179C105.881 29.848 105.691 30.0016 105.604 30.2087C105.514 30.4125 105.55 30.6363 105.697 30.7699L108.497 33.4621L107.913 37.2365C107.883 37.4302 107.957 37.6139 108.114 37.7141C108.27 37.8143 108.481 37.8143 108.658 37.7141L111.978 35.9538L115.389 37.7342C115.459 37.7709 115.536 37.7909 115.619 37.7909C115.749 37.7909 115.883 37.7442 115.996 37.654C116.18 37.5104 116.277 37.2866 116.24 37.0761L115.532 33.3351L118.176 30.7097C118.329 30.5594 118.396 30.3523 118.356 30.1653C118.309 29.9782 118.162 29.8446 117.969 29.8179ZM114.578 32.8575C114.434 33.0011 114.368 33.2015 114.398 33.3819L114.928 36.1977L112.352 34.8549C112.202 34.7748 112.008 34.7814 111.841 34.875L109.145 36.3046L109.625 33.2249C109.652 33.0612 109.602 32.9076 109.492 32.804L107.326 30.7231L110.149 30.3123C110.356 30.2822 110.543 30.1419 110.637 29.9482L111.878 27.3428L113.27 30.0751C113.34 30.2054 113.463 30.2956 113.617 30.3156L116.704 30.7632L114.585 32.8675L114.578 32.8575Z" fill="black"/>
<path d="M97.731 29.7678L95.8588 26.0969L94.11 29.7678L90.0718 30.3557L93.0487 33.2115L92.4246 37.2465L96.0123 35.3426L99.6634 37.2465L98.9058 33.2115L101.783 30.3557L97.731 29.7678Z" fill="white"/>
<path d="M101.936 29.8179L98.1182 29.2634L96.3527 25.7997C96.2626 25.626 96.069 25.5324 95.8621 25.5558C95.6519 25.5825 95.455 25.7228 95.3615 25.9199L93.7663 29.2768L90.0651 29.8179C89.8449 29.848 89.6546 30.0016 89.5679 30.2087C89.4778 30.4125 89.5145 30.6363 89.6613 30.7699L92.4613 33.4621L91.8807 37.2365C91.8506 37.4302 91.924 37.6139 92.0809 37.7141C92.2377 37.8143 92.448 37.8143 92.6249 37.7141L95.9455 35.9538L99.3563 37.7342C99.4264 37.7709 99.5032 37.7909 99.5866 37.7909C99.7168 37.7909 99.8502 37.7442 99.9637 37.654C100.147 37.5104 100.244 37.2866 100.207 37.0761L99.4998 33.3351L102.143 30.7097C102.297 30.5594 102.363 30.3523 102.323 30.1653C102.277 29.9782 102.13 29.8446 101.936 29.8179ZM98.542 32.8575C98.3985 33.0011 98.3318 33.2015 98.3618 33.3819L98.8924 36.1977L96.316 34.8549C96.1658 34.7748 95.9722 34.7814 95.8054 34.875L93.1088 36.3046L93.5894 33.2249C93.6161 33.0612 93.566 32.9076 93.4559 32.804L91.2899 30.7231L94.1133 30.3123C94.3203 30.2822 94.5071 30.1419 94.6006 29.9482L95.8421 27.3428L97.2338 30.0751C97.3039 30.2054 97.4273 30.2956 97.5809 30.3156L100.668 30.7632L98.5487 32.8675L98.542 32.8575Z" fill="black"/>
<path d="M81.3179 29.7678L79.4457 26.0969L77.6969 29.7678L73.6587 30.3557L76.6356 33.2115L76.0115 37.2465L79.6025 35.3426L83.2503 37.2465L82.4927 33.2115L85.3728 30.3557L81.3179 29.7678Z" fill="white"/>
<path d="M85.523 29.8179L81.7084 29.2634L79.9429 25.7997C79.8528 25.626 79.6593 25.5324 79.4523 25.5558C79.2421 25.5825 79.0452 25.7228 78.9517 25.9199L77.3565 29.2768L73.6554 29.8179C73.4351 29.848 73.2449 30.0016 73.1581 30.2087C73.068 30.4125 73.1047 30.6363 73.2515 30.7699L76.0516 33.4621L75.4709 37.2365C75.4408 37.4302 75.5143 37.6139 75.6711 37.7141C75.828 37.8143 76.0382 37.8143 76.2151 37.7141L79.5358 35.9538L82.9466 37.7342C83.0166 37.7709 83.0934 37.7909 83.1768 37.7909C83.307 37.7909 83.4405 37.7442 83.554 37.654C83.7375 37.5104 83.8343 37.2866 83.7976 37.0761L83.0901 33.3351L85.7332 30.7097C85.8868 30.5594 85.9535 30.3523 85.9135 30.1653C85.8667 29.9782 85.7199 29.8446 85.5263 29.8179H85.523ZM82.1322 32.8575C81.9887 33.0011 81.922 33.2015 81.952 33.3819L82.4827 36.1977L79.9062 34.8549C79.756 34.7748 79.5625 34.7814 79.3956 34.875L76.699 36.3046L77.1796 33.2249C77.2063 33.0612 77.1562 32.9076 77.0461 32.804L74.8802 30.7231L77.7036 30.3123C77.9105 30.2822 78.0974 30.1419 78.1908 29.9482L79.4323 27.3428L80.824 30.0751C80.8941 30.2054 81.0176 30.2956 81.1711 30.3156L84.2581 30.7632L82.1389 32.8675L82.1322 32.8575Z" fill="black"/>
<path d="M303.025 20.8963H210.764C207.069 20.8963 204.072 23.8924 204.072 27.5933V94.6878C204.072 98.3854 207.069 101.385 210.764 101.385H303.028C306.723 101.385 309.72 98.3887 309.72 94.6878V27.5967C309.72 23.8957 306.723 20.8963 303.025 20.8963Z" fill="white"/>
<path d="M303.025 20.6157H210.764C206.923 20.6157 203.795 23.7454 203.795 27.5933V94.6878C203.795 98.5324 206.923 101.665 210.764 101.665H303.028C306.873 101.665 310 98.5357 310 94.6878V27.5967C310 23.7488 306.87 20.6157 303.025 20.6157ZM309.439 94.6845C309.439 98.2217 306.566 101.101 303.028 101.101H210.764C207.23 101.101 204.353 98.2251 204.353 94.6845V27.5933C204.353 24.0561 207.23 21.1768 210.764 21.1768H303.025C306.563 21.1768 309.439 24.0561 309.439 27.5967V94.6878V94.6845Z" fill="black"/>
<path d="M303.025 20.8963H210.764C207.069 20.8963 204.072 23.8957 204.072 27.5933V31.9523H309.716V27.5967C309.716 23.8957 306.719 20.8963 303.022 20.8963H303.025Z" fill="black"/>
<path d="M303.025 20.6157H210.764C206.919 20.6157 203.795 23.7454 203.795 27.5933V32.2329H310V27.5967C310 23.7488 306.87 20.6157 303.025 20.6157ZM309.439 31.6717H204.356V27.5933C204.356 24.0561 207.233 21.1768 210.767 21.1768H303.028C306.566 21.1768 309.443 24.0561 309.443 27.5967V31.6717H309.439Z" fill="black"/>
<path d="M211.802 26.5254L211.406 26.9222L214.372 29.8911L214.769 29.4943L211.802 26.5254Z" fill="white"/>
<path d="M214.364 26.5157L211.401 29.4871L211.798 29.8836L214.761 26.9121L214.364 26.5157Z" fill="white"/>
<path d="M219.024 26.2439C217.936 26.2439 217.048 27.1324 217.048 28.2213C217.048 29.3102 217.936 30.1987 219.024 30.1987C220.112 30.1987 220.999 29.3135 220.999 28.2213C220.999 27.129 220.112 26.2439 219.024 26.2439ZM219.024 29.6375C218.243 29.6375 217.609 29.0029 217.609 28.2213C217.609 27.4397 218.243 26.805 219.024 26.805C219.805 26.805 220.439 27.4397 220.439 28.2213C220.439 29.0029 219.805 29.6375 219.024 29.6375Z" fill="white"/>
<path d="M225.298 29.6375H222.284V30.1987H225.298V29.6375Z" fill="white"/>
<path d="M297.832 22.8469H235.16C233.161 22.8469 231.539 24.4703 231.539 26.471C231.539 28.4718 233.161 30.0951 235.16 30.0951H297.832C299.831 30.0951 301.453 28.4718 301.453 26.471C301.453 24.4703 299.831 22.8469 297.832 22.8469Z" fill="white"/>
<path d="M297.832 22.5663H235.16C233.011 22.5663 231.262 24.3166 231.262 26.471C231.262 28.6255 233.011 30.3757 235.16 30.3757H297.832C299.985 30.3757 301.733 28.6255 301.733 26.471C301.733 24.3166 299.985 22.5663 297.832 22.5663ZM297.832 29.8146H235.16C233.318 29.8146 231.819 28.3148 231.819 26.471C231.819 24.6272 233.318 23.1275 235.16 23.1275H297.832C299.674 23.1275 301.176 24.6272 301.176 26.471C301.176 28.3148 299.674 29.8146 297.832 29.8146Z" fill="black"/>
<path d="M273.463 65.5146H251.693V67.2548H273.463V65.5146Z" fill="#040602"/>
<path d="M300.669 65.5146H276.196V67.2548H300.669V65.5146Z" fill="#040602"/>
<path d="M269.598 71.7574H251.693V73.4976H269.598V71.7574Z" fill="#040602"/>
<path d="M283.228 71.7574H272.832V73.4976H283.228V71.7574Z" fill="#040602"/>
<path d="M298.296 71.7574H286.345V73.4976H298.296V71.7574Z" fill="#040602"/>
<path d="M282.824 77.4223H251.693V79.1626H282.824V77.4223Z" fill="#040602"/>
<path d="M300.669 77.4223H286.882V79.1626H300.669V77.4223Z" fill="#040602"/>
<path d="M269.598 83.6652H251.693V85.4054H269.598V83.6652Z" fill="#040602"/>
<path d="M283.228 83.6652H272.832V85.4054H283.228V83.6652Z" fill="#040602"/>
<path d="M298.296 83.6652H286.345V85.4054H298.296V83.6652Z" fill="#040602"/>
<path d="M227.347 94.6377C237.531 94.6377 245.786 86.3753 245.786 76.1831C245.786 65.991 237.531 57.7286 227.347 57.7286C217.164 57.7286 208.908 65.991 208.908 76.1831C208.908 86.3753 217.164 94.6377 227.347 94.6377Z" fill="#11AAA0"/>
<path d="M227.347 95.3391C216.794 95.3391 208.207 86.7448 208.207 76.1831C208.207 65.6214 216.794 57.0271 227.347 57.0271C237.9 57.0271 246.487 65.6214 246.487 76.1831C246.487 86.7448 237.9 95.3391 227.347 95.3391ZM227.347 58.4333C217.569 58.4333 209.609 66.3964 209.609 76.1865C209.609 85.9766 217.565 93.9396 227.347 93.9396C237.129 93.9396 245.085 85.9766 245.085 76.1865C245.085 66.3964 237.129 58.4333 227.347 58.4333Z" fill="black"/>
<path d="M225.368 73.0534C225.368 74.2892 224.367 75.2946 223.129 75.2946C221.891 75.2946 220.889 74.2926 220.889 73.0534C220.889 71.8142 221.891 70.8121 223.129 70.8121C224.367 70.8121 225.368 71.8142 225.368 73.0534Z" fill="black"/>
<path d="M233.805 73.0534C233.805 74.2892 232.804 75.2946 231.566 75.2946C230.327 75.2946 229.326 74.2926 229.326 73.0534C229.326 71.8142 230.327 70.8121 231.566 70.8121C232.804 70.8121 233.805 71.8142 233.805 73.0534Z" fill="black"/>
<path d="M227.347 84.0259C225.772 84.0259 224.2 83.3579 222.668 82.0251C222.374 81.7713 222.344 81.327 222.598 81.0364C222.852 80.7458 223.296 80.7124 223.586 80.9696C226.149 83.2042 228.539 83.2042 231.102 80.9696C231.392 80.7158 231.836 80.7458 232.089 81.0364C232.343 81.3304 232.313 81.7713 232.019 82.0251C230.488 83.3579 228.916 84.0259 227.34 84.0259H227.347Z" fill="black"/>
<path d="M230.231 43.9403L228.375 40.3028L226.643 43.9403L222.641 44.5214L225.595 47.3539L224.974 51.3488L228.529 49.4649L232.146 51.3488L231.395 47.3539L234.252 44.5214L230.231 43.9403Z" fill="#F36A6B"/>
<path d="M234.399 43.9904L230.618 43.4426L228.869 40.0122C228.779 39.8385 228.589 39.745 228.382 39.7717C228.175 39.7984 227.981 39.9354 227.888 40.1324L226.303 43.4593L222.635 43.9937C222.421 44.0238 222.231 44.1774 222.144 44.3812C222.054 44.5816 222.091 44.8054 222.234 44.939L225.014 47.6044L224.434 51.3455C224.404 51.5392 224.477 51.7196 224.631 51.8198C224.781 51.92 224.991 51.92 225.168 51.8198L228.458 50.0762L231.836 51.8398C231.909 51.8766 231.986 51.8933 232.066 51.8933C232.193 51.8933 232.326 51.8465 232.44 51.7563C232.623 51.616 232.717 51.3922 232.677 51.1851L231.979 47.4775L234.603 44.8755C234.753 44.7252 234.819 44.5214 234.776 44.3344C234.733 44.1473 234.586 44.0171 234.392 43.9904H234.399Z" fill="black"/>
<path d="M246.33 43.9403L244.474 40.3028L242.742 43.9403L238.744 44.5214L241.691 47.3539L241.077 51.3488L244.631 49.4649L248.246 51.3488L247.495 47.3539L250.355 44.5214L246.33 43.9403Z" fill="#F36A6B"/>
<path d="M250.502 43.9904L246.72 43.4426L244.968 40.0122C244.878 39.8385 244.685 39.745 244.481 39.7717C244.274 39.7984 244.084 39.9354 243.987 40.1324L242.402 43.4593L238.737 43.9937C238.521 44.0238 238.327 44.1774 238.244 44.3812C238.157 44.5816 238.194 44.8054 238.334 44.939L241.11 47.6078L240.533 51.3488C240.5 51.5425 240.576 51.7229 240.73 51.8231C240.887 51.9233 241.094 51.9233 241.274 51.8231L244.561 50.0795L247.939 51.8432C248.012 51.8799 248.089 51.8966 248.169 51.8966C248.296 51.8966 248.426 51.8498 248.543 51.7596C248.723 51.6194 248.82 51.3956 248.78 51.1885L248.079 47.4809L250.705 44.8788C250.855 44.7285 250.922 44.5248 250.882 44.3377C250.839 44.1507 250.692 44.0204 250.502 43.9937V43.9904Z" fill="black"/>
<path d="M262.433 43.9403L260.577 40.3028L258.842 43.9403L254.844 44.5214L257.79 47.3539L257.173 51.3488L260.731 49.4649L264.348 51.3488L263.594 47.3539L266.448 44.5214L262.433 43.9403Z" fill="#F36A6B"/>
<path d="M266.598 43.9904L262.817 43.4426L261.064 40.0122C260.978 39.8385 260.791 39.745 260.58 39.7717C260.37 39.7984 260.18 39.9354 260.083 40.1324L258.501 43.4593L254.834 43.9937C254.62 44.0238 254.43 44.1774 254.343 44.3812C254.253 44.5816 254.29 44.8054 254.433 44.939L257.213 47.6044L256.632 51.3455C256.599 51.5392 256.672 51.7196 256.829 51.8198C256.983 51.92 257.193 51.92 257.37 51.8198L260.661 50.0762L264.038 51.8398C264.108 51.8766 264.188 51.8933 264.268 51.8933C264.395 51.8933 264.529 51.8465 264.642 51.7563C264.826 51.616 264.916 51.3922 264.876 51.1851L264.182 47.4775L266.801 44.8755C266.951 44.7252 267.018 44.5214 266.978 44.3344C266.931 44.1473 266.788 44.0171 266.594 43.9904H266.598Z" fill="black"/>
<path d="M278.529 43.9403L276.677 40.3028L274.941 43.9403L270.943 44.5214L273.89 47.3539L273.272 51.3488L276.827 49.4649L280.448 51.3488L279.693 47.3539L282.55 44.5214L278.529 43.9403Z" fill="#F36A6B"/>
<path d="M282.7 43.9904L278.919 43.4426L277.167 40.0122C277.077 39.8385 276.887 39.745 276.68 39.7717C276.476 39.7984 276.283 39.9354 276.189 40.1324L274.607 43.4593L270.936 43.9937C270.723 44.0238 270.529 44.1774 270.442 44.3812C270.356 44.5816 270.392 44.8054 270.532 44.939L273.309 47.6078L272.732 51.3488C272.702 51.5425 272.775 51.7229 272.929 51.8231C273.086 51.9233 273.292 51.9233 273.473 51.8231L276.76 50.0795L280.137 51.8432C280.211 51.8799 280.288 51.8966 280.368 51.8966C280.494 51.8966 280.625 51.8498 280.741 51.7596C280.925 51.6194 281.018 51.3956 280.978 51.1885L280.281 47.4809L282.904 44.8788C283.054 44.7285 283.121 44.5248 283.078 44.3377C283.038 44.1507 282.887 44.0204 282.7 43.9937V43.9904Z" fill="black"/>
<path d="M294.675 43.9403L292.823 40.3028L291.087 43.9403L287.089 44.5214L290.036 47.3539L289.419 51.3488L292.973 49.4649L296.594 51.3488L295.84 47.3539L298.696 44.5214L294.675 43.9403Z" fill="#F36A6B"/>
<path d="M298.847 43.9904L295.065 43.4426L293.313 40.0122C293.223 39.8385 293.033 39.745 292.826 39.7717C292.622 39.7984 292.429 39.9354 292.335 40.1324L290.753 43.4593L287.086 43.9937C286.872 44.0238 286.679 44.1774 286.592 44.3812C286.505 44.5816 286.542 44.8054 286.682 44.939L289.459 47.6078L288.881 51.3488C288.851 51.5425 288.925 51.7229 289.078 51.8231C289.235 51.9233 289.442 51.9233 289.622 51.8231L292.909 50.0795L296.287 51.8432C296.36 51.8799 296.437 51.8966 296.517 51.8966C296.644 51.8966 296.774 51.8498 296.891 51.7596C297.074 51.6194 297.168 51.3956 297.128 51.1885L296.43 47.4809L299.053 44.8788C299.204 44.7285 299.27 44.5248 299.227 44.3377C299.187 44.1507 299.037 44.0204 298.85 43.9937L298.847 43.9904Z" fill="black"/>
<path d="M55.1765 42.1933C54.0418 40.884 51.996 36.8691 50.7478 38.5993C48.6653 41.4819 51.6222 45.6003 53.4344 47.2203C55.4101 48.9839 58.981 54.4051 58.981 54.4051C58.981 54.4051 57.0554 53.8205 54.4589 54.4953C50.7211 55.4672 50.1904 55.9115 49.9902 57.4847C49.79 59.058 51.5354 60.8483 50.7344 62.0975C49.6431 63.7944 51.739 66.1926 51.739 66.1926C51.739 66.1926 52.0594 68.7445 54.3087 70.261C55.7738 71.2463 57.4025 71.3733 59.7887 70.4681C61.5074 69.8167 62.2216 74.3293 64.9415 76.4971C67.0808 78.2039 69.8975 76.6107 77.8638 85.686L86.5376 77.7263C80.3835 72.3252 67.231 54.5554 64.1406 52.4544C61.0502 50.3501 58.2001 45.6838 55.1765 42.1933Z" fill="white"/>
<path d="M86.8012 77.4223C83.5773 74.5932 78.361 68.2735 73.7555 62.6954C69.5237 57.5716 65.8693 53.1425 64.3642 52.1204C62.3417 50.7442 60.3527 48.1455 58.4304 45.6304C57.4725 44.3778 56.4814 43.0818 55.4802 41.9294C55.2298 41.6422 54.9195 41.1913 54.5891 40.717C53.7948 39.5746 52.897 38.2786 52.0026 37.8911C51.3919 37.6273 50.8312 37.7943 50.4207 38.3621C48.2748 41.3315 50.9647 45.5569 53.164 47.5209C54.6291 48.8269 57.0354 52.264 58.1033 53.8306C57.2556 53.7303 55.924 53.6969 54.3521 54.1044C50.7611 55.0364 49.8267 55.5274 49.5864 57.4346C49.4829 58.2363 49.7966 59.0279 50.1003 59.7928C50.4341 60.6345 50.7244 61.3593 50.3907 61.8771C49.266 63.624 50.958 65.8753 51.3518 66.3663C51.452 66.9208 51.9659 69.1721 54.0785 70.595C54.3688 70.7921 54.6692 70.9557 54.9662 71.086C56.3479 71.6805 57.9231 71.6071 59.9255 70.8455C60.059 70.7954 60.1725 70.7954 60.2926 70.8455C60.7632 71.0492 61.2705 71.9645 61.8044 72.9331C62.5019 74.1924 63.3663 75.7623 64.6846 76.8144C64.9949 77.0616 65.3354 77.262 65.7559 77.4424C66.1063 77.5927 66.4867 77.7196 66.8839 77.8532C67.3611 78.0135 67.9051 78.1939 68.5158 78.4578C70.2146 79.1893 72.9979 80.7625 77.5534 85.9565C77.5934 86.0033 77.6435 86.0367 77.6969 86.0601C77.7403 86.0801 77.787 86.0901 77.8337 86.0935C77.9439 86.1002 78.0473 86.0601 78.1274 85.9866L86.8012 78.0269C86.8846 77.9501 86.9314 77.8399 86.9314 77.723C86.9314 77.6094 86.8813 77.4992 86.7945 77.4223H86.8012ZM77.8905 85.1115C73.385 80.0444 70.5717 78.4611 68.8362 77.7129C68.1955 77.4357 67.6348 77.2486 67.1409 77.085C66.3032 76.8077 65.6691 76.5672 65.1885 76.1798C63.9971 75.2278 63.2095 73.8016 62.5119 72.5423C61.8545 71.3532 61.3372 70.4146 60.613 70.104C60.2959 69.967 59.9722 69.9637 59.6385 70.0873C57.8196 70.7753 56.478 70.8522 55.2866 70.3378C55.0329 70.2276 54.7793 70.0873 54.529 69.9203C52.4699 68.5307 52.1395 66.1592 52.1361 66.1358C52.1261 66.0557 52.0927 65.9822 52.0393 65.9221C52.0193 65.902 50.1537 63.7342 51.0682 62.3113C51.6255 61.4429 51.2284 60.4508 50.8479 59.4888C50.5809 58.8208 50.3073 58.126 50.3807 57.5315C50.5409 56.2756 50.7545 55.8681 54.5524 54.8827C56.9953 54.2481 58.8375 54.7825 58.8575 54.7892C59.0177 54.8393 59.1946 54.7792 59.2981 54.6456C59.4015 54.5086 59.4049 54.3249 59.3114 54.1813C59.1646 53.9575 55.6904 48.6967 53.698 46.9164C52.0193 45.4166 49.1659 41.4685 51.0715 38.8331C51.2851 38.5358 51.462 38.5358 51.6789 38.6293C52.3631 38.9233 53.2274 40.1725 53.9249 41.1746C54.2687 41.6689 54.5924 42.1332 54.8694 42.4539C55.8539 43.5895 56.8351 44.8755 57.7863 46.118C59.7486 48.6833 61.7777 51.3354 63.907 52.7851C65.3187 53.747 69.1132 58.3432 73.1314 63.2098C77.6001 68.6209 82.6429 74.7301 85.9302 77.7263L77.8871 85.1081L77.8905 85.1115Z" fill="black"/>
<path d="M54.5724 58.6505L50.8846 60.8049C50.8846 60.8049 52.2296 63.9246 57.4125 62.5785C64.1906 60.8149 58.3736 55.6242 54.5724 58.6505Z" fill="white"/>
<path d="M59.4116 57.8922C58.1867 57.1975 56.1243 56.9035 54.3221 58.3365L54.8227 58.9678C56.3112 57.7853 58.0132 58.0292 59.0144 58.597C59.7753 59.0279 60.1992 59.6559 60.1224 60.2404C60.0189 61.042 58.9944 61.7535 57.3124 62.1877C52.5566 63.4236 51.3051 60.7581 51.2551 60.6445L50.8846 60.8082L50.5142 60.9685C50.5509 61.0521 51.0782 62.2178 52.61 62.8791C53.688 63.3434 55.2632 63.5605 57.5159 62.976C60.2759 62.2579 60.8366 61.022 60.9234 60.3506C61.0435 59.4321 60.4628 58.4935 59.4116 57.8989V57.8922Z" fill="black"/>
<path d="M59.4115 62.642L51.7056 66.0824C51.7056 66.0824 53.985 68.3036 58.0733 67.2414C63.4197 65.8519 59.4115 62.642 59.4115 62.642Z" fill="white"/>
<path d="M59.6652 62.3247L59.1612 62.956C59.5784 63.29 60.6197 64.3522 60.4294 65.244C60.2859 65.912 59.4383 66.4698 57.9732 66.8473C54.1719 67.836 52.0727 65.8719 51.9859 65.7884L51.4219 66.3696C51.4687 66.4164 52.006 66.9274 52.9938 67.3516C54.1385 67.846 55.8873 68.2234 58.1734 67.6289C59.9789 67.1613 61.0001 66.4131 61.2171 65.411C61.5475 63.8545 59.7419 62.3848 59.6619 62.3213L59.6652 62.3247Z" fill="black"/>
<path d="M56.5381 52.7116C55.3867 51.9533 54.6491 48.2791 53.8448 48.4161C53.0405 48.5564 51.1683 52.8051 53.7881 54.9629C59.3081 59.5022 56.2811 66.3362 65.1518 69.5795L62.7522 57.8989C62.7522 57.8989 57.6861 53.4698 56.5381 52.7116Z" fill="white"/>
<path d="M58.09 61.2525C57.269 58.9711 56.4246 56.6096 54.0451 54.6522C52.8303 53.6535 52.7502 52.2239 52.897 51.1985C53.0773 49.9192 53.6546 48.9973 53.8782 48.837C54.0952 49.0173 54.4589 49.8591 54.7059 50.4269C55.1664 51.4991 55.6437 52.6114 56.3145 53.0523C57.4292 53.7871 62.4352 58.1628 62.4853 58.2062L63.0159 57.5983C62.809 57.4179 57.9164 53.1425 56.7584 52.3776C56.2911 52.0703 55.8239 50.9814 55.4468 50.1062C54.8961 48.8236 54.4956 47.895 53.7748 48.022C53.1173 48.1355 52.5266 49.3012 52.2496 50.34C51.996 51.2987 51.6122 53.7003 53.5311 55.2802C55.7371 57.0939 56.5081 59.2483 57.329 61.5263C58.4037 64.5258 59.515 67.6189 64.1239 69.6096C64.4076 69.7332 64.7046 69.8501 65.015 69.9637L65.292 69.2055C60.2826 67.3717 59.218 64.4023 58.09 61.2558V61.2525Z" fill="black"/>
<path d="M87.1783 72.9465C85.7399 71.3666 83.2469 71.4066 81.8619 73.0333C78.9951 76.3902 74.0692 81.8882 68.8062 86.5143C67.3344 87.8103 67.2043 90.0583 68.5025 91.528C75.324 99.2271 94.5405 120.751 99.1194 124.041C104.713 128.06 135.557 143.054 135.557 143.054L165.262 115.467C165.262 115.467 127.484 105.777 113.587 101.909L87.1817 72.9498L87.1783 72.9465Z" fill="#F98C0B"/>
<path d="M165.362 115.073C164.985 114.976 127.63 105.39 113.804 101.545L87.4753 72.6726C87.0915 72.2517 86.6377 71.9277 86.1237 71.7039C84.5218 71.0125 82.6862 71.44 81.5549 72.7694C78.4411 76.4203 73.6554 81.7145 68.5392 86.2104C67.7483 86.9051 67.2777 87.8671 67.2109 88.9193C67.1442 89.9781 67.4946 90.9969 68.1988 91.7918C75.9114 100.5 94.3403 121.102 98.8824 124.365C104.439 128.36 134.118 142.8 135.38 143.415C135.383 143.415 135.39 143.418 135.396 143.421C135.543 143.485 135.713 143.455 135.83 143.348L165.536 115.761C165.643 115.661 165.69 115.507 165.653 115.367C165.616 115.223 165.506 115.113 165.362 115.076V115.073ZM135.483 142.566C132.543 141.13 104.589 127.475 99.353 123.711C94.7508 120.404 74.8068 98.0347 68.8029 91.2574C68.2422 90.6261 67.9618 89.8144 68.0152 88.9694C68.0686 88.1343 68.4424 87.3694 69.0698 86.815C74.2227 82.289 79.0352 76.9614 82.1656 73.2939C83.0667 72.2383 84.5285 71.8977 85.8033 72.4488C86.2138 72.6258 86.5743 72.8864 86.8813 73.2204L113.29 102.18C113.343 102.237 113.407 102.277 113.48 102.297C126.169 105.827 159.165 114.315 164.448 115.674L135.486 142.569L135.483 142.566Z" fill="black"/>
<path d="M201.035 198.965H129.419C125.938 202.312 126.355 208.725 126.355 208.725H203.545C200.895 204.961 201.035 198.965 201.035 198.965Z" fill="white"/>
<path d="M201.443 198.972L201.453 198.558H129.259L129.142 198.671C125.565 202.108 125.935 208.481 125.952 208.752L125.978 209.129H204.323L203.876 208.492C201.336 204.881 201.439 199.029 201.443 198.972ZM126.746 208.321C126.726 206.942 126.866 202.108 129.586 199.366H200.635C200.652 200.722 200.869 205.064 202.804 208.321H126.746Z" fill="black"/>
<path d="M199.51 117.374C192.779 114.265 186.318 113.687 181.786 113.323C176.322 112.885 159.933 111.696 159.933 111.696C159.933 111.696 140.436 109.184 135.637 123.046C131.749 134.269 126.986 176.696 125.224 193.317C124.844 196.918 127.664 200.058 131.285 200.058H199.09C202.521 200.058 205.277 197.228 205.184 193.795C204.82 180.638 204.196 150.803 205.801 144.093C207.83 135.615 206.245 120.484 199.514 117.374H199.51Z" fill="#F98C0B"/>
<path d="M199.68 117.01C192.722 113.797 185.897 113.249 181.819 112.922C176.419 112.491 160.13 111.309 159.986 111.299C159.929 111.292 158.558 111.118 156.442 111.118C150.057 111.118 138.81 112.651 135.256 122.916C131.382 134.105 126.673 175.848 124.827 193.277C124.633 195.107 125.227 196.941 126.456 198.307C127.684 199.677 129.446 200.462 131.285 200.462H199.09V200.465C200.859 200.465 202.514 199.764 203.749 198.494C204.98 197.225 205.634 195.552 205.584 193.781C205.234 181.099 204.59 150.877 206.192 144.183C207.25 139.754 207.306 133.798 206.335 128.644C205.197 122.598 202.834 118.463 199.68 117.007V117.01ZM205.407 143.999C203.782 150.786 204.426 181.092 204.777 193.808C204.82 195.358 204.249 196.824 203.168 197.933C202.087 199.045 200.638 199.66 199.09 199.66H131.285C129.673 199.66 128.131 198.969 127.053 197.769C125.975 196.57 125.454 194.967 125.628 193.364C127.47 175.965 132.169 134.292 136.017 123.18C139.408 113.386 150.268 111.923 156.438 111.923C158.498 111.923 159.866 112.097 159.903 112.1C160.066 112.114 176.352 113.293 181.752 113.727C185.777 114.051 192.515 114.589 199.34 117.742C205.791 120.721 207.44 135.492 205.407 143.999Z" fill="black"/>
<path d="M158.714 149.257C148.349 138.965 147.097 133.234 136.771 122.909C136.511 122.649 136.251 122.388 135.987 122.127C135.864 122.425 135.75 122.735 135.64 123.053C134.822 125.414 133.965 129.162 133.107 133.755C134.328 134.981 135.553 136.203 136.775 137.429C147.104 147.753 148.355 153.489 158.718 163.776C171.517 151.05 193.416 142.917 206.182 130.161C205.548 125.852 204.206 121.844 202.06 119.368C189.094 130.087 170.225 137.816 158.718 149.263L158.714 149.257Z" fill="white"/>
<path d="M202.364 119.098L202.107 118.801L201.803 119.051C196.053 123.808 189.001 128.05 182.186 132.151C173.789 137.205 165.109 142.429 158.718 148.685C153.705 143.668 150.808 139.663 148.008 135.792C145.161 131.854 142.215 127.779 137.055 122.622L135.844 121.409L135.613 121.967C135.497 122.251 135.38 122.558 135.256 122.912C134.482 125.157 133.621 128.778 132.706 133.675L132.666 133.885L132.817 134.035C133.424 134.647 134.038 135.258 134.649 135.872C135.26 136.484 135.87 137.095 136.481 137.709C141.594 142.82 144.521 146.868 147.347 150.78C150.221 154.751 153.191 158.86 158.427 164.057L158.711 164.341L158.998 164.057C165.346 157.741 174.12 152.463 182.6 147.356C191.167 142.199 200.028 136.868 206.459 130.438L206.602 130.294L206.575 130.094C206.078 126.724 204.943 122.081 202.36 119.098H202.364ZM182.186 146.668C173.786 151.722 165.106 156.946 158.714 163.205C153.702 158.188 150.805 154.183 148.005 150.309C145.158 146.371 142.211 142.296 137.052 137.142C136.441 136.53 135.83 135.919 135.22 135.305C134.659 134.743 134.098 134.182 133.534 133.618C134.429 128.868 135.263 125.357 136.014 123.183C136.054 123.066 136.094 122.956 136.134 122.849L136.481 123.196C141.594 128.31 144.521 132.355 147.347 136.27C150.221 140.241 153.191 144.35 158.427 149.547L158.711 149.831L158.998 149.547C165.346 143.234 174.116 137.953 182.597 132.85C189.318 128.805 196.263 124.626 202 119.936C203.762 122.148 205.084 125.698 205.744 130.02C199.393 136.317 190.646 141.581 182.183 146.675L182.186 146.668Z" fill="black"/>
<path d="M187.402 65.7951C191.561 64.8231 192.669 61.2191 192.669 61.2191C192.669 61.2191 190.87 62.014 180.888 59.6926C167.078 56.4793 166.127 64.4089 166.127 64.4089C157.533 58.2363 149.286 81.5408 158.504 95.2055C168.016 109.308 182.413 100.683 188.857 95.9003C195.302 91.1138 189.134 87.4362 189.205 84.0393C189.275 80.6389 193.78 79.6001 194.194 72.2484C194.611 64.8966 187.402 65.7985 187.402 65.7985V65.7951Z" fill="black"/>
<path d="M189.472 65.4544C192.205 64.0048 193.016 61.4629 193.056 61.3326L193.329 60.4809L192.522 60.8383C192.522 60.8383 192.228 60.9418 191.35 60.9418C189.852 60.9418 186.835 60.6546 180.981 59.2951C178.765 58.7807 176.736 58.5202 174.947 58.5202C168.169 58.5202 166.334 62.2612 165.873 63.7543C165.012 63.2399 164.134 62.9827 163.25 62.9827C160.91 62.9827 158.664 64.7864 156.926 68.0665C153.198 75.0809 152.647 87.2358 158.174 95.426C161.708 100.663 166.254 103.319 171.69 103.319C177.127 103.319 182.757 100.931 189.101 96.2176C193.797 92.7304 192.115 89.6441 190.766 87.1623C190.162 86.0534 189.592 85.0046 189.612 84.0393C189.638 82.7767 190.356 81.8548 191.264 80.6857C192.639 78.9187 194.347 76.7209 194.601 72.2651C194.724 70.094 194.214 68.3905 193.093 67.2013C192.038 66.0857 190.636 65.6248 189.475 65.4511L189.472 65.4544ZM193.793 72.2217C193.556 76.4303 191.931 78.5146 190.626 80.1914C189.665 81.4272 188.834 82.4961 188.804 84.0259C188.781 85.205 189.401 86.344 190.056 87.5498C191.441 90.095 192.749 92.5 188.62 95.5696C182.503 100.112 176.649 102.514 171.69 102.514C166.731 102.514 162.215 99.9787 158.845 94.975C153.488 87.0354 154.025 75.2512 157.64 68.4439C159.232 65.4411 161.227 63.7877 163.253 63.7877C164.138 63.7877 165.025 64.105 165.896 64.7329L166.45 65.1304L166.534 64.4524C166.541 64.4023 167.235 59.3252 174.951 59.3252C176.676 59.3252 178.645 59.579 180.801 60.08C187.736 61.6934 190.76 61.8136 192.015 61.7268C191.497 62.7522 190.159 64.7329 187.312 65.3976L187.452 66.1926C187.452 66.1926 187.719 66.1592 188.127 66.1592C189.198 66.1592 191.19 66.3663 192.502 67.7558C193.466 68.7779 193.9 70.281 193.79 72.2183L193.793 72.2217Z" fill="black"/>
<path d="M156.121 84.6639C155.217 89.5205 158.514 91.9154 158.514 91.9154L159.809 82.4593C159.809 82.4593 156.642 81.8681 156.121 84.6605V84.6639Z" fill="white"/>
<path d="M155.724 84.5871C154.783 89.6374 158.134 92.1359 158.281 92.2428L158.755 91.5881C158.628 91.4946 155.674 89.2667 156.519 84.734C156.956 82.3825 159.616 82.8334 159.736 82.8568L159.809 82.4593L159.883 82.0619C158.651 81.8314 156.195 82.0619 155.724 84.5871Z" fill="black"/>
<path d="M159.736 82.8568L159.809 82.4593L159.736 82.8568Z" fill="black"/>
<path d="M185.273 86.0634L184.459 95.573C184.459 95.573 188.203 93.963 188.387 89.0228C188.49 86.1837 185.273 86.0634 185.273 86.0634Z" fill="white"/>
<path d="M185.29 85.6593L185.256 86.4676C185.373 86.4709 188.073 86.6112 187.983 89.0095C187.813 93.6156 184.442 95.1387 184.299 95.2022L184.616 95.9437C184.779 95.8736 188.6 94.1734 188.791 89.0395C188.887 86.4743 186.541 85.7094 185.29 85.6626V85.6593Z" fill="black"/>
<path d="M177.287 105.45L163.317 103.67C163.53 105.897 162.789 111.466 162.789 111.466C164.765 113.303 166.621 113.871 168.079 114.024C171.77 114.415 177.921 112.244 177.921 112.244C177.073 108.57 177.284 105.45 177.284 105.45H177.287Z" fill="white"/>
<path d="M177.691 105.48L177.717 105.099L162.869 103.205L162.916 103.71C163.123 105.864 162.396 111.355 162.389 111.412L162.359 111.619L162.512 111.76C164.211 113.343 166.02 114.215 168.036 114.428C168.343 114.458 168.68 114.475 169.034 114.475C172.765 114.475 177.838 112.701 178.051 112.625L178.392 112.504L178.311 112.15C177.487 108.583 177.684 105.507 177.684 105.477L177.691 105.48ZM169.04 113.67C168.713 113.67 168.406 113.653 168.126 113.627C166.347 113.436 164.742 112.678 163.22 111.309C163.347 110.337 163.834 106.335 163.754 104.134L176.873 105.807C176.843 106.719 176.846 109.144 177.454 111.98C176.249 112.377 172.097 113.673 169.04 113.673V113.67Z" fill="black"/>
<path d="M170.412 70.1374C170.412 70.1374 162.215 67.8126 160.336 76.5806C159.525 80.3617 158.384 87.964 158.104 91.8854C157.823 95.8068 156.936 101.518 159.349 104.341C162.599 108.145 167.018 109.455 172.02 109.689C173.395 105.994 177.761 108.426 179.883 106.499C184.002 102.764 184.135 95.9003 184.923 91.882C185.65 88.1711 185.734 79.6469 185.35 76.6675C184.966 73.688 179.086 67.8928 170.412 70.134V70.1374Z" fill="white"/>
<path d="M174.253 69.2288C172.998 69.2288 171.707 69.3925 170.415 69.7198C170.115 69.6464 169.22 69.4526 168.062 69.4526C165.593 69.4526 161.258 70.3678 159.943 76.4938C159.168 80.1145 157.997 87.7736 157.703 91.8553C157.67 92.3597 157.62 92.8941 157.573 93.4519C157.243 97.2664 156.836 102.016 159.045 104.605C162.008 108.072 166.127 109.819 172.004 110.093L172.297 110.106L172.401 109.829C173.112 107.925 174.667 107.865 176.466 107.798C177.794 107.748 179.166 107.698 180.157 106.796C183.584 103.686 184.319 98.6192 184.909 94.5475C185.043 93.6123 185.173 92.7271 185.323 91.9589C186.074 88.1343 186.141 79.5968 185.754 76.614C185.42 74.0354 181.182 69.2255 174.257 69.2255L174.253 69.2288ZM184.529 91.8052C184.375 92.5935 184.245 93.4853 184.108 94.4339C183.538 98.3787 182.827 103.285 179.613 106.201C178.839 106.903 177.671 106.946 176.432 106.993C174.68 107.06 172.705 107.133 171.754 109.271C166.267 108.964 162.419 107.31 159.656 104.077C157.667 101.746 158.06 97.1863 158.377 93.5187C158.427 92.9609 158.474 92.4198 158.508 91.9121C158.795 87.8638 159.959 80.2582 160.73 76.6608C161.862 71.3699 165.342 70.2576 168.059 70.2576C169.347 70.2576 170.292 70.5182 170.298 70.5215L170.402 70.5516L170.509 70.5248C171.767 70.2008 173.025 70.0338 174.247 70.0338C180.611 70.0338 184.652 74.4496 184.946 76.7176C185.313 79.5801 185.243 88.1143 184.522 91.8019L184.529 91.8052Z" fill="black"/>
<path d="M173.936 91.3443C172.458 90.2821 170.255 89.6909 167.976 90.0483C166.27 90.3155 165.009 91.2608 162.789 91.2608C160.994 91.2608 159.499 90.7965 158.287 90.0316C158.204 90.7464 158.14 91.3777 158.104 91.8854C157.823 95.8068 156.936 101.518 159.349 104.341C162.599 108.145 167.018 109.455 172.02 109.689C173.395 105.994 177.761 108.426 179.883 106.499C183.644 103.085 184.085 97.066 184.732 92.9843C183.578 93.6423 182.179 94.0331 180.524 94.0331C177.51 94.0331 175.812 92.687 173.936 91.3376V91.3443ZM172.688 97.9211C171.366 97.9545 170.011 97.8042 168.75 97.4034C167.475 96.9992 166.277 96.3779 165.149 95.6665C164.375 95.1788 163.997 94.0799 164.518 93.2682C165.019 92.49 166.087 92.1159 166.914 92.6403C167.415 92.9542 167.922 93.2549 168.45 93.5187C168.576 93.5822 168.7 93.6423 168.827 93.6991C168.863 93.7158 168.903 93.7325 168.94 93.7492C169.187 93.8394 169.427 93.9396 169.678 94.0198C169.931 94.0999 170.188 94.1701 170.449 94.2302C170.582 94.2602 170.712 94.287 170.846 94.3137C170.886 94.3204 171.009 94.3404 171.093 94.3538C171.173 94.3638 171.27 94.3738 171.306 94.3772C171.45 94.3905 171.59 94.4005 171.733 94.4072C172.054 94.4239 172.371 94.4239 172.688 94.4139C173.606 94.3905 174.48 95.2389 174.44 96.1675C174.397 97.1395 173.669 97.8944 172.688 97.9211Z" fill="black"/>
<path d="M172.725 94.0097H172.675C172.368 94.0164 172.061 94.0164 171.75 94.0031C171.613 93.9964 171.477 93.9864 171.34 93.9763C171.31 93.9763 171.233 93.963 171.153 93.9563L171.086 93.9463C171.019 93.9363 170.946 93.9262 170.919 93.9195C170.792 93.8962 170.666 93.8695 170.539 93.8394C170.292 93.7826 170.045 93.7158 169.801 93.639C169.654 93.5922 169.507 93.5354 169.361 93.4786C169.271 93.4452 169.18 93.4118 169.09 93.3784L168.994 93.335C168.87 93.2782 168.75 93.2214 168.63 93.158C168.169 92.9275 167.692 92.6536 167.128 92.2996C166.811 92.1025 166.447 91.9956 166.07 91.9956C165.319 91.9956 164.595 92.3998 164.174 93.0511C163.891 93.492 163.797 94.0331 163.921 94.5709C164.051 95.1654 164.421 95.6932 164.929 96.0105C166.234 96.8322 167.442 97.4134 168.623 97.7875C169.751 98.1482 170.996 98.3286 172.328 98.3286C172.451 98.3286 172.575 98.3286 172.695 98.3253C173.866 98.2952 174.787 97.3766 174.841 96.1842C174.864 95.6531 174.647 95.1087 174.25 94.6911C173.836 94.2569 173.279 94.0097 172.725 94.0097ZM172.675 97.5169C172.558 97.5169 172.444 97.5203 172.328 97.5203C171.083 97.5203 169.918 97.3499 168.87 97.0159C167.755 96.6619 166.607 96.1074 165.359 95.3224C165.039 95.1187 164.795 94.7713 164.708 94.3905C164.658 94.16 164.642 93.816 164.855 93.4853C165.126 93.0678 165.603 92.7972 166.073 92.7972C166.297 92.7972 166.511 92.8574 166.701 92.9776C167.288 93.3484 167.785 93.6323 168.269 93.8761C168.396 93.9396 168.526 94.0031 168.656 94.0632L168.807 94.13C168.9 94.1634 168.99 94.1968 169.08 94.2302C169.24 94.2903 169.397 94.3504 169.558 94.4039C169.825 94.4874 170.095 94.5642 170.362 94.6243C170.499 94.6544 170.635 94.6845 170.776 94.7078C170.809 94.7145 170.889 94.7279 170.966 94.7379L171.076 94.7546C171.156 94.7646 171.24 94.7746 171.273 94.7746C171.423 94.788 171.57 94.798 171.717 94.8047C172.044 94.8214 172.371 94.8214 172.701 94.8114H172.728C173.058 94.8114 173.412 94.9717 173.669 95.2423C173.919 95.5028 174.053 95.8301 174.04 96.1408C174.006 96.9157 173.432 97.4902 172.678 97.5103L172.675 97.5169Z" fill="black"/>
<path d="M180.524 93.6356C177.794 93.6356 176.175 92.4632 174.46 91.224L174.173 91.0169C172.524 89.8312 170.135 89.3034 167.916 89.6508C167.208 89.761 166.567 89.9848 165.95 90.2019C165.025 90.5259 164.071 90.8599 162.793 90.8599C161.171 90.8599 159.732 90.4658 158.508 89.6942L157.967 89.3502L157.893 89.9881C157.803 90.7464 157.74 91.3743 157.707 91.8587C157.673 92.363 157.623 92.8975 157.576 93.4553C157.246 97.2698 156.839 102.02 159.048 104.608C162.012 108.075 166.13 109.822 172.007 110.096L172.301 110.109L172.404 109.832C173.115 107.928 174.67 107.868 176.469 107.801C177.797 107.751 179.169 107.701 180.16 106.799C183.588 103.69 184.322 98.6225 184.913 94.5508C184.989 94.0298 185.063 93.5254 185.136 93.0511L185.266 92.2194L184.536 92.6336C183.374 93.2949 182.026 93.6323 180.527 93.6323L180.524 93.6356ZM184.105 94.4373C183.534 98.3787 182.827 103.285 179.61 106.205C178.835 106.906 177.667 106.95 176.429 106.996C174.677 107.063 172.701 107.137 171.75 109.274C166.264 108.967 162.416 107.314 159.652 104.08C157.663 101.749 158.057 97.1896 158.374 93.5221C158.424 92.9643 158.471 92.4231 158.504 91.9154C158.528 91.5814 158.568 91.1706 158.618 90.6929C159.842 91.3409 161.244 91.6683 162.786 91.6683C164.198 91.6683 165.219 91.3109 166.207 90.9635C166.818 90.7497 167.395 90.5493 168.032 90.4491C170.048 90.1318 172.217 90.6094 173.696 91.6716L173.98 91.8787C175.805 93.1981 177.527 94.444 180.517 94.444C181.859 94.444 183.097 94.1934 184.209 93.7024C184.175 93.9429 184.138 94.1868 184.102 94.4373H184.105Z" fill="black"/>
<path d="M172.131 95.5095C172.097 95.5128 168.897 95.8869 166.217 93.6724C166.047 93.5321 165.793 93.5555 165.649 93.7258C165.509 93.8995 165.533 94.1534 165.706 94.2936C168.663 96.7353 172.091 96.3245 172.234 96.3078C172.241 96.3078 172.244 96.3078 172.244 96.3078C172.461 96.271 172.608 96.074 172.581 95.8569C172.554 95.6364 172.351 95.4794 172.131 95.5061V95.5095Z" fill="black"/>
<path d="M233.224 110.55C232.303 107.611 230.608 107.671 230.608 107.671C230.341 105.403 228.115 104.922 228.115 104.922C226.102 101.465 223.516 104.571 223.516 104.571C223.996 102.611 225.902 93.4786 225.675 92.3163C225.321 90.5025 223.953 90.89 223.446 91.715C222.615 93.0745 218.99 102.811 218.219 106.706C217.712 109.268 213.994 105.964 212.776 104.695C208.254 99.9753 205.094 102.744 206.362 103.98C208.454 106.018 210.68 111.061 212.049 112.865C213.484 114.762 213.651 118.747 215.903 120.648L210.814 134.513L224.457 141.177C224.457 141.177 227.124 126.343 230.541 122.401C232.427 120.227 231.646 116.292 231.646 116.292C231.646 116.292 234.162 113.513 233.234 110.557L233.224 110.55Z" fill="white"/>
<path d="M233.611 110.43C232.857 108.025 231.572 107.447 230.961 107.31C230.618 105.63 229.229 104.819 228.375 104.571C227.741 103.546 226.98 102.985 226.116 102.895C225.375 102.818 224.697 103.115 224.183 103.452C224.867 100.356 226.289 93.3551 226.069 92.2328C225.815 90.9234 225.101 90.6629 224.694 90.6194C224.1 90.5593 223.456 90.9134 223.099 91.4979C222.241 92.9008 218.597 102.684 217.819 106.622C217.709 107.18 217.465 107.274 217.131 107.237C216.03 107.127 214.098 105.483 213.063 104.408C211.061 102.32 209.416 101.756 208.388 101.652C206.933 101.505 206.085 102.166 205.801 102.774C205.561 103.292 205.664 103.86 206.078 104.261C207.333 105.487 208.655 107.851 209.819 109.939C210.554 111.255 211.188 112.394 211.722 113.102C212.276 113.834 212.643 114.943 213.03 116.115C213.567 117.735 214.168 119.559 215.426 120.755L210.307 134.703L224.757 141.761L224.851 141.237C224.877 141.09 227.534 126.466 230.841 122.655C232.61 120.618 232.21 117.251 232.073 116.399C232.603 115.751 234.482 113.196 233.615 110.427L233.611 110.43ZM231.339 116.015L231.202 116.165L231.242 116.362C231.248 116.399 231.959 120.13 230.227 122.131C227.103 125.732 224.667 137.856 224.153 140.572L211.314 134.302L216.374 120.518L216.157 120.334C214.926 119.295 214.351 117.551 213.794 115.865C213.384 114.625 212.997 113.453 212.362 112.615C211.862 111.953 211.211 110.788 210.52 109.548C209.329 107.411 207.977 104.989 206.636 103.683C206.425 103.479 206.462 103.262 206.529 103.115C206.709 102.728 207.34 102.357 208.304 102.454C209.199 102.544 210.647 103.052 212.479 104.966C212.763 105.26 215.303 107.865 217.048 108.039C217.862 108.122 218.433 107.661 218.61 106.773C219.368 102.945 222.992 93.2047 223.783 91.9154C223.976 91.5981 224.323 91.391 224.611 91.4177C225.031 91.4612 225.208 92.039 225.275 92.3797C225.468 93.3718 223.716 102.03 223.119 104.461L222.705 106.145L223.82 104.819C223.82 104.819 224.877 103.573 226.029 103.69C226.666 103.753 227.247 104.234 227.761 105.116L227.851 105.27L228.025 105.306C228.045 105.306 229.974 105.751 230.204 107.708L230.251 108.065H230.611C230.611 108.065 230.634 108.065 230.654 108.065C230.891 108.089 232.103 108.326 232.834 110.657C233.678 113.356 231.355 115.975 231.329 116.002L231.339 116.015Z" fill="black"/>
<path d="M225.598 122.568C225.391 122.488 225.158 122.592 225.078 122.799L222.498 129.513C222.418 129.72 222.521 129.957 222.728 130.034C222.762 130.047 222.798 130.057 222.832 130.06C223.009 130.077 223.182 129.977 223.249 129.803L225.829 123.086C225.909 122.879 225.805 122.645 225.598 122.565V122.568Z" fill="black"/>
<path d="M228.071 104.511C227.848 104.538 227.691 104.738 227.718 104.959C227.721 104.989 228.051 107.968 226.99 109.792C225.942 111.599 224.273 112.197 223.236 111.843C222.288 111.519 221.861 110.457 222.061 108.92C222.204 107.805 222.548 107.133 223.079 106.926C223.883 106.609 225.074 107.387 225.468 107.715C225.638 107.858 225.892 107.835 226.036 107.664C226.179 107.494 226.156 107.24 225.985 107.097C225.915 107.036 224.203 105.62 222.788 106.171C221.961 106.495 221.45 107.384 221.26 108.813C221.009 110.734 221.65 112.154 222.975 112.605C223.165 112.668 223.362 112.708 223.563 112.732C225.028 112.878 226.713 111.873 227.688 110.193C228.882 108.135 228.532 104.992 228.515 104.859C228.488 104.638 228.288 104.481 228.068 104.505L228.071 104.511Z" fill="black"/>
<path d="M230.584 107.524C230.364 107.561 230.214 107.768 230.251 107.988C230.254 108.019 230.721 110.988 229.67 112.802C228.615 114.615 226.8 115.193 225.625 114.809C224.697 114.509 224.233 113.663 224.35 112.498C224.374 112.277 224.21 112.077 223.99 112.053C223.766 112.03 223.569 112.194 223.546 112.414C223.389 113.974 224.073 115.156 225.371 115.577C225.568 115.641 225.779 115.684 225.999 115.708C227.431 115.851 229.266 115.1 230.364 113.209C231.566 111.142 231.068 107.992 231.045 107.858C231.008 107.638 230.801 107.487 230.581 107.524H230.584Z" fill="black"/>
<path d="M231.939 115.978C231.776 115.825 231.522 115.831 231.369 115.995C231.335 116.028 230.558 116.827 229.463 115.838C229.299 115.688 229.042 115.701 228.892 115.868C228.742 116.032 228.755 116.289 228.922 116.439C229.426 116.893 229.91 117.094 230.351 117.137C231.078 117.211 231.666 116.86 231.953 116.556C232.106 116.396 232.099 116.139 231.939 115.985V115.978Z" fill="black"/>
<path d="M218.89 111.215L226.663 117.972C225.185 112.578 218.89 111.215 218.89 111.215Z" fill="white"/>
<path d="M218.974 110.818L218.803 111.609C218.864 111.623 224.874 112.982 226.272 118.079L227.05 117.865C225.525 112.301 219.241 110.878 218.974 110.821V110.818Z" fill="black"/>
<path d="M233.695 132.769C222.989 128.624 220.839 125.21 217.085 121.981C215.253 120.404 212.336 121.533 211.448 123.784L204.81 140.599L192.539 156.865C192.572 167.521 198.532 189.185 216.971 180.731C229.813 174.842 234.349 145.135 235.414 136.447C235.59 134.994 235.063 133.3 233.698 132.773L233.695 132.769Z" fill="#F98C0B"/>
<path d="M233.842 132.392C225.221 129.055 222.248 126.249 219.378 123.534C218.7 122.896 218.063 122.288 217.348 121.677C216.484 120.935 215.313 120.674 214.138 120.965C212.763 121.306 211.588 122.331 211.071 123.641L204.43 140.452L205.18 140.749L211.818 123.938C212.242 122.866 213.203 122.027 214.328 121.75C215.259 121.52 216.144 121.713 216.818 122.294C217.515 122.896 218.149 123.494 218.82 124.125C221.75 126.894 224.781 129.756 233.548 133.15C234.713 133.601 235.163 135.128 235.006 136.4C233.922 145.252 229.41 174.585 216.798 180.367C211.351 182.862 206.622 182.869 202.737 180.384C195.586 175.804 192.959 163.813 192.936 156.869H192.128C192.151 163.993 194.878 176.312 202.3 181.062C203.996 182.147 205.831 182.789 207.804 182.986C210.64 183.273 213.764 182.645 217.131 181.099C230.124 175.143 234.709 145.455 235.807 136.497C235.994 134.964 235.46 133.023 233.838 132.395L233.842 132.392Z" fill="black"/>
<path d="M168.787 114.081C168.787 114.081 172.061 116.773 173.452 120.307C174.313 120.621 181.222 114.916 181.786 113.326L177.771 111.031C177.771 111.031 173.899 113.336 168.787 114.078V114.081Z" fill="white"/>
<path d="M177.564 110.684C177.527 110.707 173.703 112.955 168.727 113.68L167.822 113.814L168.53 114.392C168.56 114.418 171.737 117.054 173.078 120.454L173.145 120.624L173.315 120.688C173.382 120.715 173.456 120.725 173.536 120.725C174.897 120.725 181.589 115.093 182.166 113.463L182.276 113.142L177.767 110.567L177.567 110.687L177.564 110.684ZM181.252 113.486C180.207 115.153 175.004 119.405 173.713 119.873C172.631 117.341 170.692 115.293 169.684 114.341C173.803 113.593 176.946 111.953 177.771 111.496L181.252 113.483V113.486Z" fill="black"/>
<path d="M162.459 110.089C160.573 110.089 159.933 111.699 159.933 111.699C159.025 115.233 160.13 119.135 160.13 119.135C162.015 116.887 166.964 113.951 166.964 113.951C164.752 113.333 162.459 110.089 162.459 110.089Z" fill="white"/>
<path d="M162.789 109.856L162.669 109.685H162.459C160.323 109.685 159.589 111.476 159.559 111.549L159.542 111.599C158.618 115.197 159.696 119.081 159.742 119.245L159.949 119.976L160.44 119.392C162.259 117.221 167.121 114.321 167.171 114.291L167.986 113.81L167.075 113.557C165.029 112.985 162.813 109.882 162.789 109.849V109.856ZM160.353 118.303C160.093 117.037 159.686 114.328 160.32 111.83C160.396 111.659 160.924 110.597 162.265 110.5C162.726 111.118 164.321 113.139 166.073 114.028C164.782 114.833 161.998 116.65 160.356 118.303H160.353Z" fill="black"/>
<path d="M168.83 75.6687L168.57 76.5138C168.55 76.5071 166.674 75.9426 164.702 76.9046L164.315 76.1096C166.594 74.9974 168.743 75.6387 168.833 75.6654L168.83 75.6687Z" fill="black"/>
<path d="M181.806 80.0911L181.098 80.6222C178.495 77.1685 175.668 76.8679 175.632 76.8612L175.712 75.9794C175.845 75.9927 178.946 76.3 181.806 80.0911Z" fill="black"/>
<path d="M177.03 81.8915C177.504 81.9617 177.831 82.4059 177.761 82.8869C177.691 83.3679 177.247 83.7019 176.773 83.6318C176.299 83.5616 175.972 83.1174 176.042 82.6364C176.112 82.1554 176.553 81.8214 177.027 81.8915H177.03Z" fill="black"/>
<path d="M175.608 82.5696C175.501 83.2911 175.999 83.9624 176.709 84.066C177.424 84.1729 178.091 83.6718 178.195 82.9504C178.301 82.2289 177.807 81.5575 177.093 81.4506C176.379 81.3471 175.712 81.8448 175.605 82.5696H175.608ZM176.483 82.6965C176.516 82.4593 176.733 82.2923 176.963 82.3257C177.197 82.3591 177.357 82.5829 177.32 82.8201C177.287 83.0606 177.067 83.2243 176.836 83.1909C176.606 83.1574 176.446 82.9337 176.483 82.6965Z" fill="black"/>
<path d="M165.366 80.1747C165.84 80.2448 166.167 80.6924 166.097 81.17C166.027 81.651 165.586 81.985 165.109 81.9149C164.635 81.8448 164.311 81.4005 164.381 80.9195C164.451 80.4385 164.892 80.1045 165.366 80.1747Z" fill="black"/>
<path d="M163.947 80.8527C163.841 81.5742 164.335 82.2456 165.049 82.3491C165.763 82.456 166.43 81.9516 166.534 81.2335C166.641 80.512 166.147 79.8406 165.433 79.7371C164.722 79.6302 164.054 80.1312 163.947 80.8527ZM164.818 80.9796C164.855 80.7425 165.072 80.5755 165.302 80.6089C165.536 80.6423 165.696 80.8661 165.659 81.1032C165.626 81.3437 165.406 81.5074 165.176 81.474C164.945 81.4406 164.785 81.2168 164.818 80.9796Z" fill="black"/>
<path d="M169.367 84.7507L169.447 85.6325C169.237 85.6492 168.873 85.7127 168.777 85.9031C168.663 86.1336 168.85 86.5678 168.963 86.7448L168.216 87.2158C168.156 87.1189 167.625 86.2438 167.986 85.5123C168.203 85.068 168.67 84.8108 169.367 84.7474V84.7507Z" fill="black"/>
<path d="M181.428 173.116H115.779C113.143 173.116 111.007 175.253 111.007 177.889V202.229C111.007 204.867 113.143 207.005 115.779 207.005H181.428C184.062 207.005 186.198 204.867 186.198 202.229V177.889C186.198 175.253 184.062 173.116 181.428 173.116Z" fill="white"/>
<path d="M181.428 172.795H115.779C112.973 172.795 110.687 175.083 110.687 177.892V202.232C110.687 205.044 112.973 207.329 115.779 207.329H181.428C184.239 207.329 186.521 205.044 186.521 202.232V177.892C186.521 175.083 184.239 172.795 181.428 172.795ZM185.877 202.232C185.877 204.687 183.881 206.684 181.428 206.684H115.779C113.326 206.684 111.331 204.687 111.331 202.232V177.892C111.331 175.437 113.326 173.44 115.779 173.44H181.428C183.881 173.44 185.877 175.437 185.877 177.892V202.232Z" fill="black"/>
<path d="M181.428 174.916H115.779C113.143 174.916 111.007 177.054 111.007 179.692V204.032C111.007 206.668 113.143 208.809 115.779 208.809H181.428C184.062 208.809 186.198 206.668 186.198 204.032V179.692C186.198 177.054 184.062 174.916 181.428 174.916Z" fill="black"/>
<path d="M181.428 174.595H115.779C112.973 174.595 110.687 176.883 110.687 179.692V204.032C110.687 206.845 112.973 209.129 115.779 209.129H181.428C184.239 209.129 186.521 206.841 186.521 204.032V179.692C186.521 176.88 184.239 174.595 181.428 174.595ZM185.877 204.032C185.877 206.491 183.881 208.488 181.428 208.488H115.779C113.326 208.488 111.331 206.491 111.331 204.032V179.692C111.331 177.234 113.326 175.24 115.779 175.24H181.428C183.881 175.24 185.877 177.237 185.877 179.692V204.032Z" fill="black"/>
<path d="M172.708 177.044H181.585C182.947 177.044 184.048 178.149 184.048 179.509V179.813C184.048 181.175 182.944 182.278 181.585 182.278H172.708C171.346 182.278 170.242 181.172 170.242 179.809V179.509C170.242 178.146 171.346 177.04 172.708 177.04V177.044Z" fill="#93C0E9"/>
<path d="M181.585 176.72H172.708C171.173 176.72 169.921 177.972 169.921 179.509V179.809C169.921 181.346 171.173 182.598 172.708 182.598H181.585C183.124 182.598 184.372 181.349 184.372 179.809V179.509C184.372 177.969 183.124 176.72 181.585 176.72ZM183.731 179.813C183.731 180.995 182.77 181.957 181.585 181.957H172.708C171.527 181.957 170.565 180.995 170.565 179.813V179.512C170.565 178.33 171.527 177.364 172.708 177.364H181.585C182.767 177.364 183.731 178.326 183.731 179.512V179.813Z" fill="black"/>
<path d="M181.258 178.293C180.527 178.293 179.933 178.884 179.933 179.619C179.933 180.354 180.527 180.945 181.258 180.945C181.989 180.945 182.583 180.35 182.583 179.619C182.583 178.887 181.993 178.293 181.258 178.293Z" fill="#93C0E9"/>
<path d="M181.258 177.972C180.351 177.972 179.613 178.71 179.613 179.619C179.613 180.527 180.351 181.266 181.258 181.266C182.166 181.266 182.904 180.527 182.904 179.619C182.904 178.71 182.166 177.972 181.258 177.972ZM181.258 180.621C180.708 180.621 180.257 180.173 180.257 179.619C180.257 179.064 180.708 178.613 181.258 178.613C181.809 178.613 182.263 179.064 182.263 179.619C182.263 180.173 181.812 180.621 181.258 180.621Z" fill="black"/>
<path d="M177.504 178.293C176.773 178.293 176.179 178.884 176.179 179.619C176.179 180.354 176.773 180.945 177.504 180.945C178.235 180.945 178.829 180.35 178.829 179.619C178.829 178.887 178.235 178.293 177.504 178.293Z" fill="#93C0E9"/>
<path d="M177.504 177.972C176.596 177.972 175.858 178.71 175.858 179.619C175.858 180.527 176.596 181.266 177.504 181.266C178.412 181.266 179.149 180.527 179.149 179.619C179.149 178.71 178.415 177.972 177.504 177.972ZM177.504 180.621C176.95 180.621 176.503 180.173 176.503 179.619C176.503 179.064 176.95 178.613 177.504 178.613C178.058 178.613 178.508 179.064 178.508 179.619C178.508 180.173 178.058 180.621 177.504 180.621Z" fill="black"/>
<path d="M173.275 178.968C172.918 178.968 172.625 179.258 172.625 179.619C172.625 179.98 172.918 180.27 173.275 180.27C173.632 180.27 173.929 179.98 173.929 179.619C173.929 179.258 173.639 178.968 173.275 178.968Z" fill="white"/>
<path d="M173.275 178.647C172.738 178.647 172.304 179.084 172.304 179.619C172.304 180.153 172.741 180.594 173.275 180.594C173.809 180.594 174.25 180.157 174.25 179.619C174.25 179.081 173.816 178.647 173.275 178.647ZM173.275 179.95C173.095 179.95 172.948 179.799 172.948 179.619C172.948 179.439 173.095 179.288 173.275 179.288C173.456 179.288 173.606 179.439 173.606 179.619C173.606 179.799 173.456 179.95 173.275 179.95Z" fill="black"/>
<path d="M176.856 183.687C176.352 183.687 175.949 184.095 175.949 184.599V202.222C175.949 204.851 173.809 206.988 171.186 206.988H128.525C125.902 206.988 123.762 204.851 123.762 202.222V184.599C123.762 184.095 123.355 183.687 122.851 183.687C122.347 183.687 121.944 184.095 121.944 184.599V202.222C121.944 205.853 124.894 208.809 128.521 208.809H171.183C174.811 208.809 177.761 205.853 177.761 202.222V184.599C177.761 184.095 177.354 183.687 176.853 183.687H176.856Z" fill="white"/>
<path d="M176.856 183.367C176.175 183.367 175.625 183.918 175.625 184.599V202.222C175.625 204.674 173.632 206.664 171.186 206.664H128.525C126.078 206.664 124.086 204.67 124.086 202.222V184.599C124.086 183.921 123.532 183.367 122.855 183.367C122.177 183.367 121.623 183.918 121.623 184.599V202.222C121.623 206.03 124.72 209.129 128.525 209.129H171.186C174.991 209.129 178.088 206.03 178.088 202.222V184.599C178.088 183.921 177.537 183.367 176.856 183.367ZM177.444 202.222C177.444 205.676 174.634 208.488 171.186 208.488H128.525C125.074 208.488 122.267 205.679 122.267 202.222V184.599C122.267 184.275 122.531 184.011 122.855 184.011C123.178 184.011 123.442 184.275 123.442 184.599V202.222C123.442 205.028 125.721 207.309 128.525 207.309H171.186C173.99 207.309 176.269 205.028 176.269 202.222V184.599C176.269 184.275 176.533 184.011 176.856 184.011C177.18 184.011 177.444 184.275 177.444 184.599V202.222Z" fill="black"/>
</svg>
