<svg width="66" height="66" viewBox="0 0 46 46" fill="none" xmlns="http://www.w3.org/2000/svg">
<mask id="path-1-inside-1_174_832" fill="white">
<path d="M26.0072 45.23C21.9365 45.23 18.4689 43.7977 15.6043 40.9331C12.7398 38.0686 11.3075 34.6009 11.3075 30.5302V29.2299C8.06602 28.7022 5.37106 27.1851 3.22264 24.6786C1.07421 22.1721 0 19.2227 0 15.8305V2.2615H6.7845V0H11.3075V9.046H6.7845V6.7845H4.523V15.8305C4.523 18.3181 5.40875 20.4477 7.18026 22.2192C8.95177 23.9907 11.0813 24.8765 13.569 24.8765C16.0567 24.8765 18.1862 23.9907 19.9577 22.2192C21.7292 20.4477 22.615 18.3181 22.615 15.8305V6.7845H20.3535V9.046H15.8305V0H20.3535V2.2615H27.138V15.8305C27.138 19.2227 26.0638 22.1721 23.9154 24.6786C21.7669 27.1851 19.072 28.7022 15.8305 29.2299V30.5302C15.8305 33.3571 16.8199 35.76 18.7987 37.7388C20.7775 39.7176 23.1804 40.707 26.0072 40.707C28.8341 40.707 31.237 39.7176 33.2158 37.7388C35.1946 35.76 36.184 33.3571 36.184 30.5302V26.7422C34.8648 26.2899 33.7812 25.4796 32.9331 24.3111C32.085 23.1427 31.661 21.8235 31.661 20.3535C31.661 18.4689 32.3206 16.867 33.6398 15.5478C34.959 14.2286 36.5609 13.569 38.4455 13.569C40.3301 13.569 41.932 14.2286 43.2512 15.5478C44.5704 16.867 45.23 18.4689 45.23 20.3535C45.23 21.8235 44.806 23.1427 43.9579 24.3111C43.1098 25.4796 42.0262 26.2899 40.707 26.7422V30.5302C40.707 34.6009 39.2747 38.0686 36.4101 40.9331C33.5456 43.7977 30.0779 45.23 26.0072 45.23ZM38.4455 22.615C39.0863 22.615 39.6234 22.3983 40.0568 21.9648C40.4903 21.5314 40.707 20.9943 40.707 20.3535C40.707 19.7127 40.4903 19.1756 40.0568 18.7422C39.6234 18.3087 39.0863 18.092 38.4455 18.092C37.8047 18.092 37.2676 18.3087 36.8342 18.7422C36.4007 19.1756 36.184 19.7127 36.184 20.3535C36.184 20.9943 36.4007 21.5314 36.8342 21.9648C37.2676 22.3983 37.8047 22.615 38.4455 22.615Z"/>
</mask>
<path d="M26.0072 45.23C21.9365 45.23 18.4689 43.7977 15.6043 40.9331C12.7398 38.0686 11.3075 34.6009 11.3075 30.5302V29.2299C8.06602 28.7022 5.37106 27.1851 3.22264 24.6786C1.07421 22.1721 0 19.2227 0 15.8305V2.2615H6.7845V0H11.3075V9.046H6.7845V6.7845H4.523V15.8305C4.523 18.3181 5.40875 20.4477 7.18026 22.2192C8.95177 23.9907 11.0813 24.8765 13.569 24.8765C16.0567 24.8765 18.1862 23.9907 19.9577 22.2192C21.7292 20.4477 22.615 18.3181 22.615 15.8305V6.7845H20.3535V9.046H15.8305V0H20.3535V2.2615H27.138V15.8305C27.138 19.2227 26.0638 22.1721 23.9154 24.6786C21.7669 27.1851 19.072 28.7022 15.8305 29.2299V30.5302C15.8305 33.3571 16.8199 35.76 18.7987 37.7388C20.7775 39.7176 23.1804 40.707 26.0072 40.707C28.8341 40.707 31.237 39.7176 33.2158 37.7388C35.1946 35.76 36.184 33.3571 36.184 30.5302V26.7422C34.8648 26.2899 33.7812 25.4796 32.9331 24.3111C32.085 23.1427 31.661 21.8235 31.661 20.3535C31.661 18.4689 32.3206 16.867 33.6398 15.5478C34.959 14.2286 36.5609 13.569 38.4455 13.569C40.3301 13.569 41.932 14.2286 43.2512 15.5478C44.5704 16.867 45.23 18.4689 45.23 20.3535C45.23 21.8235 44.806 23.1427 43.9579 24.3111C43.1098 25.4796 42.0262 26.2899 40.707 26.7422V30.5302C40.707 34.6009 39.2747 38.0686 36.4101 40.9331C33.5456 43.7977 30.0779 45.23 26.0072 45.23ZM38.4455 22.615C39.0863 22.615 39.6234 22.3983 40.0568 21.9648C40.4903 21.5314 40.707 20.9943 40.707 20.3535C40.707 19.7127 40.4903 19.1756 40.0568 18.7422C39.6234 18.3087 39.0863 18.092 38.4455 18.092C37.8047 18.092 37.2676 18.3087 36.8342 18.7422C36.4007 19.1756 36.184 19.7127 36.184 20.3535C36.184 20.9943 36.4007 21.5314 36.8342 21.9648C37.2676 22.3983 37.8047 22.615 38.4455 22.615Z" fill="white"/>
<path d="M11.3075 29.2299H16.3075V24.978L12.1109 24.2948L11.3075 29.2299ZM0 2.2615V-2.7385H-5V2.2615H0ZM6.7845 2.2615V7.2615H11.7845V2.2615H6.7845ZM6.7845 0V-5H1.7845V0H6.7845ZM11.3075 0H16.3075V-5H11.3075V0ZM11.3075 9.046V14.046H16.3075V9.046H11.3075ZM6.7845 9.046H1.7845V14.046H6.7845V9.046ZM6.7845 6.7845H11.7845V1.7845H6.7845V6.7845ZM4.523 6.7845V1.7845H-0.477V6.7845H4.523ZM22.615 6.7845H27.615V1.7845H22.615V6.7845ZM20.3535 6.7845V1.7845H15.3535V6.7845H20.3535ZM20.3535 9.046V14.046H25.3535V9.046H20.3535ZM15.8305 9.046H10.8305V14.046H15.8305V9.046ZM15.8305 0V-5H10.8305V0H15.8305ZM20.3535 0H25.3535V-5H20.3535V0ZM20.3535 2.2615H15.3535V7.2615H20.3535V2.2615ZM27.138 2.2615H32.138V-2.7385H27.138V2.2615ZM15.8305 29.2299L15.0271 24.2948L10.8305 24.978V29.2299H15.8305ZM36.184 26.7422H41.184V23.1708L37.8056 22.0125L36.184 26.7422ZM40.707 26.7422L39.0854 22.0125L35.707 23.1708V26.7422H40.707ZM26.0072 40.23C23.2554 40.23 21.0617 39.3194 19.1399 37.3976L12.0688 44.4687C15.8762 48.276 20.6177 50.23 26.0072 50.23V40.23ZM19.1399 37.3976C17.2181 35.4758 16.3075 33.2821 16.3075 30.5302H6.3075C6.3075 35.9198 8.26147 40.6613 12.0688 44.4687L19.1399 37.3976ZM16.3075 30.5302V29.2299H6.3075V30.5302H16.3075ZM12.1109 24.2948C10.0408 23.9579 8.40374 23.0403 7.01892 21.4247L-0.573646 27.9326C2.33838 31.3299 6.09124 33.4465 10.5041 34.1649L12.1109 24.2948ZM7.01892 21.4247C5.67036 19.8513 5 18.0652 5 15.8305H-5C-5 20.3803 -3.52193 24.4929 -0.573646 27.9326L7.01892 21.4247ZM5 15.8305V2.2615H-5V15.8305H5ZM0 7.2615H6.7845V-2.7385H0V7.2615ZM11.7845 2.2615V0H1.7845V2.2615H11.7845ZM6.7845 5H11.3075V-5H6.7845V5ZM6.3075 0V9.046H16.3075V0H6.3075ZM11.3075 4.046H6.7845V14.046H11.3075V4.046ZM11.7845 9.046V6.7845H1.7845V9.046H11.7845ZM6.7845 1.7845H4.523V11.7845H6.7845V1.7845ZM-0.477 6.7845V15.8305H9.523V6.7845H-0.477ZM-0.477 15.8305C-0.477 19.6548 0.943019 23.0531 3.64473 25.7548L10.7158 18.6837C9.87449 17.8424 9.523 16.9815 9.523 15.8305H-0.477ZM3.64473 25.7548C6.34644 28.4565 9.74473 29.8765 13.569 29.8765V19.8765C12.418 19.8765 11.5571 19.525 10.7158 18.6837L3.64473 25.7548ZM13.569 29.8765C17.3933 29.8765 20.7916 28.4565 23.4933 25.7548L16.4222 18.6837C15.5809 19.525 14.72 19.8765 13.569 19.8765V29.8765ZM23.4933 25.7548C26.195 23.0531 27.615 19.6548 27.615 15.8305H17.615C17.615 16.9815 17.2635 17.8424 16.4222 18.6837L23.4933 25.7548ZM27.615 15.8305V6.7845H17.615V15.8305H27.615ZM22.615 1.7845H20.3535V11.7845H22.615V1.7845ZM15.3535 6.7845V9.046H25.3535V6.7845H15.3535ZM20.3535 4.046H15.8305V14.046H20.3535V4.046ZM20.8305 9.046V0H10.8305V9.046H20.8305ZM15.8305 5H20.3535V-5H15.8305V5ZM15.3535 0V2.2615H25.3535V0H15.3535ZM20.3535 7.2615H27.138V-2.7385H20.3535V7.2615ZM22.138 2.2615V15.8305H32.138V2.2615H22.138ZM22.138 15.8305C22.138 18.0652 21.4676 19.8513 20.1191 21.4247L27.7116 27.9326C30.6599 24.4929 32.138 20.3803 32.138 15.8305H22.138ZM20.1191 21.4247C18.7343 23.0403 17.0972 23.9579 15.0271 24.2948L16.6339 34.1649C21.0468 33.4465 24.7996 31.3299 27.7116 27.9326L20.1191 21.4247ZM10.8305 29.2299V30.5302H20.8305V29.2299H10.8305ZM10.8305 30.5302C10.8305 34.6681 12.336 38.3472 15.2632 41.2743L22.3343 34.2032C21.3038 33.1728 20.8305 32.0462 20.8305 30.5302H10.8305ZM15.2632 41.2743C18.1903 44.2015 21.8694 45.707 26.0072 45.707V35.707C24.4913 35.707 23.3647 35.2337 22.3343 34.2032L15.2632 41.2743ZM26.0072 45.707C30.1451 45.707 33.8242 44.2015 36.7513 41.2743L29.6802 34.2032C28.6498 35.2337 27.5232 35.707 26.0072 35.707V45.707ZM36.7513 41.2743C39.6785 38.3472 41.184 34.6681 41.184 30.5302H31.184C31.184 32.0462 30.7107 33.1728 29.6802 34.2032L36.7513 41.2743ZM41.184 30.5302V26.7422H31.184V30.5302H41.184ZM37.8056 22.0125C37.4959 21.9063 37.2458 21.741 36.9796 21.3741L28.8866 27.2481C30.3165 29.2182 32.2337 30.6736 34.5624 31.472L37.8056 22.0125ZM36.9796 21.3741C36.7632 21.0761 36.661 20.789 36.661 20.3535H26.661C26.661 22.858 27.4068 25.2093 28.8866 27.2481L36.9796 21.3741ZM36.661 20.3535C36.661 19.7799 36.8045 19.4542 37.1753 19.0833L30.1043 12.0123C27.8367 14.2798 26.661 17.158 26.661 20.3535H36.661ZM37.1753 19.0833C37.5462 18.7125 37.8719 18.569 38.4455 18.569V8.569C35.25 8.569 32.3718 9.74474 30.1043 12.0123L37.1753 19.0833ZM38.4455 18.569C39.0191 18.569 39.3448 18.7125 39.7157 19.0833L46.7867 12.0123C44.5192 9.74474 41.641 8.569 38.4455 8.569V18.569ZM39.7157 19.0833C40.0865 19.4542 40.23 19.7799 40.23 20.3535H50.23C50.23 17.158 49.0543 14.2798 46.7867 12.0123L39.7157 19.0833ZM40.23 20.3535C40.23 20.789 40.1278 21.0761 39.9114 21.3741L48.0044 27.2481C49.4842 25.2093 50.23 22.858 50.23 20.3535H40.23ZM39.9114 21.3741C39.6452 21.741 39.3951 21.9063 39.0854 22.0125L42.3286 31.472C44.6573 30.6736 46.5745 29.2182 48.0044 27.2481L39.9114 21.3741ZM35.707 26.7422V30.5302H45.707V26.7422H35.707ZM35.707 30.5302C35.707 33.2821 34.7964 35.4758 32.8746 37.3976L39.9457 44.4687C43.753 40.6613 45.707 35.9198 45.707 30.5302H35.707ZM32.8746 37.3976C30.9528 39.3194 28.7591 40.23 26.0072 40.23V50.23C31.3968 50.23 36.1383 48.276 39.9457 44.4687L32.8746 37.3976ZM38.4455 27.615C40.3454 27.615 42.1749 26.9178 43.5924 25.5004L36.5213 18.4293C36.7516 18.199 37.0673 17.9733 37.4579 17.8157C37.8441 17.6599 38.1929 17.615 38.4455 17.615V27.615ZM43.5924 25.5004C45.0098 24.0829 45.707 22.2534 45.707 20.3535H35.707C35.707 20.1009 35.7519 19.7521 35.9077 19.3659C36.0653 18.9753 36.291 18.6596 36.5213 18.4293L43.5924 25.5004ZM45.707 20.3535C45.707 18.4536 45.0098 16.6241 43.5924 15.2066L36.5213 22.2777C36.291 22.0474 36.0653 21.7317 35.9077 21.3411C35.7519 20.9549 35.707 20.6061 35.707 20.3535H45.707ZM43.5924 15.2066C42.1749 13.7892 40.3454 13.092 38.4455 13.092V23.092C38.1929 23.092 37.8441 23.0471 37.4579 22.8913C37.0673 22.7337 36.7516 22.508 36.5213 22.2777L43.5924 15.2066ZM38.4455 13.092C36.5456 13.092 34.7161 13.7892 33.2986 15.2066L40.3697 22.2777C40.1394 22.508 39.8237 22.7337 39.4331 22.8913C39.0469 23.0471 38.6981 23.092 38.4455 23.092V13.092ZM33.2986 15.2066C31.8812 16.6241 31.184 18.4536 31.184 20.3535H41.184C41.184 20.6061 41.1391 20.9549 40.9833 21.3411C40.8257 21.7317 40.6 22.0474 40.3697 22.2777L33.2986 15.2066ZM31.184 20.3535C31.184 22.2534 31.8812 24.0829 33.2986 25.5004L40.3697 18.4293C40.6 18.6596 40.8257 18.9753 40.9833 19.3659C41.1391 19.7521 41.184 20.1009 41.184 20.3535H31.184ZM33.2986 25.5004C34.7161 26.9178 36.5456 27.615 38.4455 27.615V17.615C38.6981 17.615 39.0469 17.6599 39.4331 17.8157C39.8237 17.9733 40.1394 18.199 40.3697 18.4293L33.2986 25.5004Z" fill="#F98C0B" mask="url(#path-1-inside-1_174_832)"/>
</svg>
