<svg width="66" height="66" viewBox="0 0 66 66" fill="none" xmlns="http://www.w3.org/2000/svg">
<path fill-rule="evenodd" clip-rule="evenodd" d="M10.4676 17.0676C12.943 14.593 16.2998 13.2028 19.8 13.2028C23.3002 13.2028 26.657 14.593 29.1324 17.0676L33 20.9319L36.8676 17.0676C38.0853 15.8069 39.5418 14.8013 41.1523 14.1095C42.7627 13.4177 44.4948 13.0535 46.2475 13.0383C48.0002 13.0231 49.7384 13.357 51.3606 14.0208C52.9828 14.6845 54.4566 15.6646 55.696 16.904C56.9354 18.1434 57.9155 19.6172 58.5792 21.2394C59.243 22.8616 59.5769 24.5998 59.5617 26.3525C59.5465 28.1052 59.1823 29.8373 58.4905 31.4477C57.7987 33.0582 56.7931 34.5147 55.5324 35.7324L33 58.2681L10.4676 35.7324C7.99298 33.257 6.60281 29.9002 6.60281 26.4C6.60281 22.8998 7.99298 19.543 10.4676 17.0676Z" stroke-width="5" stroke="#F98C0B" />
</svg>
