<svg width="66" height="66" viewBox="0 0 46 46" fill="none" xmlns="http://www.w3.org/2000/svg">
<path d="M16.9613 45.23C14.8254 45.23 12.9827 44.4866 11.4331 42.9999C9.88359 41.5132 9.00412 39.7228 8.79472 37.6288C6.28194 37.2938 4.18796 36.184 2.51278 34.2994C0.837593 32.4148 0 30.1952 0 27.6406C0 26.7611 0.115169 25.8921 0.345507 25.0335C0.575845 24.175 0.921352 23.3688 1.38203 22.615C0.921352 21.8612 0.575845 21.0655 0.345507 20.2279C0.115169 19.3903 0 18.5108 0 17.5894C0 15.0348 0.837593 12.8256 2.51278 10.962C4.18796 9.09835 6.261 7.99901 8.7319 7.66397C8.85754 5.52811 9.71607 3.71682 11.3075 2.23009C12.8989 0.743363 14.7835 0 16.9613 0C18.0501 0 19.0657 0.209398 20.008 0.628194C20.9503 1.04699 21.8193 1.61237 22.615 2.32432C23.3688 1.61237 24.2274 1.04699 25.1906 0.628194C26.1538 0.209398 27.1799 0 28.2687 0C30.4465 0 32.3206 0.732893 33.8911 2.19868C35.4616 3.66447 36.3096 5.46529 36.4353 7.60115C38.9062 7.93619 40.9897 9.046 42.6858 10.9306C44.3819 12.8152 45.23 15.0348 45.23 17.5894C45.23 18.5108 45.1148 19.3903 44.8845 20.2279C44.6542 21.0655 44.3086 21.8612 43.848 22.615C44.3086 23.3688 44.6542 24.175 44.8845 25.0335C45.1148 25.8921 45.23 26.7611 45.23 27.6406C45.23 30.2371 44.3819 32.4672 42.6858 34.3308C40.9897 36.1945 38.8852 37.2938 36.3725 37.6288C36.1631 39.7228 35.2941 41.5132 33.7654 42.9999C32.2368 44.4866 30.4046 45.23 28.2687 45.23C27.2218 45.23 26.2062 45.0311 25.222 44.6332C24.2378 44.2354 23.3688 43.6805 22.615 42.9685C21.8193 43.6805 20.9398 44.2354 19.9766 44.6332C19.0134 45.0311 18.0082 45.23 16.9613 45.23ZM25.1278 8.16653V37.0635C25.1278 37.9429 25.4314 38.6863 26.0387 39.2936C26.6459 39.9008 27.3893 40.2044 28.2687 40.2044C29.1063 40.2044 29.8288 39.8694 30.436 39.1993C31.0433 38.5293 31.3678 37.7754 31.4097 36.9378C30.5303 36.6028 29.7241 36.1526 28.9912 35.5872C28.2583 35.0218 27.5987 34.3413 27.0124 33.5456C26.5936 32.9593 26.4365 32.3311 26.5412 31.661C26.6459 30.9909 26.9914 30.4465 27.5777 30.0277C28.1641 29.6089 28.7922 29.4518 29.4623 29.5565C30.1324 29.6612 30.6768 30.0068 31.0956 30.5931C31.5563 31.2631 32.1426 31.7762 32.8546 32.1321C33.5665 32.4881 34.3413 32.6661 35.1789 32.6661C36.5609 32.6661 37.744 32.174 38.7282 31.1899C39.7124 30.2057 40.2044 29.0226 40.2044 27.6406C40.2044 27.4312 40.194 27.2218 40.173 27.0124C40.1521 26.803 40.0997 26.5936 40.016 26.3842C39.304 26.803 38.5397 27.1171 37.7231 27.3265C36.9064 27.5359 36.0584 27.6406 35.1789 27.6406C34.4669 27.6406 33.8702 27.3997 33.3885 26.9181C32.9069 26.4365 32.6661 25.8397 32.6661 25.1278C32.6661 24.4158 32.9069 23.819 33.3885 23.3374C33.8702 22.8558 34.4669 22.615 35.1789 22.615C36.5609 22.615 37.744 22.1229 38.7282 21.1387C39.7124 20.1546 40.2044 18.9715 40.2044 17.5894C40.2044 16.2074 39.7124 15.0348 38.7282 14.0716C37.744 13.1083 36.5609 12.6058 35.1789 12.5639C34.7182 13.3177 34.1214 13.9773 33.3885 14.5427C32.6556 15.1081 31.8495 15.5583 30.97 15.8933C30.2999 16.1446 29.6508 16.1237 29.0226 15.8305C28.3944 15.5373 27.9756 15.0557 27.7662 14.3857C27.5568 13.7156 27.5882 13.0664 27.8604 12.4382C28.1326 11.8101 28.6038 11.3913 29.2739 11.1819C29.9021 10.9725 30.4151 10.5955 30.8129 10.0511C31.2108 9.50668 31.4097 8.87848 31.4097 8.16653C31.4097 7.28706 31.1061 6.54369 30.4988 5.93644C29.8916 5.32918 29.1482 5.02556 28.2687 5.02556C27.3893 5.02556 26.6459 5.32918 26.0387 5.93644C25.4314 6.54369 25.1278 7.28706 25.1278 8.16653ZM20.1022 37.0635V8.16653C20.1022 7.28706 19.7986 6.54369 19.1913 5.93644C18.5841 5.32918 17.8407 5.02556 16.9613 5.02556C16.0818 5.02556 15.3384 5.32918 14.7312 5.93644C14.1239 6.54369 13.8203 7.28706 13.8203 8.16653C13.8203 8.8366 14.0087 9.45433 14.3857 10.0197C14.7626 10.5851 15.2651 10.9725 15.8933 11.1819C16.5634 11.3913 17.045 11.8101 17.3382 12.4382C17.6313 13.0664 17.6732 13.7156 17.4638 14.3857C17.2125 15.0557 16.7728 15.5373 16.1446 15.8305C15.5164 16.1237 14.8673 16.1446 14.1972 15.8933C13.3177 15.5583 12.5115 15.1081 11.7786 14.5427C11.0458 13.9773 10.449 13.3177 9.98829 12.5639C8.64814 12.6058 7.48598 13.1188 6.50181 14.103C5.51764 15.0871 5.02556 16.2493 5.02556 17.5894C5.02556 18.9715 5.51764 20.1546 6.50181 21.1387C7.48598 22.1229 8.66908 22.615 10.0511 22.615C10.7631 22.615 11.3598 22.8558 11.8415 23.3374C12.3231 23.819 12.5639 24.4158 12.5639 25.1278C12.5639 25.8397 12.3231 26.4365 11.8415 26.9181C11.3598 27.3997 10.7631 27.6406 10.0511 27.6406C9.17164 27.6406 8.32358 27.5359 7.50692 27.3265C6.69027 27.1171 5.92597 26.803 5.21401 26.3842C5.13025 26.5936 5.07791 26.803 5.05697 27.0124C5.03603 27.2218 5.02556 27.4312 5.02556 27.6406C5.02556 29.0226 5.51764 30.2057 6.50181 31.1899C7.48598 32.174 8.66908 32.6661 10.0511 32.6661C10.8887 32.6661 11.6635 32.4881 12.3754 32.1321C13.0874 31.7762 13.6737 31.2631 14.1344 30.5931C14.5532 30.0068 15.0976 29.6612 15.7677 29.5565C16.4378 29.4518 17.0659 29.6089 17.6523 30.0277C18.2386 30.4465 18.5841 30.9909 18.6888 31.661C18.7935 32.3311 18.6364 32.9593 18.2176 33.5456C17.6313 34.3413 16.9613 35.0323 16.2074 35.6186C15.4536 36.2049 14.6369 36.6656 13.7575 37.0007C13.7993 37.8382 14.1344 38.5816 14.7626 39.2307C15.3908 39.8799 16.1237 40.2044 16.9613 40.2044C17.8407 40.2044 18.5841 39.9008 19.1913 39.2936C19.7986 38.6863 20.1022 37.9429 20.1022 37.0635Z" fill="#F98C0B"/>
</svg>
