<svg width="26" height="26" viewBox="0 0 43 46" fill="none" xmlns="http://www.w3.org/2000/svg">
<mask id="path-1-inside-1_174_736" fill="white">
<path d="M0 45.23V40.707H4.523V33.4702C3.20379 33.0179 2.12016 32.2169 1.27209 31.0674C0.424031 29.9178 0 28.608 0 27.138V9.046H13.569V27.138C13.569 28.608 13.145 29.9178 12.2969 31.0674C11.4488 32.2169 10.3652 33.0179 9.046 33.4702V40.707H13.569V45.23H0ZM4.523 20.3535H9.046V13.569H4.523V20.3535ZM6.7845 29.3995C7.42526 29.3995 7.96236 29.1828 8.39582 28.7493C8.82927 28.3159 9.046 27.7788 9.046 27.138V24.8765H4.523V27.138C4.523 27.7788 4.73973 28.3159 5.17318 28.7493C5.60664 29.1828 6.14374 29.3995 6.7845 29.3995ZM22.615 45.23C21.3712 45.23 20.3064 44.7871 19.4206 43.9014C18.5349 43.0156 18.092 41.9508 18.092 40.707V19.1097C18.092 18.1297 18.3747 17.2534 18.9401 16.4807C19.5054 15.708 20.2404 15.152 21.145 14.8128L23.2934 14.0213C23.8211 13.8328 24.2169 13.5596 24.4807 13.2015C24.7446 12.8434 24.8765 12.4006 24.8765 11.8729V2.2615C24.8765 1.62074 25.0932 1.08364 25.5267 0.650181C25.9601 0.216727 26.4972 0 27.138 0H33.9225C34.5633 0 35.1004 0.216727 35.5338 0.650181C35.9673 1.08364 36.184 1.62074 36.184 2.2615V11.8729C36.184 12.4006 36.3159 12.8434 36.5798 13.2015C36.8436 13.5596 37.2394 13.8328 37.767 14.0213L39.9155 14.8128C40.8201 15.152 41.5551 15.708 42.1204 16.4807C42.6858 17.2534 42.9685 18.1297 42.9685 19.1097V40.707C42.9685 41.9508 42.5256 43.0156 41.6399 43.9014C40.7541 44.7871 39.6893 45.23 38.4455 45.23H22.615ZM29.3995 6.7845H31.661V4.523H29.3995V6.7845ZM22.615 22.615H38.4455V19.1097L36.2971 18.3181C34.8648 17.7905 33.734 16.9612 32.9048 15.8305C32.0756 14.6997 31.661 13.4182 31.661 11.9859V11.3075H29.3995V11.9859C29.3995 13.4182 28.9849 14.6997 28.1557 15.8305C27.3265 16.9612 26.1957 17.7905 24.7634 18.3181L22.615 19.1097V22.615ZM22.615 40.707H38.4455V36.184H22.615V40.707ZM22.615 31.661H38.4455V27.138H22.615V31.661Z"/>
</mask>
<path d="M0 45.23H-5V50.23H0V45.23ZM0 40.707V35.707H-5V40.707H0ZM4.523 40.707V45.707H9.523V40.707H4.523ZM4.523 33.4702H9.523V29.8988L6.14462 28.7405L4.523 33.4702ZM0 9.046V4.046H-5V9.046H0ZM13.569 9.046H18.569V4.046H13.569V9.046ZM9.046 33.4702L7.42438 28.7405L4.046 29.8988V33.4702H9.046ZM9.046 40.707H4.046V45.707H9.046V40.707ZM13.569 40.707H18.569V35.707H13.569V40.707ZM13.569 45.23V50.23H18.569V45.23H13.569ZM4.523 20.3535H-0.477V25.3535H4.523V20.3535ZM9.046 20.3535V25.3535H14.046V20.3535H9.046ZM9.046 13.569H14.046V8.569H9.046V13.569ZM4.523 13.569V8.569H-0.477V13.569H4.523ZM9.046 24.8765H14.046V19.8765H9.046V24.8765ZM4.523 24.8765V19.8765H-0.477V24.8765H4.523ZM21.145 14.8128L19.4165 10.1211L19.4029 10.1261L19.3894 10.1312L21.145 14.8128ZM23.2934 14.0213L21.6118 9.31259L21.5883 9.32097L21.5649 9.32958L23.2934 14.0213ZM37.767 14.0213L39.4956 9.32958L39.4722 9.32097L39.4487 9.31259L37.767 14.0213ZM39.9155 14.8128L41.6711 10.1312L41.6576 10.1261L41.644 10.1211L39.9155 14.8128ZM29.3995 6.7845H24.3995V11.7845H29.3995V6.7845ZM31.661 6.7845V11.7845H36.661V6.7845H31.661ZM31.661 4.523H36.661V-0.477H31.661V4.523ZM29.3995 4.523V-0.477H24.3995V4.523H29.3995ZM22.615 22.615H17.615V27.615H22.615V22.615ZM38.4455 22.615V27.615H43.4455V22.615H38.4455ZM38.4455 19.1097H43.4455V15.6232L40.174 14.418L38.4455 19.1097ZM36.2971 18.3181L38.0256 13.6264L36.2971 18.3181ZM31.661 11.3075H36.661V6.3075H31.661V11.3075ZM29.3995 11.3075V6.3075H24.3995V11.3075H29.3995ZM24.7634 18.3181L23.0349 13.6264L24.7634 18.3181ZM22.615 19.1097L20.8865 14.418L17.615 15.6232V19.1097H22.615ZM22.615 40.707H17.615V45.707H22.615V40.707ZM38.4455 40.707V45.707H43.4455V40.707H38.4455ZM38.4455 36.184H43.4455V31.184H38.4455V36.184ZM22.615 36.184V31.184H17.615V36.184H22.615ZM22.615 31.661H17.615V36.661H22.615V31.661ZM38.4455 31.661V36.661H43.4455V31.661H38.4455ZM38.4455 27.138H43.4455V22.138H38.4455V27.138ZM22.615 27.138V22.138H17.615V27.138H22.615ZM5 45.23V40.707H-5V45.23H5ZM0 45.707H4.523V35.707H0V45.707ZM9.523 40.707V33.4702H-0.477V40.707H9.523ZM6.14462 28.7405C5.81109 28.6261 5.55632 28.4524 5.29571 28.0991L-2.75153 34.0356C-1.31601 35.9815 0.596489 37.4097 2.90138 38.1999L6.14462 28.7405ZM5.29571 28.0991C5.1013 27.8356 5 27.5729 5 27.138H-5C-5 29.6431 -4.25324 32 -2.75153 34.0356L5.29571 28.0991ZM5 27.138V9.046H-5V27.138H5ZM0 14.046H13.569V4.046H0V14.046ZM8.569 9.046V27.138H18.569V9.046H8.569ZM8.569 27.138C8.569 27.5729 8.4677 27.8356 8.27328 28.0991L16.3205 34.0356C17.8222 32 18.569 29.6431 18.569 27.138H8.569ZM8.27328 28.0991C8.01268 28.4524 7.75791 28.6261 7.42438 28.7405L10.6676 38.1999C12.9725 37.4097 14.885 35.9815 16.3205 34.0356L8.27328 28.0991ZM4.046 33.4702V40.707H14.046V33.4702H4.046ZM9.046 45.707H13.569V35.707H9.046V45.707ZM8.569 40.707V45.23H18.569V40.707H8.569ZM13.569 40.23H0V50.23H13.569V40.23ZM4.523 25.3535H9.046V15.3535H4.523V25.3535ZM14.046 20.3535V13.569H4.046V20.3535H14.046ZM9.046 8.569H4.523V18.569H9.046V8.569ZM-0.477 13.569V20.3535H9.523V13.569H-0.477ZM6.7845 34.3995C8.68443 34.3995 10.5139 33.7023 11.9314 32.2849L4.86028 25.2138C5.09058 24.9835 5.40633 24.7578 5.79693 24.6002C6.18313 24.4444 6.53193 24.3995 6.7845 24.3995V34.3995ZM11.9314 32.2849C13.3488 30.8674 14.046 29.0379 14.046 27.138H4.046C4.046 26.8854 4.09087 26.5366 4.2467 26.1504C4.40431 25.7598 4.62999 25.4441 4.86028 25.2138L11.9314 32.2849ZM14.046 27.138V24.8765H4.046V27.138H14.046ZM9.046 19.8765H4.523V29.8765H9.046V19.8765ZM-0.477 24.8765V27.138H9.523V24.8765H-0.477ZM-0.477 27.138C-0.477 29.0379 0.220232 30.8674 1.63765 32.2849L8.70871 25.2138C8.93901 25.4441 9.16469 25.7598 9.3223 26.1504C9.47813 26.5366 9.523 26.8854 9.523 27.138H-0.477ZM1.63765 32.2849C3.05506 33.7023 4.88457 34.3995 6.7845 34.3995V24.3995C7.03707 24.3995 7.38587 24.4444 7.77207 24.6002C8.16267 24.7578 8.47842 24.9835 8.70871 25.2138L1.63765 32.2849ZM22.615 40.23C22.6019 40.23 22.6184 40.229 22.6577 40.2365C22.6979 40.2442 22.7487 40.2584 22.8037 40.2812C22.8586 40.3041 22.9027 40.3294 22.9333 40.3502C22.9632 40.3706 22.97 40.3797 22.9562 40.3658L15.8851 47.4369C17.7011 49.2529 20.0345 50.23 22.615 50.23V40.23ZM22.9562 40.3658C22.9423 40.352 22.9514 40.3588 22.9718 40.3887C22.9926 40.4193 23.0179 40.4634 23.0407 40.5183C23.0636 40.5733 23.0778 40.6241 23.0855 40.6643C23.093 40.7036 23.092 40.7201 23.092 40.707H13.092C13.092 43.2874 14.0691 45.6209 15.8851 47.4369L22.9562 40.3658ZM23.092 40.707V19.1097H13.092V40.707H23.092ZM23.092 19.1097C23.092 19.1072 23.0912 19.1637 23.0626 19.2525C23.0335 19.3424 22.9951 19.406 22.9752 19.4332L14.9049 13.5281C13.697 15.179 13.092 17.0949 13.092 19.1097H23.092ZM22.9752 19.4332C22.98 19.4267 22.9783 19.4298 22.9692 19.4391C22.96 19.4485 22.9472 19.4602 22.9317 19.4719C22.9162 19.4836 22.9029 19.4918 22.8944 19.4964C22.8861 19.5009 22.8871 19.4996 22.9006 19.4945L19.3894 10.1312C17.5816 10.8091 16.051 11.9618 14.9049 13.5281L22.9752 19.4332ZM22.8736 19.5045L25.022 18.713L21.5649 9.32958L19.4165 10.1211L22.8736 19.5045ZM24.9751 18.73C26.1965 18.2938 27.5151 17.5123 28.506 16.1675L20.4555 10.2355C20.9187 9.60682 21.4458 9.37188 21.6118 9.31259L24.9751 18.73ZM28.506 16.1675C29.5146 14.7987 29.8765 13.263 29.8765 11.8729H19.8765C19.8765 11.5381 19.9745 10.8882 20.4555 10.2355L28.506 16.1675ZM29.8765 11.8729V2.2615H19.8765V11.8729H29.8765ZM29.8765 2.2615C29.8765 2.51407 29.8316 2.86287 29.6758 3.24907C29.5182 3.63967 29.2925 3.95542 29.0622 4.18572L21.9911 -2.88535C20.5737 -1.46794 19.8765 0.361572 19.8765 2.2615H29.8765ZM29.0622 4.18572C28.8319 4.41601 28.5162 4.64169 28.1256 4.7993C27.7394 4.95513 27.3906 5 27.138 5V-5C25.2381 -5 23.4086 -4.30277 21.9911 -2.88535L29.0622 4.18572ZM27.138 5H33.9225V-5H27.138V5ZM33.9225 5C33.6699 5 33.3211 4.95513 32.9349 4.7993C32.5443 4.64169 32.2286 4.41601 31.9983 4.18572L39.0694 -2.88535C37.6519 -4.30277 35.8224 -5 33.9225 -5V5ZM31.9983 4.18572C31.768 3.95542 31.5423 3.63967 31.3847 3.24907C31.2289 2.86287 31.184 2.51407 31.184 2.2615H41.184C41.184 0.361572 40.4868 -1.46794 39.0694 -2.88535L31.9983 4.18572ZM31.184 2.2615V11.8729H41.184V2.2615H31.184ZM31.184 11.8729C31.184 13.263 31.5459 14.7987 32.5545 16.1675L40.605 10.2355C41.086 10.8882 41.184 11.5381 41.184 11.8729H31.184ZM32.5545 16.1675C33.5454 17.5123 34.864 18.2938 36.0854 18.73L39.4487 9.31259C39.6147 9.37188 40.1418 9.60682 40.605 10.2355L32.5545 16.1675ZM36.0385 18.713L38.1869 19.5045L41.644 10.1211L39.4956 9.32958L36.0385 18.713ZM38.1599 19.4945C38.1734 19.4996 38.1744 19.5009 38.1661 19.4964C38.1576 19.4918 38.1443 19.4836 38.1288 19.4719C38.1133 19.4602 38.1005 19.4485 38.0913 19.4391C38.0822 19.4298 38.0805 19.4267 38.0853 19.4332L46.1556 13.5281C45.0095 11.9618 43.4789 10.8091 41.6711 10.1312L38.1599 19.4945ZM38.0853 19.4332C38.0654 19.406 38.027 19.3424 37.9979 19.2525C37.9693 19.1637 37.9685 19.1072 37.9685 19.1097H47.9685C47.9685 17.0949 47.3635 15.179 46.1556 13.5281L38.0853 19.4332ZM37.9685 19.1097V40.707H47.9685V19.1097H37.9685ZM37.9685 40.707C37.9685 40.7201 37.9675 40.7036 37.975 40.6643C37.9827 40.6241 37.9969 40.5733 38.0197 40.5183C38.0426 40.4634 38.0679 40.4193 38.0887 40.3887C38.1091 40.3588 38.1182 40.352 38.1043 40.3658L45.1754 47.4369C46.9914 45.6209 47.9685 43.2874 47.9685 40.707H37.9685ZM38.1043 40.3658C38.0905 40.3797 38.0973 40.3706 38.1272 40.3502C38.1578 40.3294 38.2019 40.3041 38.2568 40.2812C38.3118 40.2584 38.3626 40.2442 38.4028 40.2365C38.4421 40.229 38.4586 40.23 38.4455 40.23V50.23C41.0259 50.23 43.3594 49.2529 45.1754 47.4369L38.1043 40.3658ZM38.4455 40.23H22.615V50.23H38.4455V40.23ZM29.3995 11.7845H31.661V1.7845H29.3995V11.7845ZM36.661 6.7845V4.523H26.661V6.7845H36.661ZM31.661 -0.477H29.3995V9.523H31.661V-0.477ZM24.3995 4.523V6.7845H34.3995V4.523H24.3995ZM22.615 27.615H38.4455V17.615H22.615V27.615ZM43.4455 22.615V19.1097H33.4455V22.615H43.4455ZM40.174 14.418L38.0256 13.6264L34.5685 23.0099L36.717 23.8014L40.174 14.418ZM38.0256 13.6264C37.4297 13.4069 37.1338 13.1423 36.9368 12.8737L28.8728 18.7873C30.3343 20.7802 32.2999 22.174 34.5685 23.0099L38.0256 13.6264ZM36.9368 12.8737C36.7509 12.6201 36.661 12.3793 36.661 11.9859H26.661C26.661 14.4572 27.4004 16.7794 28.8728 18.7873L36.9368 12.8737ZM36.661 11.9859V11.3075H26.661V11.9859H36.661ZM31.661 6.3075H29.3995V16.3075H31.661V6.3075ZM24.3995 11.3075V11.9859H34.3995V11.3075H24.3995ZM24.3995 11.9859C24.3995 12.3793 24.3096 12.6201 24.1236 12.8737L32.1877 18.7873C33.6601 16.7794 34.3995 14.4572 34.3995 11.9859H24.3995ZM24.1236 12.8737C23.9267 13.1423 23.6308 13.4069 23.0349 13.6264L26.492 23.0099C28.7606 22.174 30.7262 20.7802 32.1877 18.7873L24.1236 12.8737ZM23.0349 13.6264L20.8865 14.418L24.3435 23.8014L26.492 23.0099L23.0349 13.6264ZM17.615 19.1097V22.615H27.615V19.1097H17.615ZM22.615 45.707H38.4455V35.707H22.615V45.707ZM43.4455 40.707V36.184H33.4455V40.707H43.4455ZM38.4455 31.184H22.615V41.184H38.4455V31.184ZM17.615 36.184V40.707H27.615V36.184H17.615ZM22.615 36.661H38.4455V26.661H22.615V36.661ZM43.4455 31.661V27.138H33.4455V31.661H43.4455ZM38.4455 22.138H22.615V32.138H38.4455V22.138ZM17.615 27.138V31.661H27.615V27.138H17.615Z" fill="#F98C0B" mask="url(#path-1-inside-1_174_736)"/>
</svg>
