<svg width="310" height="285" viewBox="0 0 310 285" fill="none" xmlns="http://www.w3.org/2000/svg">
<g clip-path="url(#clip0_10_2026)">
<path d="M285.818 282.388H23.3632V285H285.818V282.388Z" fill="#16162B"/>
<path d="M294.121 90.8428C292.415 90.5703 290.823 91.7515 290.55 93.4552C290.277 95.159 291.71 96.2948 293.416 96.5674C295.122 96.84 296.328 96.6128 295.918 94.8864C295.532 93.2054 295.805 91.0927 294.098 90.8428H294.121Z" fill="black"/>
<path d="M15.0598 90.8428C16.766 90.5703 18.3584 91.7515 18.6314 93.4552C18.9044 95.159 17.4712 96.2948 15.7651 96.5674C14.0589 96.84 12.8532 96.6128 13.2627 94.8864C13.6494 93.2054 13.3764 91.0927 15.0826 90.8428H15.0598Z" fill="black"/>
<path d="M173.483 246.223C176.805 242.316 199.645 215.283 213.59 197.724C220.619 188.887 222.962 183.889 225.237 179.051C227.899 173.372 230.401 168.011 240.206 156.88C257.086 137.73 273.738 115.581 276.036 112.492H276.081L276.377 112.105C276.695 111.583 277.128 111.083 277.696 110.606C285.477 104.223 288.798 100.316 286.705 95.3635L286.341 94.5003L285.75 95.2272C285.408 95.6361 284.339 96.6811 283.315 96.6811L282.883 96.6129L282.496 97.0218C281.882 98.5211 280.472 100.884 279.243 100.884C278.97 100.884 278.675 100.77 278.402 100.497C276.9 99.1799 279.494 94.0232 281.496 91.0701C281.791 90.0024 282.155 88.6394 282.292 88.3668C282.428 88.117 283.634 86.4359 285.909 85.2093C288.115 84.028 292.165 82.3016 292.21 82.2789L294.895 81.143L291.96 81.1885C290.413 81.1885 288.73 80.9386 288.229 80.3934C287.979 80.1208 288.024 79.78 288.115 79.5302C288.366 78.8032 289.321 77.9627 290.891 77.7129C291.892 77.5538 292.711 77.2358 293.461 76.9632C294.371 76.6225 295.168 76.3271 296.146 76.3271C296.737 76.3271 297.329 76.4407 298.011 76.6452C300.059 77.304 301.81 78.2126 303.357 79.0304C304.29 79.5302 305.154 79.9618 305.928 80.2798C306.883 80.666 307.247 83.5737 307.725 87.231C308.044 89.7298 308.453 92.8647 309.181 96.2949C310.205 101.111 308.066 102.633 304.517 105.132C301.901 106.994 298.648 109.289 295.759 113.741C294.667 115.445 293.621 117.126 292.665 118.739L292.324 119.307H292.347C290.049 123.282 276.104 147.498 264.184 170.191C256.904 184.048 253.856 187.66 250.307 191.817C247.554 195.043 244.437 198.7 238.841 207.969C227.171 227.255 207.698 263.215 205.036 268.144L173.438 246.2L173.483 246.223Z" fill="white"/>
<path d="M296.146 76.9178C296.669 76.9178 297.215 77.0087 297.829 77.2131C299.831 77.8492 301.56 78.7579 303.084 79.5529C304.017 80.03 304.881 80.507 305.7 80.8251C306.36 81.0977 306.815 84.6868 307.156 87.3219C307.475 89.8435 307.884 92.9783 308.612 96.4085C309.545 100.861 307.634 102.201 304.176 104.677C301.515 106.563 298.216 108.903 295.281 113.446C294.303 114.968 293.279 116.603 292.188 118.466L291.551 119.602C288.502 124.918 275.171 148.134 263.706 169.941C256.449 183.753 253.423 187.32 249.897 191.454C247.122 194.702 244.005 198.382 238.363 207.673C227.057 226.346 208.426 260.694 204.854 267.304L174.302 246.087C178.761 240.839 200.532 215.034 214.022 198.064C221.097 189.182 223.44 184.139 225.738 179.278C228.377 173.644 230.856 168.329 240.616 157.243C256.972 138.684 273.101 117.308 276.218 113.173L276.354 113.219L276.855 112.378C277.15 111.901 277.537 111.469 278.06 111.038C286.068 104.473 289.48 100.407 287.228 95.1364L286.5 93.4099L285.295 94.8638C285.022 95.1818 284.089 96.1132 283.293 96.1132C283.247 96.1132 283.202 96.1132 283.156 96.1132L282.269 95.9996L281.928 96.8174C281.268 98.4757 279.949 100.316 279.221 100.316C279.084 100.316 278.925 100.225 278.743 100.089C277.787 99.2481 279.63 94.7956 281.928 91.4109L282.041 91.2519L282.087 91.0474C282.314 90.0934 282.656 88.8894 282.747 88.6622C282.883 88.4123 284.043 86.8676 286.114 85.7545C288.32 84.596 292.324 82.8695 292.37 82.8468L297.374 80.666H291.801C290.163 80.666 288.843 80.348 288.57 80.0527C288.502 79.9846 288.548 79.8482 288.57 79.7574C288.752 79.2122 289.571 78.5307 290.891 78.3262C291.96 78.1445 292.802 77.8265 293.552 77.5539C294.417 77.2359 295.145 76.9405 296.032 76.9405L296.146 76.9178ZM296.146 75.782C294.189 75.782 292.938 76.827 290.8 77.1904C288.002 77.6448 286.864 79.7574 287.82 80.8023C288.684 81.7337 291.323 81.7791 291.892 81.7791C291.96 81.7791 292.006 81.7791 292.006 81.7791C292.006 81.7791 287.933 83.5056 285.659 84.7096C283.384 85.9135 282.041 87.64 281.814 88.0943C281.586 88.5486 281.063 90.7294 281.063 90.7294C281.063 90.7294 275.649 98.7483 278.083 100.884C278.493 101.247 278.902 101.406 279.312 101.406C281.382 101.406 283.088 97.1809 283.088 97.1809C283.179 97.1809 283.27 97.1809 283.384 97.1809C284.908 97.1809 286.273 95.5226 286.273 95.5226C288.184 100.043 285.272 103.655 277.423 110.106C276.764 110.652 276.286 111.197 275.967 111.742H275.922C275.922 111.742 258.132 135.685 239.842 156.448C221.552 177.211 228.377 178.233 213.203 197.315C198.03 216.397 172.687 246.269 172.687 246.269L205.309 268.917C205.309 268.917 226.784 229.05 239.41 208.219C252.036 187.365 251.672 195.384 264.775 170.419C277.878 145.453 293.234 118.989 293.234 118.989H293.211C294.167 117.353 295.19 115.672 296.282 113.991C302.948 103.7 311.661 105.086 309.772 96.1132C307.884 87.1402 308.203 80.5297 306.178 79.712C304.131 78.8714 301.56 77.1223 298.216 76.0546C297.443 75.8047 296.783 75.7139 296.169 75.7139L296.146 75.782Z" fill="black"/>
<path d="M302.288 84.3236L302.402 83.8238L301.924 83.6875C301.924 83.6875 299.581 83.0287 296.715 80.4391L296.51 80.2573L296.237 80.3255C296.237 80.3255 292.893 81.0978 291.528 81.325C291.232 81.3704 291.05 81.643 291.096 81.9383C291.141 82.2336 291.414 82.4154 291.71 82.3699C292.915 82.1655 295.395 81.5976 296.214 81.4159C298.443 83.3922 300.332 84.2327 301.173 84.5507C300.741 87.1177 301.606 88.5715 301.651 88.6397C301.742 88.7987 301.924 88.8896 302.106 88.8896C302.197 88.8896 302.288 88.8668 302.379 88.8214C302.629 88.6624 302.698 88.3444 302.561 88.0945C302.561 88.0945 301.788 86.7542 302.311 84.3236H302.288Z" fill="black"/>
<path d="M291.937 91.57C290.527 90.1161 287.569 87.8672 285.818 88.0035C284.271 88.1171 281.109 90.0707 280.767 90.2978C280.517 90.4568 280.449 90.7749 280.608 91.0248C280.767 91.2746 281.086 91.3428 281.336 91.1838C282.246 90.6159 284.817 89.1393 285.909 89.0484C287.069 88.9348 289.594 90.6386 291.187 92.2969C292.893 94.046 294.44 96.6811 294.462 96.7039C294.553 96.8629 294.735 96.9764 294.917 96.9764C295.008 96.9764 295.099 96.9765 295.19 96.9083C295.441 96.772 295.532 96.4313 295.372 96.1814C295.304 96.0678 293.734 93.41 291.937 91.57Z" fill="black"/>
<path d="M293.985 80.9386C293.712 80.8023 293.393 80.9159 293.279 81.1885C293.143 81.4611 293.257 81.7791 293.53 81.8927C298.489 84.3461 303.084 90.7748 303.107 90.843C303.221 90.9793 303.38 91.0701 303.539 91.0701C303.653 91.0701 303.744 91.0474 303.835 90.9793C304.085 90.8202 304.131 90.4795 303.971 90.2296C303.767 89.957 299.194 83.5056 293.985 80.9386Z" fill="black"/>
<path d="M291.846 85.1185C287.888 83.7328 281.518 89.2074 281.245 89.4346C281.018 89.639 280.995 89.9571 281.2 90.1842C281.382 90.4114 281.723 90.4341 281.951 90.2297C283.657 88.7531 288.707 85.1412 291.482 86.118C295.008 87.3447 299.717 92.5467 299.763 92.5922C299.877 92.7058 300.013 92.7739 300.15 92.7739C300.286 92.7739 300.4 92.7285 300.514 92.6376C300.741 92.4332 300.741 92.1151 300.559 91.888C300.354 91.6608 295.623 86.4587 291.824 85.1185H291.846Z" fill="black"/>
<path d="M104.918 268.145C102.257 263.215 82.7834 227.255 71.1132 207.969C65.5169 198.701 62.4003 195.044 59.6477 191.818C56.0989 187.661 53.0505 184.072 45.7709 170.192C33.8732 147.521 19.9508 123.351 17.6304 119.33L17.3119 118.739C16.3565 117.126 15.3328 115.423 14.2181 113.742C11.3289 109.289 8.07584 106.995 5.45971 105.132C1.93362 102.611 -0.204783 101.111 0.796171 96.2954C1.52414 92.8652 1.93362 89.753 2.2521 87.2315C2.72983 83.5742 3.11656 80.6665 4.07202 80.2803C4.84548 79.9623 5.6872 79.5307 6.64265 79.0309C8.18958 78.2131 9.94125 77.3044 11.9887 76.6457C12.6711 76.4412 13.2626 76.3276 13.8541 76.3276C14.8323 76.3276 15.6285 76.623 16.5384 76.9637C17.2664 77.2363 18.1081 77.5543 19.1091 77.7133C20.6788 77.9632 21.6342 78.8037 21.8845 79.5306C21.9754 79.7805 22.0209 80.1213 21.7707 80.3939C21.2702 80.9391 19.5868 81.189 18.1309 81.189H15.3555L17.8124 82.2793C17.8124 82.2793 21.8845 84.0285 24.1138 85.2098C26.366 86.4137 27.5944 88.0947 27.7309 88.3673C27.8674 88.6399 28.2314 90.0029 28.4361 90.8889C30.5063 94.0237 33.0997 99.1803 31.5983 100.498C31.3025 100.748 31.0295 100.884 30.7565 100.884C29.3689 100.884 27.9129 98.0218 27.5034 97.0223L27.3442 96.6134L26.8665 96.6815C25.638 96.6815 24.5688 95.6366 24.2503 95.2504L23.6589 94.5235L23.2949 95.3867C21.202 100.339 24.5233 104.246 32.3035 110.629C32.8722 111.106 33.3272 111.583 33.6457 112.129L33.8959 112.56H33.9869C36.3073 115.627 52.9368 137.776 69.8165 156.925C79.6213 168.056 82.1464 173.418 84.7853 179.097C87.0602 183.935 89.4034 188.933 96.4328 197.77C110.401 215.329 133.241 242.339 136.539 246.269L104.941 268.213L104.918 268.145Z" fill="white"/>
<path d="M13.8541 76.918C14.7413 76.918 15.4693 77.1906 16.3338 77.5314C17.0845 77.8267 17.9489 78.1447 18.9954 78.3037C20.3376 78.5082 21.1338 79.2124 21.3158 79.7349C21.3385 79.8257 21.384 79.962 21.3158 80.0302C21.0428 80.3255 19.7461 80.6435 18.0172 80.6435L12.1707 80.53L17.5394 82.8243C17.5394 82.8243 21.6115 84.5508 23.7954 85.732C25.8656 86.8451 27.0485 88.3898 27.1623 88.617C27.276 88.8669 27.5945 90.0481 27.822 91.0249L27.8675 91.2294L27.9812 91.3884C30.2789 94.7959 32.1215 99.2256 31.1661 100.066C30.9841 100.225 30.8248 100.293 30.6883 100.293C29.9149 100.293 28.6409 98.4532 27.9585 96.7949L27.6172 95.9771L26.73 96.0907C26.73 96.0907 26.639 96.0907 26.5935 96.0907C25.7973 96.0907 24.8646 95.1593 24.5916 94.8413L23.3859 93.3647L22.658 95.1139C20.4286 100.384 23.8409 104.45 31.8485 111.015C32.3718 111.447 32.7585 111.901 33.0542 112.356L33.6002 113.196L33.6912 113.151C36.8078 117.308 52.9368 138.661 69.2933 157.221C79.0526 168.306 81.555 173.622 84.1711 179.255C86.446 184.117 88.8119 189.16 95.8868 198.042C109.377 215.011 131.148 240.817 135.607 246.064L105.055 267.282C101.46 260.648 82.8517 226.324 71.5455 207.651C65.9037 198.337 62.7871 194.68 60.0117 191.431C56.4857 187.297 53.46 183.731 46.2031 169.919C34.7377 148.111 21.4295 124.872 18.3584 119.579H18.4039L17.7442 118.444C16.6295 116.581 15.6285 114.923 14.6503 113.423C11.7157 108.88 8.41712 106.54 5.75549 104.655C2.29765 102.201 0.386735 100.838 1.31944 96.386C2.04741 92.9331 2.45689 89.7982 2.77538 87.2994C3.11661 84.6643 3.59434 81.0751 4.23131 80.8025C5.05027 80.4845 5.91473 80.0075 6.84744 79.5304C8.37162 78.7354 10.1005 77.8267 12.1024 77.1906C12.7167 76.9862 13.2854 76.8953 13.8086 76.8953L13.8541 76.918ZM13.8541 75.7822C13.2626 75.7822 12.6029 75.8731 11.8067 76.123C8.48536 77.1679 5.89198 78.9398 3.84458 79.7803C1.79717 80.6208 2.1384 87.2086 0.250241 96.1816C-1.63792 105.155 7.07493 103.769 13.7404 114.059C14.8323 115.74 15.856 117.421 16.8115 119.057H16.7887C16.7887 119.057 32.1443 145.522 45.2477 170.487C58.3511 195.452 58.0098 187.433 70.6128 208.287C83.2384 229.141 104.713 268.985 104.713 268.985L137.335 246.337C137.335 246.337 111.993 216.465 96.8196 197.383C81.646 178.301 88.4707 177.279 70.1805 156.516C51.8904 135.754 34.1007 111.788 34.1007 111.788H34.0552C33.714 111.243 33.259 110.697 32.5993 110.175C24.7509 103.723 21.8162 100.111 23.7499 95.5909C23.7499 95.5909 25.0921 97.2492 26.639 97.2492C26.73 97.2492 26.821 97.2492 26.9348 97.2492C26.9348 97.2492 28.6409 101.474 30.7111 101.474C31.0978 101.474 31.5073 101.315 31.9395 100.952C34.3509 98.8167 28.9367 90.7978 28.9367 90.7978C28.9367 90.7978 28.4134 88.617 28.186 88.1627C27.9585 87.7083 26.5935 85.9819 24.3414 84.7779C22.0665 83.574 17.9944 81.8475 17.9944 81.8475C17.9944 81.8475 18.0399 81.8475 18.1082 81.8475C18.6769 81.8475 21.3158 81.8021 22.1802 80.8707C23.1357 79.8257 21.9982 77.7131 19.2001 77.2588C17.0617 76.918 15.8105 75.8504 13.8541 75.8504V75.7822Z" fill="black"/>
<path d="M7.68912 84.3236L7.57538 83.8238L8.05311 83.6875C8.05311 83.6875 10.3962 83.0287 13.2626 80.4391L13.4674 80.2573L13.7403 80.3255C13.7403 80.3255 17.0844 81.0978 18.4494 81.325C18.7451 81.3704 18.9271 81.643 18.8816 81.9383C18.8361 82.2336 18.5631 82.4154 18.2674 82.3699C17.0844 82.1655 14.5821 81.5976 13.7631 81.4159C11.5337 83.3922 9.64553 84.2327 8.80382 84.5507C9.23605 87.1177 8.37159 88.5715 8.32609 88.6397C8.2351 88.7987 8.05311 88.8896 7.87112 88.8896C7.78012 88.8896 7.68912 88.8668 7.59813 88.8214C7.34789 88.6624 7.25689 88.3444 7.41614 88.0945C7.41614 88.0945 8.1896 86.7542 7.66637 84.3236H7.68912Z" fill="black"/>
<path d="M18.0627 91.57C19.4731 90.1161 22.4305 87.8672 24.1821 88.0035C25.7291 88.1171 28.8912 90.0707 29.2324 90.2978C29.4826 90.4568 29.5509 90.7749 29.3916 91.0248C29.2324 91.2746 28.9139 91.3428 28.6637 91.1838C27.7537 90.6159 25.1831 89.1393 24.0911 89.0484C22.9309 88.9348 20.4058 90.6386 18.8134 92.2969C17.1072 94.046 15.5603 96.6811 15.5375 96.7039C15.4465 96.8629 15.2645 96.9764 15.0825 96.9764C14.9915 96.9764 14.9005 96.9765 14.8096 96.9083C14.5593 96.772 14.4683 96.4313 14.6276 96.1814C14.6958 96.0678 16.2655 93.41 18.0627 91.57Z" fill="black"/>
<path d="M15.9925 80.9386C16.2428 80.8023 16.584 80.9159 16.6977 81.1885C16.8342 81.4611 16.7205 81.7791 16.4475 81.8927C11.4882 84.3461 6.89294 90.7748 6.87019 90.843C6.75645 90.9793 6.59721 91.0701 6.43796 91.0701C6.32422 91.0701 6.23322 91.0474 6.14223 90.9793C5.89199 90.8202 5.84649 90.4795 6.00573 90.2296C6.21047 89.957 10.783 83.5056 15.9925 80.9386Z" fill="black"/>
<path d="M18.1537 85.1185C22.112 83.7328 28.4817 89.2074 28.7547 89.4346C28.9822 89.639 29.005 89.9571 28.8002 90.1842C28.5955 90.4114 28.277 90.4341 28.0495 90.2297C26.3433 88.7531 21.2931 85.1412 18.5177 86.118C14.9916 87.3447 10.2826 92.5467 10.2371 92.5922C10.1233 92.7058 9.98683 92.7739 9.85033 92.7739C9.71384 92.7739 9.60009 92.7285 9.48635 92.6376C9.25886 92.4332 9.25886 92.1151 9.44085 91.888C9.64559 91.6608 14.3774 86.4587 18.1764 85.1185H18.1537Z" fill="black"/>
<path d="M201.692 185.548C198.78 159.788 180.9 156.04 169.98 149.361C161.085 143.932 144.661 139.638 130.329 159.651C122.64 170.396 108.49 176.961 108.49 187.297C108.49 197.633 82.3512 192.204 82.3512 192.204C99.2992 219.736 130.01 233.752 151.94 233.752C173.87 233.752 157.741 238.841 185.017 238.841C212.293 238.841 223.69 189.115 223.69 189.115C209.905 198.815 203.489 201.268 201.715 185.548H201.692Z" fill="black"/>
<path d="M223.258 188.524C216.752 193.09 211.747 196.157 208.426 196.157C206.197 196.157 203.512 194.953 202.42 185.48C199.986 163.922 187.065 157.402 176.691 152.155C174.416 150.996 172.278 149.929 170.344 148.747C166.886 146.635 161.358 144.113 154.761 144.113C145.32 144.113 136.903 149.202 129.737 159.242C126.894 163.24 123.117 166.625 119.5 169.919C113.472 175.394 107.785 180.55 107.785 187.297C107.785 189.296 106.647 190.727 104.327 191.681C102.325 192.499 99.4812 192.908 95.9096 192.908C89.3807 192.908 82.6015 191.522 82.5332 191.5C82.2602 191.432 81.9645 191.568 81.7825 191.795C81.6233 192.045 81.6005 192.34 81.7825 192.59C98.7305 220.1 129.919 234.502 151.986 234.502C162.155 234.502 163.929 235.592 165.794 236.728C168.092 238.136 170.458 239.59 185.04 239.59C212.566 239.59 223.941 191.341 224.418 189.296C224.487 189.001 224.373 188.706 224.123 188.524C223.872 188.365 223.554 188.365 223.304 188.524H223.258ZM185.017 238.114C170.845 238.114 168.661 236.773 166.522 235.456C164.452 234.207 162.519 233.003 151.94 233.003C130.647 233.003 100.687 219.327 83.8527 193.181C86.3096 193.612 91.1551 194.317 95.8869 194.317C99.6632 194.317 102.689 193.862 104.85 192.976C107.739 191.795 109.218 189.887 109.218 187.252C109.218 181.141 114.678 176.189 120.478 170.964C124.164 167.625 127.986 164.172 130.92 160.06C137.813 150.428 145.821 145.544 154.761 145.544C161.017 145.544 166.272 147.952 169.593 149.974C171.573 151.178 173.734 152.291 176.031 153.45C186.61 158.811 198.598 164.853 200.964 185.639C201.897 193.908 204.195 197.61 208.403 197.61C211.816 197.61 216.365 195.043 222.462 190.841C220.051 199.859 208.358 238.114 184.995 238.114H185.017Z" fill="black"/>
<path d="M68.7928 171.986C68.4061 172.054 68.1331 172.44 68.2013 172.827C68.2013 172.895 69.2023 179.074 67.4734 182.572C67.2914 182.935 67.4506 183.367 67.7918 183.549C67.9056 183.594 67.9966 183.617 68.1103 183.617C68.3833 183.617 68.6336 183.481 68.77 183.208C70.7265 179.301 69.68 172.849 69.6345 172.577C69.5663 172.191 69.2023 171.918 68.7928 171.986Z" fill="black"/>
<path d="M155.853 151.246C136.653 151.246 125.688 167.806 125.688 188.228C125.688 208.65 141.408 219.463 155.853 219.463C170.299 219.463 186.018 208.65 186.018 188.228C186.018 167.806 175.03 151.246 155.853 151.246Z" fill="white"/>
<path d="M155.853 150.519C137.381 150.519 124.96 165.671 124.96 188.228C124.96 208.991 140.884 220.19 155.853 220.19C170.822 220.19 186.769 208.991 186.769 188.228C186.769 165.671 174.348 150.519 155.853 150.519ZM155.853 218.736C141.589 218.736 126.416 208.037 126.416 188.228C126.416 166.534 138.245 151.973 155.853 151.973C173.461 151.973 185.29 166.557 185.29 188.228C185.29 208.037 170.117 218.736 155.853 218.736Z" fill="black"/>
<path d="M173.87 203.471C170.936 203.812 168.092 202.744 165.066 201.631C162.177 200.563 159.174 199.45 155.83 199.45C152.486 199.45 149.825 200.563 147.095 201.654C144.388 202.721 141.817 203.766 139.11 203.585C138.7 203.539 138.359 203.857 138.336 204.266C138.314 204.675 138.609 205.016 139.019 205.038C139.246 205.038 139.474 205.038 139.679 205.038C142.454 205.038 145.093 203.993 147.618 202.994C150.211 201.972 152.896 200.904 155.808 200.904C158.901 200.904 161.768 201.972 164.543 202.994C167.728 204.175 170.754 205.288 174.007 204.925C174.416 204.879 174.689 204.516 174.667 204.13C174.621 203.721 174.257 203.426 173.87 203.494V203.471Z" fill="black"/>
<path d="M156.422 181.709C151.827 181.709 147.595 183.912 147.595 184.185C147.595 190.614 151.281 195.816 155.853 195.816C160.426 195.816 164.111 190.614 164.111 184.185C164.111 183.912 164.111 183.663 164.088 183.413C164.088 183.413 160.562 181.709 156.445 181.709H156.422Z" fill="black"/>
<path d="M164.793 183.39C164.793 183.117 164.611 182.89 164.384 182.754C164.225 182.686 160.653 180.982 156.422 180.982C152.577 180.982 146.844 182.89 146.844 184.185C146.844 191 150.871 196.543 155.83 196.543C160.79 196.543 164.816 191 164.816 184.185C164.816 183.981 164.816 183.776 164.816 183.549V183.367L164.793 183.39ZM155.83 195.112C151.758 195.112 148.437 190.409 148.3 184.548C149.188 184.026 152.623 182.459 156.399 182.459C159.516 182.459 162.337 183.503 163.337 183.912C163.337 184.003 163.337 184.117 163.337 184.208C163.337 190.228 159.971 195.112 155.808 195.112H155.83Z" fill="black"/>
<path d="M156.422 181.709C151.827 181.709 147.595 183.912 147.595 184.185C147.595 184.889 147.641 185.593 147.732 186.252C150.12 184.866 153.055 185.253 156.49 185.253C159.379 185.253 161.882 184.639 164.043 185.616C164.088 185.139 164.111 184.662 164.111 184.162C164.111 183.89 164.111 183.64 164.111 183.39C164.111 183.39 160.585 181.686 156.467 181.686L156.422 181.709Z" fill="white"/>
<path d="M164.384 182.754C164.225 182.686 160.653 180.982 156.422 180.982C152.577 180.982 146.844 182.89 146.844 184.185C146.844 184.866 146.89 185.593 146.981 186.343C147.004 186.593 147.163 186.797 147.368 186.911C147.459 186.956 147.572 186.979 147.686 186.979C147.823 186.979 147.936 186.956 148.05 186.888C149.779 185.889 151.963 185.911 154.602 185.957C155.99 185.98 157.514 185.957 158.901 185.866C159.607 185.821 160.266 185.775 160.926 185.775C162.109 185.775 162.951 185.934 163.701 186.275C163.929 186.366 164.156 186.366 164.384 186.252C164.589 186.139 164.725 185.911 164.748 185.684C164.793 185.184 164.816 184.685 164.816 184.185C164.816 183.958 164.816 183.731 164.793 183.367C164.793 183.095 164.611 182.867 164.384 182.731V182.754ZM163.36 184.617C162.155 184.299 160.585 184.321 158.833 184.435C157.514 184.526 156.035 184.526 154.67 184.526C152.236 184.48 150.143 184.458 148.346 185.184C148.346 184.957 148.323 184.753 148.323 184.548C149.21 184.026 152.645 182.459 156.422 182.459C159.538 182.459 162.359 183.503 163.36 183.912C163.36 184.003 163.36 184.117 163.36 184.208C163.36 184.344 163.36 184.503 163.36 184.639V184.617Z" fill="black"/>
<path d="M206.447 282.82H104.986C104.85 276.959 103.826 279.14 103.894 262.761C103.963 251.948 109.172 209.582 109.172 209.582C124.96 224.257 132.444 233.071 141.567 235.842C144.479 236.728 150.871 238.386 155.717 239.613C160.562 238.386 166.932 236.728 169.866 235.842C178.989 233.071 186.45 224.257 202.238 209.582C202.238 209.582 207.47 251.948 207.516 262.761C207.607 279.14 206.583 276.959 206.447 282.82Z" fill="#F98C0B"/>
<path d="M171.027 213.171H140.839C140.839 213.171 144.479 227.028 139.701 234.956C139.701 234.956 148.824 240.272 155.717 240.385H155.944C162.86 240.272 171.959 234.956 171.959 234.956C167.182 227.005 171.004 213.171 171.004 213.171H171.027Z" fill="white"/>
<path d="M171.345 215.011C171.436 214.625 171.163 214.239 170.776 214.148C170.367 214.057 170.003 214.307 169.912 214.716C169.07 218.623 167.569 228.209 170.981 234.684C168.82 235.865 161.563 239.568 155.944 239.681H155.717C150.098 239.59 142.841 235.865 140.68 234.684C143.91 228.596 142.909 219.873 141.999 215.125C141.931 214.739 141.567 214.466 141.135 214.557C140.748 214.625 140.475 215.011 140.566 215.42C141.294 219.237 142.613 228.709 139.064 234.616C138.973 234.775 138.928 234.979 138.973 235.161C139.019 235.342 139.155 235.501 139.315 235.615C139.701 235.842 148.687 241.022 155.694 241.158H155.944C162.951 241.044 171.937 235.842 172.323 235.615C172.483 235.524 172.619 235.365 172.665 235.161C172.71 234.979 172.665 234.775 172.574 234.616C168.957 228.596 170.481 218.918 171.3 215.034L171.345 215.011Z" fill="black"/>
<path d="M184.835 183.617L182.856 197.724C182.856 197.724 182.788 203.131 187.77 200.745C192.752 198.36 193.002 180.323 184.835 183.617Z" fill="white"/>
<path d="M184.562 182.936C184.198 183.095 184.016 183.504 184.153 183.89C184.312 184.276 184.744 184.435 185.108 184.299C187.201 183.458 188.68 184.117 189.658 186.32C191.569 190.637 190.272 198.746 187.474 200.087C186.223 200.677 185.29 200.791 184.676 200.405C183.789 199.837 183.607 198.292 183.607 197.724C183.607 197.315 183.288 196.997 182.879 196.997C182.469 196.997 182.151 197.315 182.151 197.724C182.151 197.838 182.151 200.518 183.88 201.631C184.358 201.927 184.926 202.086 185.54 202.086C186.291 202.086 187.156 201.859 188.111 201.404C191.956 199.564 193.116 190.478 191 185.73C189.726 182.845 187.383 181.823 184.585 182.936H184.562Z" fill="black"/>
<path d="M123.845 200.745C128.827 203.13 128.759 197.724 128.759 197.724L126.78 183.617C118.59 180.323 118.863 198.36 123.845 200.745Z" fill="white"/>
<path d="M128.759 196.997C128.35 196.997 128.031 197.338 128.031 197.724C128.031 198.269 127.849 199.836 126.962 200.382C126.348 200.768 125.392 200.677 124.164 200.086C121.343 198.723 120.069 190.614 121.957 186.32C122.935 184.117 124.414 183.458 126.507 184.298C126.894 184.435 127.303 184.276 127.462 183.889C127.622 183.526 127.44 183.094 127.053 182.935C124.255 181.822 121.912 182.822 120.638 185.729C118.545 190.477 119.705 199.564 123.527 201.404C124.482 201.858 125.324 202.085 126.097 202.085C126.712 202.085 127.28 201.926 127.758 201.608C129.51 200.495 129.51 197.815 129.51 197.701C129.51 197.292 129.169 196.974 128.782 196.974L128.759 196.997Z" fill="black"/>
<path d="M178.033 170.35C176.395 169.76 173.779 167.693 171.664 166.057C170.776 165.353 169.957 164.717 169.32 164.262C168.479 163.672 167.728 163.536 167.068 163.831C165.931 164.353 165.749 166.012 165.726 166.193C165.681 166.602 165.999 166.943 166.386 166.988C166.773 167.034 167.137 166.739 167.182 166.33C167.228 165.921 167.41 165.285 167.683 165.148C167.819 165.08 168.138 165.194 168.479 165.444C169.093 165.898 169.889 166.511 170.776 167.193C173.074 168.987 175.69 171.032 177.533 171.713C177.624 171.736 177.692 171.759 177.783 171.759C178.079 171.759 178.352 171.577 178.466 171.282C178.602 170.896 178.42 170.487 178.033 170.35Z" fill="black"/>
<path d="M168.706 172.168C168.388 172.418 168.32 172.849 168.547 173.167C168.775 173.486 169.23 173.576 169.548 173.349C169.935 173.077 170.936 173.054 172.164 174.644C172.301 174.826 172.528 174.917 172.733 174.917C172.892 174.917 173.051 174.871 173.188 174.758C173.506 174.508 173.552 174.053 173.324 173.735C170.867 170.601 168.706 172.145 168.684 172.168H168.706Z" fill="black"/>
<path d="M146.139 163.854C145.48 163.558 144.729 163.695 143.887 164.285C143.25 164.74 142.431 165.376 141.544 166.057C139.428 167.716 136.812 169.76 135.174 170.351C134.788 170.487 134.606 170.919 134.742 171.282C134.856 171.577 135.129 171.759 135.425 171.759C135.516 171.759 135.607 171.759 135.675 171.714C137.517 171.032 140.134 168.988 142.431 167.193C143.296 166.512 144.092 165.898 144.706 165.467C145.047 165.217 145.366 165.103 145.502 165.171C145.753 165.285 145.957 165.944 146.003 166.353C146.048 166.761 146.39 167.057 146.799 167.011C147.186 166.966 147.504 166.625 147.459 166.216C147.459 166.035 147.277 164.376 146.117 163.854H146.139Z" fill="black"/>
<path d="M139.861 173.758C139.61 174.076 139.679 174.53 139.997 174.78C140.134 174.871 140.293 174.939 140.452 174.939C140.68 174.939 140.884 174.849 141.021 174.667C142.249 173.099 143.25 173.122 143.637 173.372C143.955 173.599 144.41 173.531 144.638 173.213C144.888 172.895 144.82 172.441 144.501 172.191C144.479 172.191 142.318 170.623 139.861 173.758Z" fill="black"/>
<path d="M155.921 173.099C153.578 173.099 152.304 175.553 152.259 175.666C152.077 176.03 152.213 176.461 152.577 176.643C152.691 176.688 152.782 176.734 152.896 176.734C153.169 176.734 153.419 176.597 153.555 176.348C153.555 176.348 154.488 174.576 155.921 174.576C157.354 174.576 158.105 176.279 158.105 176.302C158.264 176.666 158.697 176.825 159.061 176.666C159.425 176.507 159.607 176.075 159.447 175.712C159.402 175.598 158.287 173.122 155.921 173.122V173.099Z" fill="black"/>
<path d="M169.434 144.045C153.646 138.23 137.04 145.09 127.189 159.061C117.316 173.031 129.555 189.478 129.555 189.478C129.555 189.478 128.486 183.14 132.331 176.893C132.331 176.893 127.917 174.394 131.603 165.421C131.603 165.421 131.648 172.554 135.47 175.053C135.47 175.053 136.448 160.219 146.913 160.946C146.913 160.946 146.026 155.517 153.988 154.336C153.988 154.336 156.331 147.203 160.448 152.95C164.566 158.674 161.313 159.924 165.84 163.059C165.84 163.059 171.982 161.559 175.372 166.989C175.372 166.989 177.874 162.423 174.78 158.606C174.78 158.606 181.901 165.035 179.398 171.645C179.398 171.645 185.313 177.347 185.313 186.479C185.313 186.479 189.726 180.437 188.771 170.419C187.793 160.219 185.518 149.974 169.457 144.045H169.434Z" fill="black"/>
<path d="M243.186 172.827C243.255 172.44 242.982 172.054 242.595 171.986C242.208 171.918 241.821 172.191 241.753 172.577C241.708 172.849 240.661 179.301 242.618 183.208C242.754 183.458 243.004 183.617 243.277 183.617C243.391 183.617 243.505 183.617 243.596 183.549C243.96 183.367 244.096 182.935 243.914 182.572C242.163 179.074 243.164 172.895 243.164 172.827H243.186Z" fill="black"/>
<path d="M169.821 1.7492C149.643 -4.27065 127.735 5.70185 119.045 24.8745C112.016 40.3898 115.087 57.5861 125.096 69.6258C125.096 69.6258 125.187 69.7167 125.324 69.8984C125.46 70.0574 125.574 70.2164 125.711 70.3527C129.032 74.3281 144.888 93.9324 145.002 107.062C144.82 114.763 151.053 121.056 158.765 120.988H160.585C168.456 120.897 174.644 114.195 174.052 106.336V106.199C173.893 91.5017 191.865 67.7176 191.865 67.7176C194.162 64.6055 196.096 61.1526 197.529 57.359C206.128 34.4835 193.685 8.85943 169.844 1.7492H169.821Z" fill="#D7EEEA"/>
<path d="M141.703 94.7045C143.66 98.9979 144.979 103.291 145.025 107.062C144.843 114.763 151.076 121.056 158.788 120.987H160.608C168.479 120.897 174.666 114.195 174.075 106.335V106.199C174.03 102.633 175.076 98.5209 176.646 94.3638L141.703 94.7045Z" fill="black"/>
<path d="M166.249 70.8523C167.933 69.4893 168.934 67.3994 168.911 65.2868C168.911 63.3559 167.66 61.4704 166.249 61.2887C165.794 61.2206 164.68 61.2887 164.157 63.0833C163.815 64.2418 163.292 67.3767 163.11 71.3748C162.405 71.5111 161.677 71.4884 160.926 71.3294C160.13 71.1476 159.47 70.6479 158.993 69.8301C161.927 67.1268 162.018 64.9233 161.745 63.7648C161.427 62.3109 160.357 61.4932 159.47 61.3114C158.765 61.1751 158.128 61.4477 157.764 62.0156C157.059 63.0833 156.786 66.9451 157.81 69.4893C157.81 69.5348 157.855 69.5802 157.878 69.6256C157.559 69.8982 157.195 70.1935 156.786 70.4661C155.83 71.1476 154.966 71.6247 154.215 71.8746C153.601 68.1718 152.623 65.2868 152.077 63.8102C151.918 63.4013 151.463 62.1974 150.621 62.1974C150.052 62.1974 149.62 62.7426 149.301 63.7648C148.642 65.9456 148.665 70.6933 151.053 72.3743C151.758 72.8741 152.555 73.0558 153.487 72.9422C154.352 78.8939 154.238 86.7765 150.211 94.3638C150.098 94.591 150.189 94.8636 150.393 94.9771C150.621 95.0907 150.894 94.9999 151.008 94.7954C155.148 86.981 155.262 78.8712 154.374 72.7605C155.284 72.4879 156.263 71.9654 157.355 71.1931C157.719 70.9432 158.037 70.6933 158.333 70.4434C158.947 71.3975 159.766 72.0109 160.767 72.238C161.54 72.4197 162.337 72.4425 163.11 72.3289C162.837 79.5754 163.611 89.2526 167.887 95.5678C167.978 95.7041 168.115 95.7722 168.274 95.7722C168.365 95.7722 168.456 95.7495 168.524 95.7041C168.729 95.5678 168.797 95.2724 168.638 95.068C164.43 88.8437 163.724 79.2347 164.02 72.1472C164.839 71.8973 165.612 71.4884 166.295 70.9205L166.249 70.8523ZM165.021 63.3105C165.18 62.7653 165.476 62.1519 166.022 62.1519C166.067 62.1519 166.09 62.1519 166.136 62.1519C167 62.2655 168.001 63.6512 168.001 65.2641C168.001 67.1041 167.137 68.9214 165.658 70.1254C165.135 70.5343 164.589 70.875 163.997 71.0795C164.202 67.3313 164.68 64.4009 165.021 63.2878V63.3105ZM151.713 71.7383C150.098 70.8069 149.597 67.8765 149.825 65.5367C149.984 63.9465 150.393 63.1515 150.575 63.0833C150.575 63.0833 150.826 63.1742 151.19 64.1055C151.736 65.5594 152.691 68.3989 153.305 72.0336C152.691 72.1017 152.191 71.9881 151.736 71.7383H151.713ZM158.56 68.9441C157.65 66.5135 158.037 63.1969 158.492 62.4927C158.651 62.2428 158.879 62.1747 159.084 62.1747C159.152 62.1747 159.22 62.1747 159.266 62.1747C159.834 62.2882 160.585 62.8789 160.812 63.9238C160.994 64.6962 161.04 66.5362 158.538 68.9214L158.56 68.9441Z" fill="black"/>
<path d="M227.012 20.4447L206.925 27.4641C206.697 27.555 206.561 27.8048 206.652 28.032C206.72 28.2137 206.902 28.3273 207.084 28.3273C207.129 28.3273 207.175 28.3273 207.22 28.3046L227.308 21.2852C227.535 21.1944 227.672 20.9445 227.581 20.6946C227.49 20.4674 227.239 20.3312 227.012 20.422V20.4447Z" fill="black"/>
<path d="M221.689 53.8605L207.379 52.0886C207.129 52.0659 206.902 52.2249 206.879 52.4748C206.856 52.7246 207.038 52.9518 207.266 52.9745L221.575 54.7464C221.575 54.7464 221.62 54.7464 221.643 54.7464C221.871 54.7464 222.053 54.5874 222.098 54.3375C222.121 54.0876 221.962 53.8605 221.711 53.8377L221.689 53.8605Z" fill="black"/>
<path d="M226.83 66.3092L203.08 54.4513C202.852 54.3377 202.579 54.4513 202.466 54.6557C202.352 54.8829 202.466 55.1555 202.67 55.269L226.42 67.127C226.42 67.127 226.557 67.1724 226.625 67.1724C226.784 67.1724 226.944 67.0816 227.035 66.9226C227.148 66.6954 227.035 66.4228 226.83 66.3092Z" fill="black"/>
<path d="M220.892 34.5063C217.525 34.0746 213.908 34.7789 213.431 37.3231C213.271 38.0955 213.317 38.8224 213.453 39.4811C211.816 40.4125 210.405 41.6165 210.132 41.8437C209.95 42.0027 209.927 42.298 210.087 42.4797C210.246 42.6614 210.542 42.6842 210.724 42.5251C211.338 42.0027 212.498 41.094 213.726 40.3671C214.159 41.3439 214.864 42.0935 215.569 42.5479C216.161 42.934 216.798 43.1385 217.344 43.1158C217.73 43.1158 218.071 43.0022 218.344 42.8205C218.731 42.5479 219.3 41.8664 218.936 40.2989C218.663 39.1177 217.98 38.6634 217.457 38.5043C216.547 38.209 215.41 38.5043 214.272 39.0495C214.181 38.5725 214.181 38.05 214.295 37.5048C214.659 35.5512 217.889 35.0515 220.733 35.4149C225.055 35.9828 229.287 38.3453 229.036 41.7755C229.036 42.0254 229.218 42.2526 229.469 42.2526C229.719 42.2526 229.946 42.0708 229.946 41.8209C230.242 37.8229 225.579 35.0969 220.847 34.4835L220.892 34.5063ZM217.207 39.3676C217.639 39.5039 217.935 39.89 218.071 40.5034C218.253 41.2757 218.185 41.8437 217.844 42.0708C217.457 42.3434 216.752 42.2071 216.07 41.7755C215.501 41.412 214.887 40.776 214.545 39.9355C215.546 39.4357 216.525 39.1631 217.184 39.3676H217.207Z" fill="black"/>
<path d="M111.811 32.0074L91.6101 25.3515C91.3598 25.2834 91.1096 25.3969 91.0414 25.6468C90.9731 25.874 91.0869 26.1466 91.3371 26.2147L111.538 32.8706C111.538 32.8706 111.629 32.8706 111.675 32.8706C111.857 32.8706 112.039 32.7571 112.107 32.5526C112.198 32.3027 112.061 32.0528 111.811 31.9847V32.0074Z" fill="black"/>
<path d="M111.834 56.6095L97.5475 58.654C97.2973 58.6994 97.1153 58.9266 97.1608 59.1765C97.1836 59.4036 97.3883 59.5627 97.6158 59.5627C97.6158 59.5627 97.6613 59.5627 97.684 59.5627L111.97 57.5182C112.221 57.4727 112.403 57.2456 112.357 56.9957C112.312 56.7458 112.107 56.5641 111.834 56.6095Z" fill="black"/>
<path d="M116.179 58.9263L92.6566 71.2385C92.4291 71.3521 92.3608 71.6247 92.4746 71.8519C92.5656 72.0109 92.7248 72.1018 92.884 72.1018C92.9523 72.1018 93.0205 72.1018 93.0888 72.0563L116.611 59.744C116.839 59.6305 116.93 59.3579 116.793 59.1307C116.679 58.9035 116.406 58.8354 116.179 58.949V58.9263Z" fill="black"/>
<path d="M105.51 44.1382C105.646 43.4794 105.669 42.7752 105.51 41.9801C104.986 39.4359 101.347 38.7998 98.0025 39.2996C93.2708 40.0038 88.6755 42.7979 89.0394 46.8187C89.0622 47.0686 89.2897 47.2731 89.5399 47.2276C89.7902 47.2276 89.9722 46.9777 89.9494 46.7279C89.6309 43.2977 93.8395 40.8443 98.139 40.2083C100.96 39.7994 104.213 40.2082 104.622 42.1846C104.736 42.7298 104.736 43.2522 104.668 43.7293C103.531 43.2295 102.37 42.9342 101.483 43.2522C100.96 43.434 100.3 43.8883 100.05 45.0696C99.7087 46.6597 100.3 47.3185 100.687 47.5684C100.983 47.7728 101.324 47.8637 101.711 47.8637C102.257 47.8637 102.871 47.6592 103.462 47.2503C104.145 46.796 104.85 46.0236 105.259 45.0468C106.511 45.7511 107.694 46.637 108.308 47.1368C108.49 47.2958 108.786 47.273 108.945 47.0686C109.104 46.8869 109.081 46.5916 108.899 46.4325C108.626 46.2054 107.193 45.0241 105.532 44.1382H105.51ZM102.939 46.478C102.257 46.9323 101.551 47.0686 101.187 46.796C100.846 46.5688 100.755 46.0236 100.937 45.2286C101.074 44.5925 101.347 44.2291 101.779 44.07C101.938 44.0246 102.12 43.9792 102.302 43.9792C102.916 43.9792 103.667 44.2063 104.418 44.5698C104.077 45.4103 103.508 46.0691 102.939 46.4553V46.478Z" fill="black"/>
</g>
<defs>
<clipPath id="clip0_10_2026">
<rect width="310" height="285" fill="white"/>
</clipPath>
</defs>
</svg>
