<svg width="310" height="229" viewBox="0 0 310 229" fill="none" xmlns="http://www.w3.org/2000/svg">
<g clip-path="url(#clip0_10_3507)">
<path d="M111.764 228.357L124.846 142.187C125.565 137.431 129.566 133.986 134.363 133.986H136.569L137.262 129.333C134.722 129.127 132.362 127.945 130.695 125.991C128.874 123.857 128.053 121.03 128.489 118.253L130.669 103.831C132.465 92.0576 142.392 83.4971 154.269 83.4971H281.27C288.247 83.4971 294.84 86.5305 299.38 91.8262C303.921 97.1219 305.921 104.114 304.87 111.03L287.067 228.357H111.764Z" fill="#366A48"/>
<path d="M281.27 84.1397C295.481 84.1397 306.383 96.8391 304.254 110.927L286.529 227.689H112.508L125.488 142.264C126.155 137.868 129.926 134.603 134.363 134.603H137.134L138.006 128.716C132.491 128.716 128.284 123.806 129.13 118.356L131.311 103.934C133.029 92.5459 142.803 84.1397 154.295 84.1397H281.296H281.27ZM281.27 82.8543H154.269C142.059 82.8543 131.875 91.6462 130.028 103.729L127.848 118.15C127.386 121.132 128.258 124.14 130.208 126.402C131.849 128.305 134.081 129.539 136.544 129.873L136.031 133.318H134.363C129.259 133.318 124.975 136.994 124.205 142.058L111.225 227.483L110.995 228.948H287.58L287.734 227.869L305.46 111.107C306.537 104.011 304.485 96.839 299.816 91.3891C295.148 85.9392 288.376 82.8286 281.219 82.8286L281.27 82.8543Z" fill="#08000A"/>
<path d="M182.434 103.215C173.354 106.145 168.89 107.739 162.247 111.724C147.497 120.516 139.083 147.791 126.796 174.809L69.8494 188.64C69.8494 188.64 75.621 205.889 70.1572 222.291C70.1572 222.291 134.44 230.466 151.704 219.591C171.096 207.38 184.23 161.262 187.18 156.583C198.261 138.999 196.851 98.5618 182.46 103.215H182.434Z" fill="#F98C0B"/>
<path d="M193.08 102.88C191.464 102.88 190.232 102.726 189.565 102.623C190.335 95.5024 186.949 86.5306 186.205 84.7054L201.904 61.7231C206.521 75.3994 214.832 89.4098 216.397 91.9805C207.599 101.441 198.03 102.88 193.08 102.88Z" fill="white"/>
<path d="M201.699 63.1372C206.188 75.8623 213.575 88.5616 215.576 91.9036C207.034 100.875 197.851 102.238 193.054 102.238C191.874 102.238 190.899 102.161 190.232 102.084C190.745 95.2712 187.821 87.1477 186.898 84.7827L201.699 63.1372ZM202.083 60.2837L185.461 84.6027C185.461 84.6027 189.976 95.3226 188.822 103.138C188.822 103.138 190.412 103.523 193.054 103.523C198.467 103.523 208.214 101.929 217.167 92.0578C217.167 92.0578 207.06 75.8109 202.083 60.2837Z" fill="black"/>
<path d="M160.579 227.663C161.939 221.596 170.506 182.213 167.864 157.251C166.325 142.804 173.713 125.631 179.1 113.086C182.203 105.862 184.64 100.181 184.64 96.9163C184.64 93.6515 185.256 93.0088 185.512 93.0088C185.615 93.0088 185.743 93.086 185.769 93.1117L185.974 93.2659H186.256C187.257 93.086 210.035 89.3841 217.808 83.2915C219.219 85.1167 223.913 91.0294 226.555 93.3687C266.392 128.768 264.314 219.308 264.058 227.663H160.579Z" fill="white"/>
<path d="M217.68 84.1656C219.424 86.4021 223.657 91.6464 226.119 93.8315C264.93 128.305 263.75 215.607 263.417 226.995H161.374C163.17 218.871 171.045 181.313 168.48 157.148C166.966 142.881 174.328 125.786 179.69 113.318C182.819 106.042 185.282 100.284 185.282 96.8906C185.282 95.0654 185.487 94.1914 185.641 93.8058L185.795 93.9343L186.359 93.8572C187.334 93.7029 209.343 90.1296 217.68 84.1913V84.1656ZM217.911 82.366C210.779 88.6386 186.154 92.5718 186.154 92.5718C186.154 92.5718 185.872 92.3404 185.513 92.3404C184.871 92.3404 183.999 93.0345 183.999 96.8906C183.999 105.657 164.812 134.577 167.197 157.303C170.07 184.475 159.758 228.28 159.758 228.28H264.648C264.648 228.28 269.265 130.439 226.966 92.8546C223.913 90.1296 217.885 82.3403 217.885 82.3403L217.911 82.366Z" fill="black"/>
<mask id="mask0_10_3507" style="mask-type:luminance" maskUnits="userSpaceOnUse" x="159" y="82" width="106" height="147">
<path d="M186.154 92.572C186.154 92.572 210.754 88.6388 217.911 82.3662C217.911 82.3662 223.939 90.1812 226.991 92.8805C269.291 130.464 264.673 228.306 264.673 228.306H159.784C159.784 228.306 170.096 184.501 167.223 157.328C164.812 134.603 184.025 105.683 184.025 96.9165C184.025 90.8753 186.179 92.5977 186.179 92.5977L186.154 92.572Z" fill="white"/>
</mask>
<g mask="url(#mask0_10_3507)">
<path d="M269.47 208.691H150.498V224.45H269.47V208.691Z" fill="#D7EEEA"/>
<path d="M268.829 209.334V223.807H151.139V209.334H268.829ZM270.112 208.049H149.857V225.093H270.112V208.049Z" fill="#08000A"/>
<path d="M269.47 187.714H150.498V203.473H269.47V187.714Z" fill="#D7EEEA"/>
<path d="M268.829 188.357V202.83H151.139V188.357H268.829ZM270.112 187.072H149.857V204.116H270.112V187.072Z" fill="#08000A"/>
<path d="M269.47 166.737H150.498V182.496H269.47V166.737Z" fill="#D7EEEA"/>
<path d="M268.829 167.38V181.853H151.139V167.38H268.829ZM270.112 166.095H149.857V183.139H270.112V166.095Z" fill="#08000A"/>
<path d="M269.47 145.786H150.498V161.545H269.47V145.786Z" fill="#D7EEEA"/>
<path d="M268.829 146.429V160.902H151.139V146.429H268.829ZM270.112 145.144H149.857V162.187H270.112V145.144Z" fill="#08000A"/>
<path d="M269.47 124.809H150.498V140.568H269.47V124.809Z" fill="#D7EEEA"/>
<path d="M268.829 125.452V139.925H151.139V125.452H268.829ZM270.112 124.167H149.857V141.21H270.112V124.167Z" fill="#08000A"/>
<path d="M269.47 103.857H150.498V119.616H269.47V103.857Z" fill="#D7EEEA"/>
<path d="M268.829 104.5V118.973H151.139V104.5H268.829ZM270.112 103.215H149.857V120.259H270.112V103.215Z" fill="#08000A"/>
<path d="M269.47 82.8804H150.498V98.6389H269.47V82.8804Z" fill="#D7EEEA"/>
<path d="M268.829 83.5232V97.9963H151.139V83.5232H268.829ZM270.112 82.2378H149.857V99.2817H270.112V82.2378Z" fill="#08000A"/>
</g>
<path d="M224.914 179.359C219.501 195.041 255.875 214.912 269.137 221.288C282.399 227.663 278.731 213.55 276.781 209.463C271.24 197.92 230.326 163.678 224.914 179.359Z" fill="#F98C0B"/>
<path d="M154.089 210.183C153.73 210.183 153.371 210.183 152.986 210.157C147.83 209.9 145.932 207.689 145.983 206.352C145.983 205.684 146.471 205.298 147.266 205.298C147.599 205.298 147.984 205.375 148.369 205.504C149.267 205.812 150.216 205.967 151.293 205.967C152.961 205.967 154.628 205.581 156.116 205.247C157.347 204.964 158.527 204.707 159.476 204.707C160.117 204.707 160.631 204.836 160.99 205.067C161.58 205.453 161.81 206.198 161.554 206.995C161.092 208.537 158.886 210.183 154.064 210.183H154.089Z" fill="white"/>
<path d="M159.476 205.35C159.989 205.35 160.374 205.427 160.656 205.607C160.99 205.838 161.118 206.301 160.964 206.815C160.579 208.075 158.553 209.54 154.089 209.54C153.756 209.54 153.397 209.54 153.012 209.54C148.164 209.309 146.599 207.278 146.625 206.378C146.625 206.249 146.625 205.941 147.266 205.941C147.522 205.941 147.83 205.992 148.164 206.121C149.139 206.455 150.165 206.635 151.293 206.635C153.038 206.635 154.756 206.249 156.27 205.889C157.475 205.607 158.604 205.35 159.502 205.35H159.476ZM159.476 204.064C157.244 204.064 154.243 205.35 151.268 205.35C150.344 205.35 149.446 205.221 148.574 204.913C148.087 204.733 147.651 204.656 147.24 204.656C143.906 204.656 144.419 210.414 152.935 210.8C153.32 210.8 153.705 210.825 154.064 210.825C162.529 210.825 163.426 205.915 161.323 204.527C160.784 204.193 160.169 204.064 159.45 204.039L159.476 204.064Z" fill="black"/>
<path d="M156.86 222.779C151.293 222.779 145.598 222.29 143.213 222.059C145.137 219.643 150.601 212.882 156.398 206.815C157.834 205.324 159.809 204.578 162.452 204.578C165.53 204.578 169.07 205.529 172.815 206.532C176.637 207.56 180.587 208.614 184.127 208.614C186.462 208.614 188.385 208.151 190.027 207.226C198.313 202.522 239.15 169.771 240.894 168.382C242.28 167.585 243.87 167.148 245.537 167.148C250.18 167.148 255.234 170.516 258.414 175.709C261.236 180.311 261.775 185.246 259.902 188.922C251.899 204.604 226.427 211.93 209.574 216.763C204.854 218.126 200.801 219.283 198.236 220.362C194.003 222.111 192.361 222.445 190.822 222.445C190.361 222.445 189.899 222.419 189.386 222.368C188.719 222.316 187.949 222.265 186.975 222.265C179.818 222.265 176.637 220.619 174.739 219.643C173.841 219.18 173.2 218.846 172.481 218.846C171.635 218.846 170.942 219.308 170.044 220.414C169.326 221.288 166.684 222.779 156.885 222.779H156.86Z" fill="white"/>
<path d="M245.537 167.791C249.898 167.791 254.849 171.107 257.876 176.043C260.569 180.439 261.108 185.143 259.338 188.614C251.463 204.064 226.145 211.339 209.394 216.146C204.674 217.509 200.57 218.666 197.979 219.771C193.875 221.468 192.259 221.802 190.822 221.802C190.361 221.802 189.925 221.776 189.412 221.751C188.719 221.699 187.949 221.648 186.949 221.648C179.972 221.648 176.868 220.054 174.995 219.103C174.046 218.614 173.328 218.229 172.456 218.229C171.148 218.229 170.25 219.154 169.506 220.028C168.993 220.671 166.736 222.162 156.834 222.162C152.063 222.162 147.189 221.802 144.419 221.571C146.779 218.64 151.652 212.702 156.834 207.303C158.168 205.915 159.938 205.272 162.426 205.272C165.427 205.272 168.916 206.223 172.635 207.2C176.483 208.229 180.485 209.308 184.102 209.308C186.539 209.308 188.591 208.82 190.335 207.843C198.569 203.164 238.611 171.082 241.202 168.999C242.536 168.228 243.998 167.842 245.537 167.842V167.791ZM245.537 166.506C243.819 166.506 242.1 166.943 240.484 167.894C240.484 167.894 198.056 201.956 189.719 206.686C188.052 207.637 186.154 207.997 184.127 207.997C177.304 207.997 168.89 203.961 162.452 203.961C159.887 203.961 157.655 204.604 155.936 206.378C148.651 214.013 141.982 222.599 141.982 222.599C141.982 222.599 149.498 223.421 156.86 223.421C162.913 223.421 168.89 222.856 170.532 220.825C171.302 219.848 171.866 219.488 172.456 219.488C174.303 219.488 176.56 222.907 186.949 222.907C188.668 222.907 189.719 223.062 190.822 223.062C192.464 223.062 194.208 222.702 198.492 220.928C209.83 216.223 250.026 209.72 260.492 189.179C265.11 180.131 255.234 166.48 245.563 166.48L245.537 166.506Z" fill="black"/>
<path d="M183.332 87.1216C182.691 87.1216 182.075 87.0702 181.511 86.9674C172.045 85.2707 165.812 82.0059 163.016 77.25C161.477 74.6022 159.373 69.5636 157.373 64.6792C155.5 60.1547 153.576 55.4503 152.011 52.5711C150.395 49.5634 148.035 43.7021 150.447 38.3036C152.55 33.6249 157.783 30.2829 166.043 28.3292C169.275 27.558 172.353 27.1724 175.123 27.1724C192.541 27.1724 195.029 41.9026 195.132 42.5453L195.234 43.2137L195.901 43.0851C196.491 42.9566 197.056 42.9052 197.594 42.9052C201.468 42.9052 204.264 46.0929 204.854 51.1829C205.367 55.5531 201.852 57.7897 201.827 57.7897L201.442 58.021L201.545 58.4581C203.648 69.0494 200.262 75.9647 197.056 79.8722C193.464 84.2681 188.078 87.0959 183.358 87.0959L183.332 87.1216Z" fill="white"/>
<path d="M175.124 27.8409C191.951 27.8409 194.414 42.057 194.491 42.6739L194.696 44.0107L196.03 43.7279C196.568 43.6251 197.081 43.548 197.594 43.548C201.801 43.548 203.776 47.5326 204.213 51.2601C204.674 55.1676 201.596 57.1728 201.468 57.2499L200.724 57.7127L200.903 58.5867C202.956 68.9467 199.672 75.6563 196.543 79.461C193.054 83.7027 187.872 86.4533 183.332 86.4533C182.742 86.4533 182.152 86.4019 181.613 86.2991C172.328 84.6538 166.274 81.4661 163.58 76.8902C162.067 74.2938 159.989 69.2552 157.963 64.3965C156.09 59.8464 154.141 55.1419 152.576 52.237C151.011 49.3321 148.728 43.6765 151.037 38.5351C153.063 34.062 158.142 30.8229 166.197 28.9206C169.403 28.175 172.404 27.7894 175.124 27.7894V27.8409ZM175.124 26.5555C172.404 26.5555 169.352 26.9154 165.889 27.7123C144.162 32.8281 148.01 46.5043 151.447 52.8797C154.654 58.8181 159.45 72.4172 162.452 77.5586C165.479 82.7001 172.225 85.9649 181.383 87.5845C181.998 87.6873 182.665 87.7387 183.332 87.7387C192.567 87.7387 205.931 77.3273 202.16 58.3296C202.16 58.3296 206.059 55.9132 205.495 51.0802C204.879 45.9387 202.006 42.2369 197.594 42.2369C197.004 42.2369 196.414 42.314 195.773 42.4426C195.773 42.4426 193.311 26.5298 175.124 26.5298V26.5555Z" fill="black"/>
<path d="M181.075 50.9518C175.509 48.3554 170.455 50.3091 170.25 50.4119C169.942 50.5405 169.788 50.9004 169.916 51.1832C170.045 51.4916 170.378 51.6459 170.686 51.5174C170.737 51.5174 175.457 49.6664 180.562 52.0315C180.639 52.0572 180.716 52.0829 180.818 52.0829C181.049 52.0829 181.254 51.9544 181.357 51.723C181.485 51.4145 181.357 51.0803 181.075 50.9261V50.9518Z" fill="black"/>
<path d="M164.376 53.0085C164.042 52.9571 163.76 53.2399 163.734 53.5741C163.734 53.6769 163.632 54.4995 162.503 54.7309C160.246 55.2193 158.553 56.479 157.527 58.4841C157.373 58.7926 157.501 59.1268 157.783 59.2811C157.886 59.3325 157.963 59.3582 158.065 59.3582C158.27 59.3582 158.501 59.2297 158.604 59.024C159.45 57.353 160.861 56.3247 162.759 55.9134C164.401 55.5535 164.914 54.2939 164.94 53.6512C164.94 53.317 164.709 53.0599 164.376 53.0085Z" fill="black"/>
<path d="M181.562 67.7129C181.306 67.9186 181.254 68.2785 181.434 68.5355C181.434 68.5355 181.562 68.7669 181.434 69.2553C181.126 70.2065 179.664 72.2631 173.2 75.1937C172.892 75.3222 172.764 75.6821 172.892 75.9906C172.995 76.1963 173.2 76.3505 173.431 76.3505C173.508 76.3505 173.61 76.3505 173.687 76.2991C179.074 73.8569 182.101 71.5433 182.614 69.461C182.87 68.4841 182.434 67.8929 182.409 67.8414C182.203 67.5844 181.819 67.5072 181.562 67.7129Z" fill="black"/>
<path d="M172.405 64.6539C170.763 63.9598 169.48 63.9084 168.608 64.5254C167.531 65.2966 167.633 66.7876 167.633 66.8391C167.633 67.1475 167.916 67.4046 168.223 67.4046C168.223 67.4046 168.223 67.4046 168.275 67.4046C168.608 67.4046 168.865 67.0961 168.839 66.7619C168.839 66.7619 168.788 65.8879 169.327 65.5023C169.814 65.1681 170.737 65.2452 171.943 65.7593C172.251 65.8879 172.61 65.7593 172.738 65.4509C172.866 65.1424 172.738 64.8082 172.43 64.6539H172.405Z" fill="black"/>
<path d="M225.401 61.8517C225.401 54.1909 218.706 7.48088 191.105 1.28543C158.476 -6.04113 149.934 20.9 149.934 20.9C130.259 41.3116 148.42 51.3374 150.575 60.4635C154.448 76.8647 161.939 101.209 148.728 104.808C148.728 104.808 165.812 107.816 187.924 91.7235L186.513 87.8417C186.513 87.8417 171.43 88.8185 165.068 80.875C161.195 76.0421 151.447 52.9055 151.447 52.9055C151.447 52.9055 153.012 48.4325 161.631 49.0752C161.631 49.0752 157.424 43.7024 158.732 35.5789C158.732 35.5789 163.093 42.237 171.071 46.5816L176.74 45.5019C176.74 45.5019 173.585 42.6998 171.302 39.8463C171.302 39.8463 177.099 42.3399 180.228 45.0134C180.228 45.0134 182.716 42.854 194.183 42.5455C194.516 42.5455 191.515 35.6046 191.874 35.5789C192.054 35.5789 195.568 42.5198 195.748 42.4941C208.548 42.3399 205.854 55.065 202.135 58.3812C194.311 65.3478 204.033 95.9137 198.518 102.186C198.518 102.186 230.198 91.1322 236.328 75.6307C236.328 75.6307 225.375 76.8133 225.375 61.8517H225.401Z" fill="black"/>
<path d="M177.535 53.9595C176.663 53.9595 175.97 54.6022 175.996 55.3734C175.996 56.1189 176.74 56.7359 177.586 56.7101C178.458 56.7101 179.151 56.0675 179.125 55.2962C179.125 54.5507 178.407 53.9595 177.535 53.9595Z" fill="black"/>
<path d="M163.991 58.9469C163.119 58.9469 162.426 59.5896 162.452 60.3351C162.452 61.1063 163.196 61.6976 164.042 61.6719C164.914 61.6719 165.607 61.0292 165.581 60.258C165.581 59.5125 164.837 58.8955 163.991 58.9212V58.9469Z" fill="black"/>
<path d="M205.47 61.7489C197.389 61.7489 190.386 55.9648 188.847 48.0213C187.052 38.8181 193.054 29.872 202.212 28.0468C203.289 27.8411 204.418 27.7383 205.495 27.7383C213.576 27.7383 220.578 33.5224 222.118 41.4659C222.99 45.9133 222.092 50.4635 219.552 54.2167C217.038 57.9957 213.191 60.5407 208.727 61.4148C207.65 61.6204 206.547 61.7489 205.444 61.7489H205.47Z" fill="#37A995"/>
<path d="M205.521 28.3811C213.165 28.3811 219.988 33.7796 221.528 41.5946C223.272 50.4636 217.5 59.0498 208.65 60.7979C207.573 61.0035 206.521 61.1064 205.47 61.1064C197.825 61.1064 191.002 55.7078 189.463 47.8929C187.719 39.0239 193.49 30.4376 202.34 28.6896C203.392 28.4839 204.469 28.3811 205.495 28.3811H205.521ZM205.521 27.0957C204.392 27.0957 203.238 27.1985 202.109 27.4299C192.592 29.3065 186.359 38.6125 188.232 48.1499C189.848 56.4019 197.107 62.3917 205.495 62.3917C206.65 62.3917 207.778 62.2889 208.907 62.0575C218.424 60.1809 224.657 50.8749 222.784 41.3375C221.168 33.0855 213.909 27.0957 205.521 27.0957Z" fill="#08000A"/>
<path d="M210.985 54.011C207.265 54.011 203.725 50.2577 202.75 45.2705C201.673 39.7178 204.059 34.5506 208.086 33.7537C208.445 33.6766 208.804 33.6509 209.138 33.6509C212.857 33.6509 216.397 37.4041 217.372 42.3913C218.449 47.9441 216.064 53.1112 212.036 53.9082C211.677 53.9853 211.318 54.011 210.985 54.011Z" fill="white"/>
<path d="M209.138 34.2937C212.549 34.2937 215.807 37.8413 216.731 42.52C217.757 47.7385 215.576 52.5458 211.908 53.2913C211.6 53.3427 211.292 53.3941 210.985 53.3941C207.573 53.3941 204.289 49.8465 203.392 45.1678C202.366 39.9493 204.546 35.142 208.214 34.3965C208.522 34.3451 208.83 34.2937 209.138 34.2937ZM209.138 33.0083C208.753 33.0083 208.342 33.034 207.958 33.1111C203.571 33.9852 200.955 39.4608 202.109 45.3735C203.161 50.7463 206.983 54.6281 210.959 54.6281C211.344 54.6281 211.754 54.6024 212.139 54.5252C216.525 53.6512 219.142 48.1756 217.987 42.2629C216.936 36.8901 213.114 33.0083 209.138 33.0083Z" fill="black"/>
<path d="M207.932 34.1905C205.418 34.6789 203.879 37.661 204.495 40.823C205.11 43.985 207.676 46.1444 210.189 45.6559C212.703 45.1675 214.268 42.1855 213.627 39.0235C213.011 35.8615 210.472 33.7021 207.932 34.1905Z" fill="black"/>
<path d="M209.882 40.4376C209.292 40.4376 208.753 40.1291 208.42 39.6407C207.753 38.6381 192.079 15.1674 178.099 13.0851C177.099 12.9309 176.022 12.8538 174.918 12.8538C162.016 12.8538 146.907 23.2395 145.214 24.422C144.727 24.7562 144.496 25.4503 144.265 26.2215C144.188 26.4529 144.085 26.7871 143.983 27.0184C143.777 26.8385 143.393 26.4529 143.213 25.8359C142.88 24.7819 143.239 23.4194 144.265 21.9027C146.471 18.6636 160.22 9.30615 174.328 9.30615C175.791 9.30615 177.227 9.40898 178.638 9.61464C194.311 11.954 210.703 36.6586 211.369 37.7126C211.908 38.5353 211.677 39.615 210.882 40.1548C210.6 40.3348 210.266 40.4376 209.907 40.4376H209.882Z" fill="white"/>
<path d="M174.303 9.94894C175.739 9.94894 177.15 10.0518 178.51 10.2574C193.901 12.5454 210.651 37.8156 210.805 38.0726C211.139 38.5868 211.01 39.2809 210.497 39.6151C210.318 39.7436 210.112 39.795 209.882 39.795C209.497 39.795 209.163 39.6151 208.958 39.2809C208.804 39.0238 192.541 14.5762 178.202 12.4425C177.15 12.2883 176.047 12.2112 174.918 12.2112C161.81 12.2112 146.548 22.6997 144.829 23.908C144.29 24.2679 144.008 24.8848 143.777 25.5789C143.777 25.5789 143.777 25.5532 143.777 25.5275C143.572 24.6792 143.906 23.5224 144.778 22.237C146.856 19.1778 160.656 9.92323 174.303 9.92323V9.94894ZM174.303 8.66357C159.963 8.66357 145.958 18.2267 143.726 21.5172C140.879 25.6818 143.521 27.6098 144.034 27.7383C144.034 27.7383 144.085 27.7383 144.111 27.7383C144.726 27.7383 144.932 25.3476 145.547 24.962C145.727 24.8334 161.528 13.4965 174.918 13.4965C175.97 13.4965 176.996 13.5737 177.997 13.7022C191.797 15.7588 207.727 39.7436 207.881 39.975C208.342 40.6691 209.112 41.0547 209.882 41.0547C210.343 41.0547 210.779 40.9261 211.19 40.6691C212.293 39.9493 212.601 38.4583 211.857 37.3528C211.164 36.2988 194.568 11.3371 178.664 8.97206C177.201 8.7664 175.739 8.66357 174.277 8.66357H174.303Z" fill="black"/>
<path d="M247.256 101.955C230.993 98.3559 228.607 94.397 228.607 94.397C228.607 94.397 223.272 115.76 234.276 147.662C238.355 159.488 240.356 163.267 240.356 163.267C233.994 162.136 225.452 177.637 225.452 177.637C252.104 176.454 278.397 220.311 278.397 220.311C278.397 220.311 290.992 169.359 281.706 139.307C272.42 109.256 263.494 105.554 247.23 101.955H247.256Z" fill="#F98C0B"/>
<path d="M229.3 96.685C228.992 96.5308 228.633 96.685 228.505 96.9678C228.376 97.2506 215.422 124.68 195.414 126.84C190.412 127.379 186.616 126.223 184.153 123.446C178.458 117.019 181.331 103.883 181.357 103.755C181.434 103.42 181.229 103.112 180.895 103.035C180.562 102.958 180.254 103.163 180.177 103.497C180.049 104.063 177.124 117.379 183.255 124.269C185.564 126.891 188.873 128.202 193.105 128.202C193.901 128.202 194.696 128.151 195.542 128.074C216.218 125.863 229.043 98.6902 229.582 97.5334C229.71 97.2249 229.582 96.865 229.3 96.7365V96.685Z" fill="black"/>
<path d="M186.59 119.076C186.436 119.359 186.539 119.719 186.821 119.899C186.898 119.95 187 119.976 187.103 119.976C187.308 119.976 187.514 119.873 187.616 119.667C187.77 119.384 187.667 119.025 187.385 118.845C187.077 118.69 186.718 118.793 186.564 119.076H186.59Z" fill="black"/>
<path d="M195.26 120.156C194.927 120.181 194.696 120.464 194.696 120.798C194.696 121.107 194.978 121.364 195.312 121.364C195.671 121.338 195.902 121.055 195.876 120.721C195.85 120.387 195.568 120.13 195.235 120.156H195.26Z" fill="black"/>
<path d="M191.182 120.053C190.874 120.001 190.566 120.233 190.515 120.541C190.438 120.875 190.694 121.184 191.002 121.235H191.105C191.387 121.235 191.643 121.029 191.695 120.721C191.746 120.412 191.515 120.104 191.182 120.053Z" fill="black"/>
<path d="M189.232 119.59C188.924 119.487 188.591 119.667 188.488 120.001C188.386 120.31 188.565 120.644 188.873 120.747C188.95 120.772 189.001 120.772 189.078 120.772C189.335 120.772 189.566 120.618 189.643 120.361C189.745 120.053 189.566 119.718 189.258 119.616L189.232 119.59Z" fill="black"/>
<path d="M193.208 120.207C192.875 120.207 192.593 120.438 192.593 120.773C192.593 121.107 192.849 121.39 193.183 121.39C193.516 121.39 193.798 121.132 193.798 120.824C193.798 120.49 193.542 120.207 193.234 120.207H193.208Z" fill="black"/>
<path d="M201.314 119.025C201.006 119.127 200.827 119.436 200.904 119.77C200.981 120.053 201.212 120.207 201.468 120.207C201.519 120.207 201.571 120.207 201.648 120.181C201.955 120.079 202.135 119.744 202.058 119.436C201.955 119.127 201.622 118.948 201.314 119.025Z" fill="black"/>
<path d="M199.313 119.539C199.005 119.616 198.8 119.95 198.877 120.258C198.954 120.541 199.185 120.747 199.467 120.747C199.518 120.747 199.544 120.747 199.595 120.747C199.903 120.67 200.134 120.335 200.057 120.027C199.98 119.719 199.672 119.487 199.339 119.564L199.313 119.539Z" fill="black"/>
<path d="M181.434 105.065C181.434 105.065 181.46 105.065 181.511 105.065C181.819 105.065 182.075 104.834 182.101 104.525C182.127 104.191 181.896 103.909 181.562 103.883C181.229 103.857 180.921 104.088 180.921 104.423C180.87 104.757 181.1 105.04 181.46 105.065H181.434Z" fill="black"/>
<path d="M197.287 119.924C196.953 119.976 196.722 120.284 196.799 120.618C196.825 120.927 197.081 121.132 197.389 121.132H197.492C197.8 121.081 198.031 120.772 197.979 120.438C197.928 120.104 197.62 119.873 197.312 119.924H197.287Z" fill="black"/>
<path d="M184.948 117.765C184.717 118.022 184.743 118.408 185 118.613C185.102 118.716 185.256 118.767 185.41 118.767C185.564 118.767 185.743 118.716 185.846 118.588C186.077 118.33 186.026 117.945 185.795 117.739C185.564 117.508 185.179 117.534 184.974 117.791L184.948 117.765Z" fill="black"/>
<path d="M181.357 107.173C181.665 107.173 181.947 106.916 181.947 106.608C181.947 106.274 181.691 105.991 181.357 105.991C181.049 105.991 180.767 106.248 180.741 106.582C180.741 106.916 180.998 107.199 181.331 107.199L181.357 107.173Z" fill="black"/>
<path d="M181.742 111.364C182.05 111.312 182.281 111.004 182.229 110.669C182.152 110.361 181.87 110.13 181.537 110.181C181.203 110.258 180.972 110.541 181.049 110.875C181.101 111.158 181.357 111.364 181.639 111.364C181.665 111.364 181.716 111.364 181.742 111.364Z" fill="black"/>
<path d="M181.434 109.281C181.742 109.256 181.998 108.973 181.998 108.639C181.998 108.304 181.691 108.047 181.357 108.073C181.024 108.073 180.793 108.382 180.793 108.716C180.793 109.024 181.075 109.281 181.408 109.281H181.434Z" fill="black"/>
<path d="M183.614 116.119C183.358 116.325 183.307 116.685 183.512 116.968C183.614 117.122 183.794 117.199 183.999 117.199C184.128 117.199 184.23 117.148 184.358 117.071C184.641 116.865 184.666 116.505 184.487 116.248C184.281 115.965 183.897 115.94 183.64 116.119H183.614Z" fill="black"/>
<path d="M203.264 118.356C202.956 118.459 202.776 118.819 202.904 119.127C202.981 119.359 203.212 119.538 203.469 119.538C203.52 119.538 203.597 119.538 203.674 119.487C203.982 119.384 204.136 119.024 204.033 118.716C203.93 118.407 203.571 118.253 203.264 118.356Z" fill="black"/>
<path d="M183.435 114.526C183.281 114.243 182.922 114.114 182.64 114.243C182.332 114.397 182.204 114.731 182.357 115.04C182.46 115.245 182.665 115.374 182.896 115.374C182.973 115.374 183.076 115.374 183.153 115.297C183.46 115.143 183.589 114.808 183.435 114.5V114.526Z" fill="black"/>
<path d="M182.691 112.649C182.588 112.34 182.255 112.16 181.947 112.238C181.639 112.34 181.46 112.675 181.537 112.983C181.614 113.24 181.844 113.394 182.101 113.394C182.152 113.394 182.229 113.394 182.255 113.394C182.563 113.292 182.742 112.957 182.665 112.649H182.691Z" fill="black"/>
<path d="M218.449 107.687C218.218 107.919 218.218 108.304 218.449 108.536C218.578 108.639 218.731 108.69 218.86 108.69C219.014 108.69 219.168 108.639 219.296 108.51C219.527 108.279 219.527 107.893 219.296 107.662C219.065 107.43 218.68 107.43 218.449 107.687Z" fill="black"/>
<path d="M221.168 104.551C220.963 104.808 221.014 105.194 221.271 105.399C221.374 105.477 221.502 105.528 221.656 105.528C221.81 105.528 221.989 105.451 222.117 105.322C222.323 105.04 222.271 104.68 222.015 104.474C221.758 104.268 221.374 104.294 221.168 104.551Z" fill="black"/>
<path d="M219.835 106.145C219.629 106.376 219.629 106.762 219.886 106.993C219.988 107.096 220.142 107.148 220.271 107.148C220.45 107.148 220.604 107.071 220.732 106.942C220.938 106.711 220.938 106.325 220.681 106.094C220.45 105.888 220.065 105.914 219.835 106.171V106.145Z" fill="black"/>
<path d="M223.708 101.209C223.528 101.492 223.58 101.852 223.862 102.058C223.965 102.109 224.093 102.161 224.195 102.161C224.375 102.161 224.58 102.058 224.683 101.904C224.862 101.621 224.811 101.261 224.555 101.055C224.272 100.875 223.913 100.927 223.708 101.209Z" fill="black"/>
<path d="M222.477 102.906C222.272 103.163 222.323 103.523 222.579 103.729C222.682 103.806 222.81 103.857 222.938 103.857C223.144 103.857 223.298 103.78 223.426 103.626C223.631 103.343 223.58 102.983 223.323 102.777C223.041 102.572 222.682 102.623 222.502 102.906H222.477Z" fill="black"/>
<path d="M224.888 99.4869C224.708 99.7697 224.785 100.13 225.067 100.335C225.17 100.387 225.273 100.438 225.375 100.438C225.58 100.438 225.76 100.335 225.888 100.155C226.068 99.8725 225.991 99.5126 225.709 99.3326C225.427 99.1527 225.067 99.2298 224.888 99.5126V99.4869Z" fill="black"/>
<path d="M227.915 95.708C227.633 95.5537 227.274 95.6309 227.094 95.9393C226.94 96.2221 227.017 96.582 227.325 96.762C227.428 96.8134 227.504 96.8391 227.633 96.8391C227.838 96.8391 228.043 96.7363 228.146 96.5306C228.3 96.2478 228.223 95.8622 227.915 95.708Z" fill="black"/>
<path d="M205.188 117.533C204.88 117.688 204.751 118.022 204.88 118.33C204.982 118.562 205.188 118.69 205.418 118.69C205.521 118.69 205.598 118.69 205.675 118.639C205.983 118.485 206.111 118.15 205.983 117.842C205.829 117.533 205.495 117.405 205.188 117.533Z" fill="black"/>
<path d="M226.863 97.5331C226.581 97.3532 226.196 97.4303 226.042 97.7388C225.863 98.0215 225.94 98.3814 226.222 98.5614C226.324 98.6385 226.427 98.6642 226.53 98.6642C226.709 98.6642 226.94 98.5614 227.043 98.3814C227.222 98.0987 227.12 97.7131 226.863 97.5588V97.5331Z" fill="black"/>
<path d="M210.574 114.5C210.292 114.68 210.241 115.066 210.42 115.323C210.523 115.503 210.728 115.606 210.908 115.606C211.036 115.606 211.139 115.58 211.241 115.503C211.523 115.323 211.6 114.963 211.395 114.68C211.216 114.397 210.831 114.346 210.574 114.526V114.5Z" fill="black"/>
<path d="M208.83 115.631C208.548 115.786 208.471 116.171 208.625 116.454C208.727 116.634 208.933 116.737 209.138 116.737C209.24 116.737 209.369 116.711 209.446 116.66C209.728 116.48 209.805 116.12 209.651 115.837C209.497 115.554 209.112 115.477 208.83 115.631Z" fill="black"/>
<path d="M207.034 116.634C206.752 116.788 206.624 117.174 206.804 117.456C206.906 117.662 207.111 117.765 207.342 117.765C207.445 117.765 207.522 117.765 207.599 117.714C207.907 117.559 208.009 117.174 207.855 116.891C207.701 116.608 207.342 116.48 207.034 116.634Z" fill="black"/>
<path d="M212.267 113.292C211.985 113.472 211.959 113.857 212.139 114.114C212.267 114.269 212.447 114.346 212.626 114.346C212.755 114.346 212.883 114.32 212.986 114.243C213.242 114.037 213.293 113.652 213.088 113.394C212.883 113.112 212.524 113.086 212.267 113.292Z" fill="black"/>
<path d="M215.474 110.618C215.217 110.849 215.192 111.235 215.422 111.466C215.551 111.595 215.705 111.672 215.884 111.672C216.012 111.672 216.166 111.621 216.269 111.518C216.525 111.286 216.551 110.901 216.32 110.669C216.089 110.412 215.705 110.387 215.474 110.618Z" fill="black"/>
<path d="M216.987 109.178C216.756 109.41 216.756 109.795 216.987 110.027C217.115 110.13 217.269 110.207 217.423 110.207C217.551 110.207 217.731 110.155 217.834 110.027C218.064 109.795 218.064 109.41 217.834 109.178C217.603 108.947 217.218 108.947 216.987 109.178Z" fill="black"/>
<path d="M213.883 111.981C213.627 112.187 213.576 112.572 213.806 112.829C213.909 112.958 214.089 113.035 214.268 113.035C214.396 113.035 214.55 112.983 214.653 112.881C214.884 112.675 214.935 112.315 214.73 112.058C214.525 111.801 214.14 111.775 213.883 111.981Z" fill="black"/>
<path d="M125.231 228.203H216.833C219.014 228.203 220.758 226.455 220.758 224.27H125.231V228.203Z" fill="black"/>
<path d="M28.5502 227.56C26.8059 227.56 25.2925 226.429 24.7794 224.758L0.820814 145.837C0.461691 144.629 0.666904 143.343 1.43645 142.341C2.18035 141.338 3.33467 140.747 4.5916 140.747H122.127C123.872 140.747 125.385 141.878 125.898 143.549L149.857 222.496C150.216 223.704 150.011 224.99 149.267 225.992C148.523 226.995 147.369 227.586 146.112 227.586H28.5502V227.56Z" fill="#366A48"/>
<path d="M122.127 141.39C123.59 141.39 124.846 142.341 125.283 143.729L149.267 222.676C149.575 223.679 149.395 224.758 148.754 225.607C148.112 226.455 147.163 226.944 146.112 226.944H28.5502C27.0881 226.944 25.8311 225.992 25.3951 224.604L1.43644 145.657C1.12862 144.655 1.30818 143.575 1.94948 142.727C2.56511 141.878 3.53988 141.39 4.59159 141.39H122.127ZM122.127 140.104H4.59159C1.5134 140.104 -0.692643 143.087 0.205164 146.043L24.1894 224.99C24.7794 226.918 26.5494 228.255 28.5759 228.255H146.112C149.19 228.255 151.396 225.273 150.498 222.316L126.514 143.395C125.924 141.467 124.154 140.13 122.127 140.13V140.104Z" fill="black"/>
<path d="M310 225.864H14.0571V228.82H310V225.864Z" fill="#16162B"/>
</g>
<defs>
<clipPath id="clip0_10_3507">
<rect width="310" height="229" fill="white"/>
</clipPath>
</defs>
</svg>
